%TF.GenerationSoftware,KiCad,Pcbnew,8.0.3-8.0.3-0~ubuntu23.10.1*%
%TF.CreationDate,2024-11-23T00:09:23-05:00*%
%TF.ProjectId,28mhz_class_e_amplifier_for_pi,32386d68-7a5f-4636-9c61-73735f655f61,alpha*%
%TF.SameCoordinates,Original*%
%TF.FileFunction,Copper,L2,Bot*%
%TF.FilePolarity,Positive*%
%FSLAX46Y46*%
G04 Gerber Fmt 4.6, Leading zero omitted, Abs format (unit mm)*
G04 Created by KiCad (PCBNEW 8.0.3-8.0.3-0~ubuntu23.10.1) date 2024-11-23 00:09:23*
%MOMM*%
%LPD*%
G01*
G04 APERTURE LIST*
%TA.AperFunction,ComponentPad*%
%ADD10R,1.446000X1.446000*%
%TD*%
%TA.AperFunction,ComponentPad*%
%ADD11C,1.446000*%
%TD*%
%TA.AperFunction,ComponentPad*%
%ADD12C,3.000000*%
%TD*%
%TA.AperFunction,ComponentPad*%
%ADD13R,1.700000X1.700000*%
%TD*%
%TA.AperFunction,ComponentPad*%
%ADD14O,1.700000X1.700000*%
%TD*%
%TA.AperFunction,ComponentPad*%
%ADD15O,1.905000X2.000000*%
%TD*%
%TA.AperFunction,ComponentPad*%
%ADD16R,1.905000X2.000000*%
%TD*%
%TA.AperFunction,ComponentPad*%
%ADD17C,4.800000*%
%TD*%
%TA.AperFunction,ComponentPad*%
%ADD18R,1.500000X1.500000*%
%TD*%
%TA.AperFunction,ComponentPad*%
%ADD19C,1.500000*%
%TD*%
%TA.AperFunction,ViaPad*%
%ADD20C,1.500000*%
%TD*%
%TA.AperFunction,ViaPad*%
%ADD21C,0.600000*%
%TD*%
%TA.AperFunction,Conductor*%
%ADD22C,0.200000*%
%TD*%
G04 APERTURE END LIST*
D10*
%TO.P,J1,1,In*%
%TO.N,0*%
X171975000Y-68360000D03*
D11*
%TO.P,J1,2,Ext*%
%TO.N,Net-(J1-In)*%
X171975000Y-70900000D03*
D12*
%TO.P,J1,MH1*%
%TO.N,N/C*%
X177055000Y-65820000D03*
%TO.P,J1,MH2*%
X177055000Y-75980000D03*
%TD*%
D13*
%TO.P,J3,1,Pin_1*%
%TO.N,Net-(J3-Pin_1)*%
X108350000Y-100155000D03*
D14*
%TO.P,J3,2,Pin_2*%
%TO.N,Net-(J3-Pin_2)*%
X108350000Y-97615000D03*
%TO.P,J3,3,Pin_3*%
%TO.N,0*%
X108350000Y-95075000D03*
%TD*%
D15*
%TO.P,RD16HHF1,1,D*%
%TO.N,0*%
X153640000Y-100425000D03*
D16*
%TO.P,RD16HHF1,2,G*%
%TO.N,Net-(M1-G)*%
X151100000Y-100425000D03*
D15*
%TO.P,RD16HHF1,3,S*%
%TO.N,Net-(M1-D)*%
X156180000Y-100425000D03*
%TD*%
D17*
%TO.P,J2,1,POWER*%
%TO.N,Net-(J2-POWER)*%
X120309500Y-85550000D03*
%TO.P,J2,2,GND_1*%
%TO.N,0*%
X114509500Y-85550000D03*
%TO.P,J2,3,GND_2*%
X117309500Y-90350000D03*
%TD*%
D16*
%TO.P,LM7805,1,VI*%
%TO.N,Net-(J2-POWER)*%
X134240000Y-97655000D03*
D15*
%TO.P,LM7805,2,GND*%
%TO.N,0*%
X131700000Y-97655000D03*
%TO.P,LM7805,3,VO*%
%TO.N,Net-(J3-Pin_1)*%
X129160000Y-97655000D03*
%TD*%
D18*
%TO.P,L1,1*%
%TO.N,Net-(J2-POWER)*%
X145200000Y-85425000D03*
D19*
%TO.P,L1,2*%
%TO.N,Net-(M1-D)*%
X145200000Y-90425000D03*
%TD*%
D20*
%TO.N,0*%
X138450000Y-72875000D03*
D21*
X130650000Y-72875000D03*
X163500000Y-73250000D03*
X127700000Y-83250000D03*
X131050000Y-73400000D03*
X129900000Y-101950000D03*
X163100000Y-72725000D03*
X128225000Y-82850000D03*
X162000000Y-100150000D03*
X131450000Y-72875000D03*
X151500000Y-73300000D03*
X134750000Y-102350000D03*
X151900000Y-72775000D03*
X151100000Y-72775000D03*
X126500000Y-91350000D03*
X130425000Y-102350000D03*
X134225000Y-102750000D03*
X163900000Y-72725000D03*
X134225000Y-101950000D03*
X162000000Y-100950000D03*
X127700000Y-82450000D03*
X162525000Y-100550000D03*
X129900000Y-102750000D03*
X127375000Y-91350000D03*
%TD*%
D22*
%TO.N,0*%
X134550000Y-102325000D02*
X134525000Y-102350000D01*
X151400000Y-72850000D02*
X151475000Y-72925000D01*
X108350000Y-95075000D02*
X108350000Y-95100000D01*
X138300000Y-73025000D02*
X138475000Y-72850000D01*
X163690000Y-73040000D02*
X163575000Y-72925000D01*
%TD*%
%TA.AperFunction,Conductor*%
%TO.N,0*%
G36*
X185041585Y-56995213D02*
G01*
X185170780Y-57054214D01*
X185278119Y-57147224D01*
X185354906Y-57266708D01*
X185394921Y-57402985D01*
X185400000Y-57474000D01*
X185400000Y-103451000D01*
X185379787Y-103591585D01*
X185320786Y-103720780D01*
X185227776Y-103828119D01*
X185108292Y-103904906D01*
X184972015Y-103944921D01*
X184901000Y-103950000D01*
X106524000Y-103950000D01*
X106383415Y-103929787D01*
X106254220Y-103870786D01*
X106146881Y-103777776D01*
X106070094Y-103658292D01*
X106030079Y-103522015D01*
X106025000Y-103451000D01*
X106025000Y-102143976D01*
X106045213Y-102003391D01*
X106104214Y-101874196D01*
X106197224Y-101766857D01*
X106316708Y-101690070D01*
X106452985Y-101650055D01*
X106595015Y-101650055D01*
X106731292Y-101690070D01*
X106839336Y-101757241D01*
X106946593Y-101844698D01*
X107126951Y-101938909D01*
X107322582Y-101994886D01*
X107441963Y-102005500D01*
X109258036Y-102005499D01*
X109377418Y-101994886D01*
X109573049Y-101938909D01*
X109753407Y-101844698D01*
X109874297Y-101746125D01*
X109911108Y-101716110D01*
X109911110Y-101716108D01*
X109964969Y-101650055D01*
X110039698Y-101558407D01*
X110133909Y-101378049D01*
X110189886Y-101182418D01*
X110200500Y-101063037D01*
X110200499Y-99246964D01*
X110189886Y-99127582D01*
X110133909Y-98931951D01*
X110120357Y-98906007D01*
X110061785Y-98793875D01*
X110014611Y-98659908D01*
X110007091Y-98518077D01*
X110036541Y-98388459D01*
X110130077Y-98137677D01*
X110186343Y-97879026D01*
X110205227Y-97615000D01*
X110195535Y-97479494D01*
X127207000Y-97479494D01*
X127207000Y-97830505D01*
X127240416Y-98084327D01*
X127306677Y-98331615D01*
X127306679Y-98331622D01*
X127404648Y-98568140D01*
X127532651Y-98789849D01*
X127532661Y-98789864D01*
X127688506Y-98992964D01*
X127688507Y-98992965D01*
X127869535Y-99173993D01*
X128072643Y-99329844D01*
X128136947Y-99366970D01*
X128294359Y-99457851D01*
X128424741Y-99511857D01*
X128530882Y-99555822D01*
X128778171Y-99622083D01*
X129031994Y-99655500D01*
X129031995Y-99655500D01*
X129288005Y-99655500D01*
X129288006Y-99655500D01*
X129541829Y-99622083D01*
X129789118Y-99555822D01*
X130025643Y-99457850D01*
X130247357Y-99329844D01*
X130450465Y-99173993D01*
X130510756Y-99113701D01*
X130624450Y-99028591D01*
X130757525Y-98978955D01*
X130899193Y-98968822D01*
X131037977Y-98999012D01*
X131090139Y-99021939D01*
X131142429Y-99048582D01*
X131200000Y-99067287D01*
X131200000Y-97888974D01*
X131259890Y-97992708D01*
X131362292Y-98095110D01*
X131487708Y-98167518D01*
X131627591Y-98205000D01*
X131772409Y-98205000D01*
X131912292Y-98167518D01*
X132037708Y-98095110D01*
X132140110Y-97992708D01*
X132200000Y-97888974D01*
X132200000Y-99067288D01*
X132324008Y-99157386D01*
X132391819Y-99186042D01*
X132501772Y-99275947D01*
X132520877Y-99298026D01*
X132576393Y-99366112D01*
X132734089Y-99494695D01*
X132734093Y-99494698D01*
X132914451Y-99588909D01*
X133110082Y-99644886D01*
X133229463Y-99655500D01*
X135250536Y-99655499D01*
X135369918Y-99644886D01*
X135565549Y-99588909D01*
X135745907Y-99494698D01*
X135902553Y-99366970D01*
X135902562Y-99366963D01*
X149147000Y-99366963D01*
X149147000Y-99366969D01*
X149147000Y-99366970D01*
X149147000Y-101483030D01*
X149157614Y-101602417D01*
X149213590Y-101798046D01*
X149213595Y-101798057D01*
X149307802Y-101978407D01*
X149307804Y-101978410D01*
X149436389Y-102136108D01*
X149436391Y-102136110D01*
X149594089Y-102264695D01*
X149594093Y-102264698D01*
X149774451Y-102358909D01*
X149970082Y-102414886D01*
X150089463Y-102425500D01*
X152110536Y-102425499D01*
X152229918Y-102414886D01*
X152425549Y-102358909D01*
X152605907Y-102264698D01*
X152763609Y-102136109D01*
X152819123Y-102068025D01*
X152923626Y-101971846D01*
X153020767Y-101923916D01*
X153140000Y-101837288D01*
X153140000Y-100658974D01*
X153199890Y-100762708D01*
X153302292Y-100865110D01*
X153427708Y-100937518D01*
X153567591Y-100975000D01*
X153712409Y-100975000D01*
X153852292Y-100937518D01*
X153977708Y-100865110D01*
X154080110Y-100762708D01*
X154140000Y-100658974D01*
X154140000Y-101837287D01*
X154197567Y-101818583D01*
X154249857Y-101791940D01*
X154384295Y-101746125D01*
X154526195Y-101740042D01*
X154664061Y-101774182D01*
X154786724Y-101845782D01*
X154829247Y-101883705D01*
X154889535Y-101943993D01*
X155092643Y-102099844D01*
X155155454Y-102136108D01*
X155314359Y-102227851D01*
X155550877Y-102325820D01*
X155550882Y-102325822D01*
X155798171Y-102392083D01*
X156051994Y-102425500D01*
X156051995Y-102425500D01*
X156308005Y-102425500D01*
X156308006Y-102425500D01*
X156561829Y-102392083D01*
X156809118Y-102325822D01*
X157045643Y-102227850D01*
X157267357Y-102099844D01*
X157470465Y-101943993D01*
X157651493Y-101762965D01*
X157807344Y-101559857D01*
X157935350Y-101338143D01*
X158033322Y-101101618D01*
X158099583Y-100854329D01*
X158133000Y-100600506D01*
X158133000Y-100249494D01*
X158099583Y-99995671D01*
X158033322Y-99748382D01*
X157994849Y-99655499D01*
X157935351Y-99511859D01*
X157925441Y-99494695D01*
X157807344Y-99290143D01*
X157774211Y-99246964D01*
X157651493Y-99087035D01*
X157470464Y-98906006D01*
X157267364Y-98750161D01*
X157267360Y-98750158D01*
X157267357Y-98750156D01*
X157267353Y-98750153D01*
X157267349Y-98750151D01*
X157045640Y-98622148D01*
X156809122Y-98524179D01*
X156809115Y-98524177D01*
X156561827Y-98457916D01*
X156346488Y-98429566D01*
X156308006Y-98424500D01*
X156051994Y-98424500D01*
X156018578Y-98428899D01*
X155798172Y-98457916D01*
X155550884Y-98524177D01*
X155550877Y-98524179D01*
X155314359Y-98622148D01*
X155092650Y-98750151D01*
X155092635Y-98750161D01*
X154889538Y-98906004D01*
X154829245Y-98966297D01*
X154715543Y-99051411D01*
X154582468Y-99101045D01*
X154440799Y-99111176D01*
X154302015Y-99080985D01*
X154249862Y-99058062D01*
X154197564Y-99031415D01*
X154140000Y-99012710D01*
X154140000Y-100191025D01*
X154080110Y-100087292D01*
X153977708Y-99984890D01*
X153852292Y-99912482D01*
X153712409Y-99875000D01*
X153567591Y-99875000D01*
X153427708Y-99912482D01*
X153302292Y-99984890D01*
X153199890Y-100087292D01*
X153140000Y-100191025D01*
X153140000Y-99012710D01*
X153015978Y-98922605D01*
X152948159Y-98893942D01*
X152838210Y-98804032D01*
X152819119Y-98781969D01*
X152763606Y-98713887D01*
X152605910Y-98585304D01*
X152605907Y-98585302D01*
X152425557Y-98491095D01*
X152425554Y-98491093D01*
X152425549Y-98491091D01*
X152309607Y-98457916D01*
X152229918Y-98435114D01*
X152110537Y-98424500D01*
X152110529Y-98424500D01*
X150089469Y-98424500D01*
X149970082Y-98435114D01*
X149774453Y-98491090D01*
X149774442Y-98491095D01*
X149594092Y-98585302D01*
X149594089Y-98585304D01*
X149436391Y-98713889D01*
X149436389Y-98713891D01*
X149307804Y-98871589D01*
X149307802Y-98871592D01*
X149213595Y-99051942D01*
X149213590Y-99051953D01*
X149157791Y-99246963D01*
X149157614Y-99247582D01*
X149147000Y-99366963D01*
X135902562Y-99366963D01*
X135903608Y-99366110D01*
X135903610Y-99366108D01*
X135965551Y-99290143D01*
X136032198Y-99208407D01*
X136126409Y-99028049D01*
X136182386Y-98832418D01*
X136193000Y-98713037D01*
X136192999Y-96596964D01*
X136182386Y-96477582D01*
X136126409Y-96281951D01*
X136032198Y-96101593D01*
X135959122Y-96011972D01*
X135903610Y-95943891D01*
X135903608Y-95943889D01*
X135745910Y-95815304D01*
X135745907Y-95815302D01*
X135565557Y-95721095D01*
X135565554Y-95721093D01*
X135565549Y-95721091D01*
X135449607Y-95687916D01*
X135369918Y-95665114D01*
X135250537Y-95654500D01*
X135250529Y-95654500D01*
X133229469Y-95654500D01*
X133110082Y-95665114D01*
X132914453Y-95721090D01*
X132914442Y-95721095D01*
X132734092Y-95815302D01*
X132734089Y-95815304D01*
X132576394Y-95943887D01*
X132520878Y-96011972D01*
X132416370Y-96108153D01*
X132319257Y-96156066D01*
X132200000Y-96242710D01*
X132200000Y-97421025D01*
X132140110Y-97317292D01*
X132037708Y-97214890D01*
X131912292Y-97142482D01*
X131772409Y-97105000D01*
X131627591Y-97105000D01*
X131487708Y-97142482D01*
X131362292Y-97214890D01*
X131259890Y-97317292D01*
X131200000Y-97421025D01*
X131200000Y-96242710D01*
X131142435Y-96261415D01*
X131142428Y-96261418D01*
X131090134Y-96288063D01*
X130955695Y-96333875D01*
X130813795Y-96339957D01*
X130675930Y-96305813D01*
X130553269Y-96234212D01*
X130510752Y-96196294D01*
X130450464Y-96136006D01*
X130247364Y-95980161D01*
X130247360Y-95980158D01*
X130247357Y-95980156D01*
X130247353Y-95980153D01*
X130247349Y-95980151D01*
X130025640Y-95852148D01*
X129789122Y-95754179D01*
X129789115Y-95754177D01*
X129541827Y-95687916D01*
X129326488Y-95659566D01*
X129288006Y-95654500D01*
X129031994Y-95654500D01*
X128998578Y-95658899D01*
X128778172Y-95687916D01*
X128530884Y-95754177D01*
X128530877Y-95754179D01*
X128294359Y-95852148D01*
X128072650Y-95980151D01*
X128072635Y-95980161D01*
X127869535Y-96136006D01*
X127688506Y-96317035D01*
X127532661Y-96520135D01*
X127532651Y-96520150D01*
X127404648Y-96741859D01*
X127306679Y-96978377D01*
X127306677Y-96978384D01*
X127240416Y-97225672D01*
X127207000Y-97479494D01*
X110195535Y-97479494D01*
X110186343Y-97350974D01*
X110130077Y-97092322D01*
X110037574Y-96844311D01*
X110037574Y-96844310D01*
X109997538Y-96770992D01*
X109910716Y-96611989D01*
X109752087Y-96400085D01*
X109637410Y-96285408D01*
X109552295Y-96171708D01*
X109502661Y-96038633D01*
X109492528Y-95896965D01*
X109522719Y-95758180D01*
X109538010Y-95721675D01*
X109606406Y-95575000D01*
X108415826Y-95575000D01*
X108542993Y-95540925D01*
X108657007Y-95475099D01*
X108750099Y-95382007D01*
X108815925Y-95267993D01*
X108850000Y-95140826D01*
X108850000Y-95009174D01*
X108815925Y-94882007D01*
X108750099Y-94767993D01*
X108657007Y-94674901D01*
X108542993Y-94609075D01*
X108415826Y-94575000D01*
X108850000Y-94575000D01*
X109606406Y-94575000D01*
X109523601Y-94397424D01*
X109523598Y-94397420D01*
X109388111Y-94203923D01*
X109388106Y-94203917D01*
X109221083Y-94036894D01*
X109221078Y-94036890D01*
X109027577Y-93901398D01*
X108850000Y-93818592D01*
X108850000Y-94575000D01*
X108415826Y-94575000D01*
X108284174Y-94575000D01*
X108157007Y-94609075D01*
X108042993Y-94674901D01*
X107949901Y-94767993D01*
X107884075Y-94882007D01*
X107850000Y-95009174D01*
X107850000Y-95140826D01*
X107884075Y-95267993D01*
X107949901Y-95382007D01*
X108042993Y-95475099D01*
X108157007Y-95540925D01*
X108284174Y-95575000D01*
X107093592Y-95575000D01*
X107161989Y-95721676D01*
X107203084Y-95857631D01*
X107204211Y-95999657D01*
X107165279Y-96136247D01*
X107089442Y-96256336D01*
X107062590Y-96285408D01*
X106947912Y-96400085D01*
X106923468Y-96432740D01*
X106823036Y-96533170D01*
X106698379Y-96601236D01*
X106559594Y-96631426D01*
X106417926Y-96621292D01*
X106284851Y-96571657D01*
X106171151Y-96486540D01*
X106086036Y-96372839D01*
X106036403Y-96239763D01*
X106025000Y-96133697D01*
X106025000Y-94575000D01*
X107093594Y-94575000D01*
X107850000Y-94575000D01*
X107850000Y-93818593D01*
X107672420Y-93901400D01*
X107478923Y-94036888D01*
X107478917Y-94036893D01*
X107311893Y-94203917D01*
X107311888Y-94203923D01*
X107176401Y-94397420D01*
X107176398Y-94397424D01*
X107093594Y-94575000D01*
X106025000Y-94575000D01*
X106025000Y-85550000D01*
X111604585Y-85550000D01*
X111624226Y-85887237D01*
X111682884Y-86219906D01*
X111682889Y-86219930D01*
X111779773Y-86543541D01*
X111913573Y-86853722D01*
X112082481Y-87146279D01*
X112135242Y-87217149D01*
X112135243Y-87217150D01*
X113081228Y-86271164D01*
X113141057Y-86388583D01*
X113289088Y-86592330D01*
X113467170Y-86770412D01*
X113670917Y-86918443D01*
X113788334Y-86978270D01*
X112842187Y-87924417D01*
X113057042Y-88065730D01*
X113358916Y-88217337D01*
X113358917Y-88217338D01*
X113676359Y-88332877D01*
X113676369Y-88332880D01*
X114005059Y-88410781D01*
X114274793Y-88442309D01*
X114412080Y-88478706D01*
X114533552Y-88552308D01*
X114629368Y-88657150D01*
X114691764Y-88784740D01*
X114715688Y-88924741D01*
X114699199Y-89065811D01*
X114675052Y-89135579D01*
X114579773Y-89356458D01*
X114482889Y-89680069D01*
X114482884Y-89680093D01*
X114424226Y-90012762D01*
X114404585Y-90350000D01*
X114424226Y-90687237D01*
X114482884Y-91019906D01*
X114482889Y-91019930D01*
X114579773Y-91343541D01*
X114713573Y-91653722D01*
X114882481Y-91946279D01*
X114935242Y-92017149D01*
X115881228Y-91071163D01*
X115941057Y-91188583D01*
X116089088Y-91392330D01*
X116267170Y-91570412D01*
X116470917Y-91718443D01*
X116588334Y-91778270D01*
X115642187Y-92724417D01*
X115857042Y-92865730D01*
X116158916Y-93017337D01*
X116158917Y-93017338D01*
X116476359Y-93132877D01*
X116476369Y-93132880D01*
X116805059Y-93210781D01*
X117140591Y-93250000D01*
X117478409Y-93250000D01*
X117813937Y-93210781D01*
X117813942Y-93210781D01*
X118142630Y-93132880D01*
X118142640Y-93132877D01*
X118460082Y-93017338D01*
X118460083Y-93017337D01*
X118761947Y-92865735D01*
X118761954Y-92865731D01*
X118976810Y-92724417D01*
X118030664Y-91778270D01*
X118148083Y-91718443D01*
X118351830Y-91570412D01*
X118529912Y-91392330D01*
X118677943Y-91188583D01*
X118737770Y-91071164D01*
X119683756Y-92017150D01*
X119736517Y-91946281D01*
X119905426Y-91653722D01*
X120039226Y-91343541D01*
X120136110Y-91019930D01*
X120136115Y-91019906D01*
X120194773Y-90687237D01*
X120210046Y-90425000D01*
X143444592Y-90425000D01*
X143464198Y-90686630D01*
X143464199Y-90686634D01*
X143522580Y-90942415D01*
X143522582Y-90942422D01*
X143618425Y-91186629D01*
X143618430Y-91186639D01*
X143618432Y-91186643D01*
X143749614Y-91413857D01*
X143874462Y-91570412D01*
X143913197Y-91618983D01*
X144105519Y-91797432D01*
X144157364Y-91832779D01*
X144322296Y-91945228D01*
X144558677Y-92059063D01*
X144809385Y-92136396D01*
X145068818Y-92175500D01*
X145068823Y-92175500D01*
X145331177Y-92175500D01*
X145331182Y-92175500D01*
X145590615Y-92136396D01*
X145841323Y-92059063D01*
X146077704Y-91945228D01*
X146294479Y-91797433D01*
X146486805Y-91618981D01*
X146650386Y-91413857D01*
X146781568Y-91186643D01*
X146781572Y-91186632D01*
X146781574Y-91186629D01*
X146847007Y-91019906D01*
X146877420Y-90942416D01*
X146935802Y-90686630D01*
X146955408Y-90425000D01*
X146935802Y-90163370D01*
X146877420Y-89907584D01*
X146810005Y-89735813D01*
X146781574Y-89663370D01*
X146781570Y-89663363D01*
X146781568Y-89663357D01*
X146650386Y-89436143D01*
X146486805Y-89231019D01*
X146426306Y-89174884D01*
X146294480Y-89052567D01*
X146077710Y-88904776D01*
X146077709Y-88904775D01*
X146077704Y-88904772D01*
X145925269Y-88831363D01*
X145841330Y-88790940D01*
X145841328Y-88790939D01*
X145841325Y-88790938D01*
X145841323Y-88790937D01*
X145590615Y-88713604D01*
X145590611Y-88713603D01*
X145590612Y-88713603D01*
X145481409Y-88697143D01*
X145331182Y-88674500D01*
X145068818Y-88674500D01*
X144918590Y-88697143D01*
X144809388Y-88713603D01*
X144809385Y-88713604D01*
X144578768Y-88784740D01*
X144558671Y-88790939D01*
X144558669Y-88790940D01*
X144322298Y-88904771D01*
X144322289Y-88904776D01*
X144105519Y-89052567D01*
X143913197Y-89231016D01*
X143749621Y-89436133D01*
X143749608Y-89436152D01*
X143618433Y-89663355D01*
X143618425Y-89663370D01*
X143522582Y-89907577D01*
X143522580Y-89907584D01*
X143464198Y-90163370D01*
X143444592Y-90425000D01*
X120210046Y-90425000D01*
X120214414Y-90350000D01*
X120194773Y-90012762D01*
X120136115Y-89680093D01*
X120136109Y-89680064D01*
X120107814Y-89585554D01*
X120086857Y-89445079D01*
X120106326Y-89304389D01*
X120164643Y-89174884D01*
X120257083Y-89067054D01*
X120376159Y-88989635D01*
X120512222Y-88948900D01*
X120531845Y-88946369D01*
X120860448Y-88910632D01*
X121220566Y-88831364D01*
X121570003Y-88713625D01*
X121904662Y-88558795D01*
X122220619Y-88368690D01*
X122514170Y-88145538D01*
X122781873Y-87891956D01*
X123020590Y-87610917D01*
X123227522Y-87305716D01*
X123400243Y-86979930D01*
X123536727Y-86637379D01*
X123635375Y-86282081D01*
X123695031Y-85918199D01*
X123714994Y-85550000D01*
X123695031Y-85181801D01*
X123635375Y-84817919D01*
X123635371Y-84817905D01*
X123635370Y-84817899D01*
X123579582Y-84616970D01*
X123579580Y-84616963D01*
X143449500Y-84616963D01*
X143449500Y-84616969D01*
X143449500Y-84616970D01*
X143449500Y-86233030D01*
X143460114Y-86352417D01*
X143516090Y-86548046D01*
X143516095Y-86548057D01*
X143610302Y-86728407D01*
X143610304Y-86728410D01*
X143738889Y-86886108D01*
X143738891Y-86886110D01*
X143896589Y-87014695D01*
X143896593Y-87014698D01*
X144076951Y-87108909D01*
X144272582Y-87164886D01*
X144391963Y-87175500D01*
X146008036Y-87175499D01*
X146127418Y-87164886D01*
X146323049Y-87108909D01*
X146503407Y-87014698D01*
X146661109Y-86886109D01*
X146789698Y-86728407D01*
X146883909Y-86548049D01*
X146939886Y-86352418D01*
X146950500Y-86233037D01*
X146950499Y-84616964D01*
X146939886Y-84497582D01*
X146883909Y-84301951D01*
X146789698Y-84121593D01*
X146788455Y-84120068D01*
X146661110Y-83963891D01*
X146661108Y-83963889D01*
X146503410Y-83835304D01*
X146503407Y-83835302D01*
X146323057Y-83741095D01*
X146323054Y-83741093D01*
X146323049Y-83741091D01*
X146127418Y-83685114D01*
X146008037Y-83674500D01*
X146008029Y-83674500D01*
X144391969Y-83674500D01*
X144272582Y-83685114D01*
X144076953Y-83741090D01*
X144076942Y-83741095D01*
X143896592Y-83835302D01*
X143896589Y-83835304D01*
X143738891Y-83963889D01*
X143738889Y-83963891D01*
X143610304Y-84121589D01*
X143610302Y-84121592D01*
X143516095Y-84301942D01*
X143516090Y-84301953D01*
X143470117Y-84462623D01*
X143460114Y-84497582D01*
X143449500Y-84616963D01*
X123579580Y-84616963D01*
X123536727Y-84462621D01*
X123400243Y-84120070D01*
X123259273Y-83854172D01*
X123227526Y-83794291D01*
X123227525Y-83794289D01*
X123020595Y-83489090D01*
X123020591Y-83489084D01*
X122992962Y-83456557D01*
X122781873Y-83208044D01*
X122781863Y-83208035D01*
X122781857Y-83208028D01*
X122514181Y-82954471D01*
X122514180Y-82954470D01*
X122514172Y-82954464D01*
X122514170Y-82954462D01*
X122220619Y-82731310D01*
X122085481Y-82650000D01*
X121904670Y-82541209D01*
X121904661Y-82541204D01*
X121570003Y-82386374D01*
X121220566Y-82268636D01*
X120860448Y-82189368D01*
X120493870Y-82149500D01*
X120125130Y-82149500D01*
X119758552Y-82189368D01*
X119758547Y-82189368D01*
X119758547Y-82189369D01*
X119398433Y-82268636D01*
X119048996Y-82386374D01*
X118714338Y-82541204D01*
X118714329Y-82541209D01*
X118398388Y-82731305D01*
X118398377Y-82731312D01*
X118104819Y-82954470D01*
X118104818Y-82954471D01*
X117837142Y-83208028D01*
X117837128Y-83208043D01*
X117598408Y-83489084D01*
X117598401Y-83489095D01*
X117472128Y-83675333D01*
X117376504Y-83780350D01*
X117255166Y-83854172D01*
X117117945Y-83890820D01*
X117022857Y-83892981D01*
X116883757Y-83882847D01*
X115937770Y-84828834D01*
X115877943Y-84711417D01*
X115729912Y-84507670D01*
X115551830Y-84329588D01*
X115348083Y-84181557D01*
X115230664Y-84121728D01*
X116176811Y-83175581D01*
X115961951Y-83034266D01*
X115660083Y-82882662D01*
X115660082Y-82882661D01*
X115342640Y-82767122D01*
X115342630Y-82767119D01*
X115013940Y-82689218D01*
X114678409Y-82650000D01*
X114340591Y-82650000D01*
X114005062Y-82689218D01*
X114005057Y-82689218D01*
X113676369Y-82767119D01*
X113676359Y-82767122D01*
X113358917Y-82882661D01*
X113358916Y-82882662D01*
X113057043Y-83034268D01*
X112842187Y-83175581D01*
X113788335Y-84121729D01*
X113670917Y-84181557D01*
X113467170Y-84329588D01*
X113289088Y-84507670D01*
X113141057Y-84711417D01*
X113081229Y-84828835D01*
X112135242Y-83882849D01*
X112082483Y-83953717D01*
X111913573Y-84246277D01*
X111779773Y-84556458D01*
X111682889Y-84880069D01*
X111682884Y-84880093D01*
X111624226Y-85212762D01*
X111604585Y-85550000D01*
X106025000Y-85550000D01*
X106025000Y-75979993D01*
X174549556Y-75979993D01*
X174549556Y-75980006D01*
X174569310Y-76294008D01*
X174569312Y-76294019D01*
X174628267Y-76603073D01*
X174628268Y-76603078D01*
X174725498Y-76902320D01*
X174725501Y-76902326D01*
X174859458Y-77186999D01*
X174859467Y-77187015D01*
X175028047Y-77452655D01*
X175028053Y-77452663D01*
X175228610Y-77695094D01*
X175457970Y-77910478D01*
X175712516Y-78095416D01*
X175988234Y-78246994D01*
X176280775Y-78362819D01*
X176585527Y-78441066D01*
X176897682Y-78480500D01*
X176897685Y-78480500D01*
X177212315Y-78480500D01*
X177212318Y-78480500D01*
X177524473Y-78441066D01*
X177829225Y-78362819D01*
X178121766Y-78246994D01*
X178397484Y-78095416D01*
X178652030Y-77910478D01*
X178881390Y-77695094D01*
X179081947Y-77452663D01*
X179250537Y-77187007D01*
X179384503Y-76902315D01*
X179481731Y-76603079D01*
X179540688Y-76294015D01*
X179540688Y-76294012D01*
X179540689Y-76294008D01*
X179560444Y-75980006D01*
X179560444Y-75979993D01*
X179540689Y-75665991D01*
X179540687Y-75665980D01*
X179481732Y-75356926D01*
X179481731Y-75356921D01*
X179384501Y-75057679D01*
X179384498Y-75057673D01*
X179250541Y-74773000D01*
X179250532Y-74772984D01*
X179081952Y-74507344D01*
X179081944Y-74507333D01*
X179017614Y-74429573D01*
X178881390Y-74264906D01*
X178652030Y-74049522D01*
X178397484Y-73864584D01*
X178397482Y-73864583D01*
X178397481Y-73864582D01*
X178397475Y-73864579D01*
X178121762Y-73713004D01*
X177829225Y-73597181D01*
X177829221Y-73597180D01*
X177524473Y-73518934D01*
X177524470Y-73518933D01*
X177524468Y-73518933D01*
X177212330Y-73479501D01*
X177212321Y-73479500D01*
X177212318Y-73479500D01*
X176897682Y-73479500D01*
X176897679Y-73479500D01*
X176897669Y-73479501D01*
X176585531Y-73518933D01*
X176280778Y-73597180D01*
X176280774Y-73597181D01*
X175988237Y-73713004D01*
X175712524Y-73864579D01*
X175712518Y-73864582D01*
X175457966Y-74049525D01*
X175228608Y-74264908D01*
X175028055Y-74507333D01*
X175028047Y-74507344D01*
X174859467Y-74772984D01*
X174859458Y-74773000D01*
X174725501Y-75057673D01*
X174725498Y-75057679D01*
X174628268Y-75356921D01*
X174628267Y-75356926D01*
X174569312Y-75665980D01*
X174569310Y-75665991D01*
X174549556Y-75979993D01*
X106025000Y-75979993D01*
X106025000Y-70900000D01*
X170246667Y-70900000D01*
X170265971Y-71157595D01*
X170265972Y-71157599D01*
X170323453Y-71409438D01*
X170323453Y-71409440D01*
X170417823Y-71649891D01*
X170417826Y-71649897D01*
X170546983Y-71873604D01*
X170546984Y-71873605D01*
X170708042Y-72075565D01*
X170897402Y-72251265D01*
X171110834Y-72396780D01*
X171110838Y-72396782D01*
X171110837Y-72396782D01*
X171223463Y-72451020D01*
X171343569Y-72508860D01*
X171590410Y-72585000D01*
X171845842Y-72623500D01*
X171845846Y-72623500D01*
X172104154Y-72623500D01*
X172104158Y-72623500D01*
X172359590Y-72585000D01*
X172483010Y-72546930D01*
X172606429Y-72508861D01*
X172622971Y-72500894D01*
X172839167Y-72396780D01*
X173052598Y-72251265D01*
X173241958Y-72075565D01*
X173403016Y-71873605D01*
X173532174Y-71649896D01*
X173626548Y-71409435D01*
X173684029Y-71157595D01*
X173703333Y-70900000D01*
X173684029Y-70642405D01*
X173626548Y-70390565D01*
X173532174Y-70150104D01*
X173403016Y-69926395D01*
X173403015Y-69926393D01*
X173403012Y-69926390D01*
X173248045Y-69732067D01*
X173176195Y-69609551D01*
X173141773Y-69471755D01*
X173147566Y-69329843D01*
X173170641Y-69246563D01*
X173191597Y-69190375D01*
X173198000Y-69130824D01*
X173198000Y-68860000D01*
X170752000Y-68860000D01*
X170752000Y-69130824D01*
X170758402Y-69190376D01*
X170779360Y-69246568D01*
X170809549Y-69385353D01*
X170799415Y-69527021D01*
X170749779Y-69660096D01*
X170701955Y-69732066D01*
X170546986Y-69926391D01*
X170546984Y-69926393D01*
X170417826Y-70150102D01*
X170417823Y-70150108D01*
X170323453Y-70390559D01*
X170323453Y-70390561D01*
X170323452Y-70390564D01*
X170323452Y-70390565D01*
X170265971Y-70642405D01*
X170246667Y-70900000D01*
X106025000Y-70900000D01*
X106025000Y-68301415D01*
X171530000Y-68301415D01*
X171530000Y-68418585D01*
X171560326Y-68531764D01*
X171618911Y-68633236D01*
X171701764Y-68716089D01*
X171803236Y-68774674D01*
X171916415Y-68805000D01*
X172033585Y-68805000D01*
X172146764Y-68774674D01*
X172248236Y-68716089D01*
X172331089Y-68633236D01*
X172389674Y-68531764D01*
X172420000Y-68418585D01*
X172420000Y-68301415D01*
X172389674Y-68188236D01*
X172331089Y-68086764D01*
X172248236Y-68003911D01*
X172146764Y-67945326D01*
X172033585Y-67915000D01*
X171916415Y-67915000D01*
X171803236Y-67945326D01*
X171701764Y-68003911D01*
X171618911Y-68086764D01*
X171560326Y-68188236D01*
X171530000Y-68301415D01*
X106025000Y-68301415D01*
X106025000Y-67589175D01*
X170752000Y-67589175D01*
X170752000Y-67860000D01*
X171475000Y-67860000D01*
X172475000Y-67860000D01*
X173198000Y-67860000D01*
X173198000Y-67589175D01*
X173191597Y-67529625D01*
X173141352Y-67394910D01*
X173141351Y-67394909D01*
X173055188Y-67279811D01*
X172940090Y-67193648D01*
X172940089Y-67193647D01*
X172805374Y-67143402D01*
X172745825Y-67137000D01*
X172475000Y-67137000D01*
X172475000Y-67860000D01*
X171475000Y-67860000D01*
X171475000Y-67137000D01*
X171204175Y-67137000D01*
X171144625Y-67143402D01*
X171009910Y-67193647D01*
X171009909Y-67193648D01*
X170894811Y-67279811D01*
X170808648Y-67394909D01*
X170808647Y-67394910D01*
X170758402Y-67529625D01*
X170752000Y-67589175D01*
X106025000Y-67589175D01*
X106025000Y-65819993D01*
X174549556Y-65819993D01*
X174549556Y-65820006D01*
X174569310Y-66134008D01*
X174569312Y-66134019D01*
X174628267Y-66443073D01*
X174628268Y-66443078D01*
X174725498Y-66742320D01*
X174725501Y-66742326D01*
X174859458Y-67026999D01*
X174859467Y-67027015D01*
X175028047Y-67292655D01*
X175028055Y-67292666D01*
X175112639Y-67394910D01*
X175228610Y-67535094D01*
X175457970Y-67750478D01*
X175712516Y-67935416D01*
X175988234Y-68086994D01*
X176280775Y-68202819D01*
X176585527Y-68281066D01*
X176897682Y-68320500D01*
X176897685Y-68320500D01*
X177212315Y-68320500D01*
X177212318Y-68320500D01*
X177524473Y-68281066D01*
X177829225Y-68202819D01*
X178121766Y-68086994D01*
X178397484Y-67935416D01*
X178652030Y-67750478D01*
X178881390Y-67535094D01*
X179081947Y-67292663D01*
X179176671Y-67143402D01*
X179250532Y-67027015D01*
X179250532Y-67027013D01*
X179250537Y-67027007D01*
X179384503Y-66742315D01*
X179481731Y-66443079D01*
X179540688Y-66134015D01*
X179540688Y-66134012D01*
X179540689Y-66134008D01*
X179560444Y-65820006D01*
X179560444Y-65819993D01*
X179540689Y-65505991D01*
X179540687Y-65505980D01*
X179481732Y-65196926D01*
X179481731Y-65196921D01*
X179384501Y-64897679D01*
X179384498Y-64897673D01*
X179250541Y-64613000D01*
X179250532Y-64612984D01*
X179081952Y-64347344D01*
X179081944Y-64347333D01*
X179017614Y-64269573D01*
X178881390Y-64104906D01*
X178652030Y-63889522D01*
X178397484Y-63704584D01*
X178397482Y-63704583D01*
X178397481Y-63704582D01*
X178397475Y-63704579D01*
X178121762Y-63553004D01*
X177829225Y-63437181D01*
X177829221Y-63437180D01*
X177524473Y-63358934D01*
X177524470Y-63358933D01*
X177524468Y-63358933D01*
X177212330Y-63319501D01*
X177212321Y-63319500D01*
X177212318Y-63319500D01*
X176897682Y-63319500D01*
X176897679Y-63319500D01*
X176897669Y-63319501D01*
X176585531Y-63358933D01*
X176280778Y-63437180D01*
X176280774Y-63437181D01*
X175988237Y-63553004D01*
X175712524Y-63704579D01*
X175712518Y-63704582D01*
X175457966Y-63889525D01*
X175228608Y-64104908D01*
X175028055Y-64347333D01*
X175028047Y-64347344D01*
X174859467Y-64612984D01*
X174859458Y-64613000D01*
X174725501Y-64897673D01*
X174725498Y-64897679D01*
X174628268Y-65196921D01*
X174628267Y-65196926D01*
X174569312Y-65505980D01*
X174569310Y-65505991D01*
X174549556Y-65819993D01*
X106025000Y-65819993D01*
X106025000Y-57474000D01*
X106045213Y-57333415D01*
X106104214Y-57204220D01*
X106197224Y-57096881D01*
X106316708Y-57020094D01*
X106452985Y-56980079D01*
X106524000Y-56975000D01*
X184901000Y-56975000D01*
X185041585Y-56995213D01*
G37*
%TD.AperFunction*%
%TD*%
M02*
