%TF.GenerationSoftware,KiCad,Pcbnew,8.0.3-8.0.3-0~ubuntu23.10.1*%
%TF.CreationDate,2024-11-23T00:09:23-05:00*%
%TF.ProjectId,28mhz_class_e_amplifier_for_pi,32386d68-7a5f-4636-9c61-73735f655f61,alpha*%
%TF.SameCoordinates,Original*%
%TF.FileFunction,Soldermask,Bot*%
%TF.FilePolarity,Negative*%
%FSLAX46Y46*%
G04 Gerber Fmt 4.6, Leading zero omitted, Abs format (unit mm)*
G04 Created by KiCad (PCBNEW 8.0.3-8.0.3-0~ubuntu23.10.1) date 2024-11-23 00:09:23*
%MOMM*%
%LPD*%
G01*
G04 APERTURE LIST*
%ADD10R,1.446000X1.446000*%
%ADD11C,1.446000*%
%ADD12C,3.000000*%
%ADD13R,1.700000X1.700000*%
%ADD14O,1.700000X1.700000*%
%ADD15O,1.905000X2.000000*%
%ADD16R,1.905000X2.000000*%
%ADD17C,4.800000*%
%ADD18R,1.500000X1.500000*%
%ADD19C,1.500000*%
%ADD20C,0.600000*%
G04 APERTURE END LIST*
D10*
%TO.C,J1*%
X171975000Y-68360000D03*
D11*
X171975000Y-70900000D03*
D12*
X177055000Y-65820000D03*
X177055000Y-75980000D03*
%TD*%
D13*
%TO.C,J3*%
X108350000Y-100155000D03*
D14*
X108350000Y-97615000D03*
X108350000Y-95075000D03*
%TD*%
D15*
%TO.C,RD16HHF1*%
X153640000Y-100425000D03*
D16*
X151100000Y-100425000D03*
D15*
X156180000Y-100425000D03*
%TD*%
D17*
%TO.C,J2*%
X120309500Y-85550000D03*
X114509500Y-85550000D03*
X117309500Y-90350000D03*
%TD*%
D16*
%TO.C,LM7805*%
X134240000Y-97655000D03*
D15*
X131700000Y-97655000D03*
X129160000Y-97655000D03*
%TD*%
D18*
%TO.C,L1*%
X145200000Y-85425000D03*
D19*
X145200000Y-90425000D03*
%TD*%
X138450000Y-72875000D03*
D20*
X130650000Y-72875000D03*
X163500000Y-73250000D03*
X127700000Y-83250000D03*
X131050000Y-73400000D03*
X129900000Y-101950000D03*
X163100000Y-72725000D03*
X128225000Y-82850000D03*
X162000000Y-100150000D03*
X131450000Y-72875000D03*
X151500000Y-73300000D03*
X134750000Y-102350000D03*
X151900000Y-72775000D03*
X151100000Y-72775000D03*
X126500000Y-91350000D03*
X130425000Y-102350000D03*
X134225000Y-102750000D03*
X163900000Y-72725000D03*
X134225000Y-101950000D03*
X162000000Y-100950000D03*
X127700000Y-82450000D03*
X162525000Y-100550000D03*
X129900000Y-102750000D03*
X127375000Y-91350000D03*
M02*
