%TF.GenerationSoftware,KiCad,Pcbnew,8.0.3-8.0.3-0~ubuntu23.10.1*%
%TF.CreationDate,2024-11-22T11:34:00-05:00*%
%TF.ProjectId,28mhz_class_e_amplifier_for_pi,32386d68-7a5f-4636-9c61-73735f655f61,alpha*%
%TF.SameCoordinates,Original*%
%TF.FileFunction,Copper,L1,Top*%
%TF.FilePolarity,Positive*%
%FSLAX46Y46*%
G04 Gerber Fmt 4.6, Leading zero omitted, Abs format (unit mm)*
G04 Created by KiCad (PCBNEW 8.0.3-8.0.3-0~ubuntu23.10.1) date 2024-11-22 11:34:00*
%MOMM*%
%LPD*%
G01*
G04 APERTURE LIST*
G04 Aperture macros list*
%AMRoundRect*
0 Rectangle with rounded corners*
0 $1 Rounding radius*
0 $2 $3 $4 $5 $6 $7 $8 $9 X,Y pos of 4 corners*
0 Add a 4 corners polygon primitive as box body*
4,1,4,$2,$3,$4,$5,$6,$7,$8,$9,$2,$3,0*
0 Add four circle primitives for the rounded corners*
1,1,$1+$1,$2,$3*
1,1,$1+$1,$4,$5*
1,1,$1+$1,$6,$7*
1,1,$1+$1,$8,$9*
0 Add four rect primitives between the rounded corners*
20,1,$1+$1,$2,$3,$4,$5,0*
20,1,$1+$1,$4,$5,$6,$7,0*
20,1,$1+$1,$6,$7,$8,$9,0*
20,1,$1+$1,$8,$9,$2,$3,0*%
G04 Aperture macros list end*
%TA.AperFunction,SMDPad,CuDef*%
%ADD10RoundRect,0.249999X-0.450001X-1.425001X0.450001X-1.425001X0.450001X1.425001X-0.450001X1.425001X0*%
%TD*%
%TA.AperFunction,SMDPad,CuDef*%
%ADD11RoundRect,0.250000X-0.337500X-0.475000X0.337500X-0.475000X0.337500X0.475000X-0.337500X0.475000X0*%
%TD*%
%TA.AperFunction,ComponentPad*%
%ADD12O,1.700000X1.700000*%
%TD*%
%TA.AperFunction,ComponentPad*%
%ADD13R,1.700000X1.700000*%
%TD*%
%TA.AperFunction,SMDPad,CuDef*%
%ADD14RoundRect,0.250000X0.337500X0.475000X-0.337500X0.475000X-0.337500X-0.475000X0.337500X-0.475000X0*%
%TD*%
%TA.AperFunction,SMDPad,CuDef*%
%ADD15R,2.290000X8.260000*%
%TD*%
%TA.AperFunction,SMDPad,CuDef*%
%ADD16RoundRect,0.250000X-0.475000X0.337500X-0.475000X-0.337500X0.475000X-0.337500X0.475000X0.337500X0*%
%TD*%
%TA.AperFunction,SMDPad,CuDef*%
%ADD17RoundRect,0.249999X0.450001X1.425001X-0.450001X1.425001X-0.450001X-1.425001X0.450001X-1.425001X0*%
%TD*%
%TA.AperFunction,ComponentPad*%
%ADD18O,1.905000X2.000000*%
%TD*%
%TA.AperFunction,ComponentPad*%
%ADD19R,1.905000X2.000000*%
%TD*%
%TA.AperFunction,ComponentPad*%
%ADD20C,4.800000*%
%TD*%
%TA.AperFunction,ComponentPad*%
%ADD21R,1.446000X1.446000*%
%TD*%
%TA.AperFunction,ComponentPad*%
%ADD22C,1.446000*%
%TD*%
%TA.AperFunction,ComponentPad*%
%ADD23C,3.000000*%
%TD*%
%TA.AperFunction,SMDPad,CuDef*%
%ADD24R,1.526000X0.650000*%
%TD*%
%TA.AperFunction,SMDPad,CuDef*%
%ADD25RoundRect,0.249999X1.425001X-0.450001X1.425001X0.450001X-1.425001X0.450001X-1.425001X-0.450001X0*%
%TD*%
%TA.AperFunction,SMDPad,CuDef*%
%ADD26RoundRect,0.237500X-0.237500X0.300000X-0.237500X-0.300000X0.237500X-0.300000X0.237500X0.300000X0*%
%TD*%
%TA.AperFunction,SMDPad,CuDef*%
%ADD27RoundRect,0.250000X-0.275000X-0.350000X0.275000X-0.350000X0.275000X0.350000X-0.275000X0.350000X0*%
%TD*%
%TA.AperFunction,SMDPad,CuDef*%
%ADD28R,6.730000X2.160000*%
%TD*%
%TA.AperFunction,ComponentPad*%
%ADD29R,1.500000X1.500000*%
%TD*%
%TA.AperFunction,ComponentPad*%
%ADD30C,1.500000*%
%TD*%
%TA.AperFunction,SMDPad,CuDef*%
%ADD31RoundRect,0.250000X0.400000X0.625000X-0.400000X0.625000X-0.400000X-0.625000X0.400000X-0.625000X0*%
%TD*%
%TA.AperFunction,ViaPad*%
%ADD32C,1.500000*%
%TD*%
%TA.AperFunction,ViaPad*%
%ADD33C,0.600000*%
%TD*%
%TA.AperFunction,Conductor*%
%ADD34C,1.250000*%
%TD*%
%TA.AperFunction,Conductor*%
%ADD35C,0.200000*%
%TD*%
%TA.AperFunction,Conductor*%
%ADD36C,0.750000*%
%TD*%
%TA.AperFunction,Conductor*%
%ADD37C,1.000000*%
%TD*%
%TA.AperFunction,Conductor*%
%ADD38C,0.250000*%
%TD*%
G04 APERTURE END LIST*
D10*
%TO.P,R0,1*%
%TO.N,Net-(U1-OUT)*%
X140400000Y-100450000D03*
%TO.P,R0,2*%
%TO.N,Net-(M1-G)*%
X146500000Y-100450000D03*
%TD*%
D11*
%TO.P,CS1,1*%
%TO.N,Net-(CL1-Pad2)*%
X145062500Y-79000000D03*
%TO.P,CS1,2*%
%TO.N,Net-(CS1-Pad2)*%
X147137500Y-79000000D03*
%TD*%
D12*
%TO.P,J3,3,Pin_3*%
%TO.N,0*%
X108350000Y-95075000D03*
%TO.P,J3,2,Pin_2*%
%TO.N,Net-(J3-Pin_2)*%
X108350000Y-97615000D03*
D13*
%TO.P,J3,1,Pin_1*%
%TO.N,Net-(J3-Pin_1)*%
X108350000Y-100155000D03*
%TD*%
D14*
%TO.P,C4,1*%
%TO.N,Net-(J2-POWER)*%
X136562500Y-102350000D03*
%TO.P,C4,2*%
%TO.N,0*%
X134487500Y-102350000D03*
%TD*%
D15*
%TO.P,LF1,1*%
%TO.N,Net-(CF2-Pad1)*%
X138280000Y-62500000D03*
%TO.P,LF1,2*%
%TO.N,Net-(CF1-Pad1)*%
X126720000Y-62500000D03*
%TD*%
D14*
%TO.P,C1,1*%
%TO.N,Net-(M1-D)*%
X164337500Y-100550000D03*
%TO.P,C1,2*%
%TO.N,0*%
X162262500Y-100550000D03*
%TD*%
D15*
%TO.P,L2_b1,1*%
%TO.N,Net-(L2_a1-Pad1)*%
X154145000Y-88300000D03*
%TO.P,L2_b1,2*%
%TO.N,Net-(C2-Pad1)*%
X167355000Y-88300000D03*
%TD*%
D16*
%TO.P,CL1,1*%
%TO.N,Net-(CL1-Pad1)*%
X131075000Y-76812500D03*
%TO.P,CL1,2*%
%TO.N,Net-(CL1-Pad2)*%
X131075000Y-78887500D03*
%TD*%
D17*
%TO.P,R1,1*%
%TO.N,Net-(L2_a1-Pad1)*%
X157350000Y-79000000D03*
%TO.P,R1,2*%
%TO.N,Net-(CS1-Pad2)*%
X151250000Y-79000000D03*
%TD*%
D16*
%TO.P,CF1,1*%
%TO.N,Net-(CF1-Pad1)*%
X131050000Y-71062500D03*
%TO.P,CF1,2*%
%TO.N,0*%
X131050000Y-73137500D03*
%TD*%
D18*
%TO.P,RD16HHF1,1,D*%
%TO.N,0*%
X153640000Y-100425000D03*
D19*
%TO.P,RD16HHF1,2,G*%
%TO.N,Net-(M1-G)*%
X151100000Y-100425000D03*
D18*
%TO.P,RD16HHF1,3,S*%
%TO.N,Net-(M1-D)*%
X156180000Y-100425000D03*
%TD*%
D20*
%TO.P,J2,1,POWER*%
%TO.N,Net-(J2-POWER)*%
X120309500Y-85550000D03*
%TO.P,J2,2,GND_1*%
%TO.N,0*%
X114509500Y-85550000D03*
%TO.P,J2,3,GND_2*%
X117309500Y-90350000D03*
%TD*%
D11*
%TO.P,C3,1*%
%TO.N,Net-(J3-Pin_1)*%
X128087500Y-102350000D03*
%TO.P,C3,2*%
%TO.N,0*%
X130162500Y-102350000D03*
%TD*%
D21*
%TO.P,J1,1,In*%
%TO.N,Net-(J1-In)*%
X172000000Y-70500000D03*
D22*
%TO.P,J1,2,Ext*%
%TO.N,0*%
X172000000Y-73040000D03*
D23*
%TO.P,J1,MH1*%
%TO.N,N/C*%
X177080000Y-67960000D03*
%TO.P,J1,MH2*%
X177080000Y-78120000D03*
%TD*%
D16*
%TO.P,CF2,1*%
%TO.N,Net-(CF2-Pad1)*%
X151500000Y-70962500D03*
%TO.P,CF2,2*%
%TO.N,0*%
X151500000Y-73037500D03*
%TD*%
%TO.P,CF3,1*%
%TO.N,Net-(J1-In)*%
X163500000Y-70912500D03*
%TO.P,CF3,2*%
%TO.N,0*%
X163500000Y-72987500D03*
%TD*%
D24*
%TO.P,U1,1,IN+*%
%TO.N,N/C*%
X126938000Y-87545000D03*
%TO.P,U1,2,IN-*%
%TO.N,Net-(U1-IN-)*%
X126938000Y-88815000D03*
%TO.P,U1,3,OUT*%
%TO.N,Net-(J3-Pin_2)*%
X126938000Y-90085000D03*
%TO.P,U1,4,VCC*%
%TO.N,0*%
X126938000Y-91355000D03*
%TO.P,U1,5,VEE*%
%TO.N,N/C*%
X132362000Y-91355000D03*
%TO.P,U1,6*%
%TO.N,Net-(U1-OUT)*%
X132362000Y-90085000D03*
%TO.P,U1,7*%
%TO.N,Net-(J2-POWER)*%
X132362000Y-88815000D03*
%TO.P,U1,8*%
%TO.N,N/C*%
X132362000Y-87545000D03*
%TD*%
D25*
%TO.P,R2,1*%
%TO.N,Net-(CL1-Pad1)*%
X126700000Y-77200000D03*
%TO.P,R2,2*%
%TO.N,Net-(CF1-Pad1)*%
X126700000Y-71100000D03*
%TD*%
D26*
%TO.P,C2,1*%
%TO.N,Net-(C2-Pad1)*%
X167400000Y-100587500D03*
%TO.P,C2,2*%
%TO.N,Net-(M1-D)*%
X167400000Y-102312500D03*
%TD*%
D19*
%TO.P,LM7805,1,VI*%
%TO.N,Net-(J2-POWER)*%
X134240000Y-97655000D03*
D18*
%TO.P,LM7805,2,GND*%
%TO.N,0*%
X131700000Y-97655000D03*
%TO.P,LM7805,3,VO*%
%TO.N,Net-(J3-Pin_1)*%
X129160000Y-97655000D03*
%TD*%
D27*
%TO.P,L2_a1,1*%
%TO.N,Net-(L2_a1-Pad1)*%
X160900000Y-79050000D03*
%TO.P,L2_a1,2*%
%TO.N,Net-(C2-Pad1)*%
X163200000Y-79050000D03*
%TD*%
D28*
%TO.P,LI1,1*%
%TO.N,Net-(CL1-Pad2)*%
X138450000Y-79060000D03*
%TO.P,LI1,2*%
%TO.N,0*%
X138450000Y-72840000D03*
%TD*%
D29*
%TO.P,L1,1*%
%TO.N,Net-(J2-POWER)*%
X145200000Y-85425000D03*
D30*
%TO.P,L1,2*%
%TO.N,Net-(M1-D)*%
X145200000Y-90425000D03*
%TD*%
D31*
%TO.P,RI1,1*%
%TO.N,Net-(U1-IN-)*%
X131050000Y-82850000D03*
%TO.P,RI1,2*%
%TO.N,0*%
X127950000Y-82850000D03*
%TD*%
D15*
%TO.P,LF2,1*%
%TO.N,Net-(J1-In)*%
X163280000Y-62500000D03*
%TO.P,LF2,2*%
%TO.N,Net-(CF2-Pad1)*%
X151720000Y-62500000D03*
%TD*%
D31*
%TO.P,RF1,1*%
%TO.N,Net-(U1-OUT)*%
X131150000Y-94350000D03*
%TO.P,RF1,2*%
%TO.N,Net-(U1-IN-)*%
X128050000Y-94350000D03*
%TD*%
D32*
%TO.N,0*%
X138450000Y-72875000D03*
D33*
X130650000Y-72875000D03*
X163500000Y-73250000D03*
X127700000Y-83250000D03*
X131050000Y-73400000D03*
X129900000Y-101950000D03*
X163100000Y-72725000D03*
X128225000Y-82850000D03*
X162000000Y-100150000D03*
X131450000Y-72875000D03*
X151500000Y-73300000D03*
X134750000Y-102350000D03*
X151900000Y-72775000D03*
X151100000Y-72775000D03*
X126500000Y-91350000D03*
X130425000Y-102350000D03*
X134225000Y-102750000D03*
X163900000Y-72725000D03*
X134225000Y-101950000D03*
X162000000Y-100950000D03*
X127700000Y-82450000D03*
X162525000Y-100550000D03*
X129900000Y-102750000D03*
X127375000Y-91350000D03*
%TD*%
D34*
%TO.N,Net-(M1-D)*%
X164337500Y-100550000D02*
X166100000Y-102312500D01*
X163512500Y-99000000D02*
X164337500Y-99825000D01*
X164337500Y-99825000D02*
X164337500Y-100550000D01*
X156180000Y-100425000D02*
X156180000Y-100377500D01*
X156180000Y-100377500D02*
X146227500Y-90425000D01*
X146227500Y-90425000D02*
X145200000Y-90425000D01*
X163512500Y-99000000D02*
X157605000Y-99000000D01*
X157605000Y-99000000D02*
X156180000Y-100425000D01*
D35*
%TO.N,0*%
X163525000Y-72925000D02*
X163500000Y-72900000D01*
X117309500Y-88350000D02*
X117309500Y-90350000D01*
X163575000Y-72925000D02*
X163525000Y-72925000D01*
%TO.N,Net-(U1-IN-)*%
X127376000Y-88815000D02*
X131050000Y-85141000D01*
X128050000Y-89489000D02*
X128050000Y-94350000D01*
X131050000Y-82850000D02*
X130975000Y-82850000D01*
X126938000Y-88815000D02*
X127376000Y-88815000D01*
X130975000Y-82850000D02*
X130950000Y-82825000D01*
X131050000Y-85141000D02*
X131050000Y-82850000D01*
X127376000Y-88815000D02*
X128050000Y-89489000D01*
%TO.N,Net-(U1-OUT)*%
X131150000Y-90859000D02*
X131150000Y-94350000D01*
X138400000Y-94350000D02*
X140400000Y-96350000D01*
X132362000Y-90085000D02*
X131924000Y-90085000D01*
X131150000Y-94350000D02*
X138400000Y-94350000D01*
X140400000Y-96350000D02*
X140400000Y-100450000D01*
X131924000Y-90085000D02*
X131150000Y-90859000D01*
%TO.N,Net-(C2-Pad1)*%
X167400000Y-96575000D02*
X167450000Y-96575000D01*
X167450000Y-96575000D02*
X167450000Y-95925000D01*
D34*
X167355000Y-83292500D02*
X163112500Y-79050000D01*
X167355000Y-83292500D02*
X167355000Y-88300000D01*
X167400000Y-88345000D02*
X167400000Y-100587500D01*
D35*
X167400000Y-88345000D02*
X167355000Y-88300000D01*
D36*
%TO.N,Net-(J3-Pin_1)*%
X126660000Y-100155000D02*
X128087500Y-101582500D01*
X128087500Y-101582500D02*
X128087500Y-102350000D01*
X126660000Y-100155000D02*
X108350000Y-100155000D01*
X129160000Y-97655000D02*
X126660000Y-100155000D01*
D35*
%TO.N,Net-(CF1-Pad1)*%
X126720000Y-71167500D02*
X126700000Y-71187500D01*
X126737500Y-71150000D02*
X126700000Y-71187500D01*
X126737500Y-71062500D02*
X126720000Y-71045000D01*
D34*
X126720000Y-71045000D02*
X126720000Y-62500000D01*
D35*
X126737500Y-71062500D02*
X126700000Y-71100000D01*
D34*
X131050000Y-71062500D02*
X126737500Y-71062500D01*
%TO.N,Net-(CF2-Pad1)*%
X151500000Y-70962500D02*
X151500000Y-62720000D01*
D35*
X151720000Y-70830000D02*
X151500000Y-71050000D01*
X151500000Y-62720000D02*
X151720000Y-62500000D01*
D34*
X138280000Y-62500000D02*
X151720000Y-62500000D01*
D35*
%TO.N,Net-(CL1-Pad1)*%
X130862500Y-77112500D02*
X131050000Y-77300000D01*
D34*
X129512500Y-76812500D02*
X131075000Y-76812500D01*
X129125000Y-77200000D02*
X126700000Y-77200000D01*
D35*
X127087500Y-76812500D02*
X126700000Y-77200000D01*
D34*
X129512500Y-76812500D02*
X129125000Y-77200000D01*
D35*
%TO.N,Net-(J1-In)*%
X163500000Y-62720000D02*
X163280000Y-62500000D01*
X163280000Y-70780000D02*
X163500000Y-71000000D01*
X163912500Y-70500000D02*
X163500000Y-70912500D01*
X164000000Y-70500000D02*
X163500000Y-71000000D01*
D34*
X163500000Y-70912500D02*
X163500000Y-62720000D01*
X172000000Y-70500000D02*
X163912500Y-70500000D01*
D35*
%TO.N,Net-(CL1-Pad2)*%
X138310000Y-79200000D02*
X138450000Y-79060000D01*
X138277500Y-78887500D02*
X138450000Y-79060000D01*
X138510000Y-79000000D02*
X138450000Y-79060000D01*
D34*
X145001250Y-79000000D02*
X138448750Y-79000000D01*
X131075000Y-78887500D02*
X138277500Y-78887500D01*
%TO.N,Net-(CS1-Pad2)*%
X151331250Y-79000000D02*
X147218750Y-79000000D01*
D35*
%TO.N,Net-(J2-POWER)*%
X132030000Y-88815000D02*
X132362000Y-88815000D01*
D37*
X136000430Y-85425000D02*
X136000430Y-86099570D01*
X120309500Y-85550000D02*
X125419500Y-80440000D01*
D35*
X132800000Y-88815000D02*
X132362000Y-88815000D01*
D37*
X133285000Y-88815000D02*
X132362000Y-88815000D01*
X125419500Y-80440000D02*
X131015430Y-80440000D01*
D35*
X131944000Y-88815000D02*
X132362000Y-88815000D01*
D38*
X130050000Y-95095100D02*
X131284900Y-96330000D01*
D37*
X136000430Y-86099570D02*
X133285000Y-88815000D01*
X136000430Y-85425000D02*
X145200000Y-85425000D01*
D38*
X130050000Y-90795000D02*
X132030000Y-88815000D01*
D37*
X131015430Y-80440000D02*
X136000430Y-85425000D01*
D38*
X130050000Y-90795000D02*
X130050000Y-95095100D01*
X131284900Y-96330000D02*
X132915000Y-96330000D01*
D34*
X136562500Y-99977500D02*
X134240000Y-97655000D01*
X136562500Y-99977500D02*
X136562500Y-102350000D01*
D38*
X132915000Y-96330000D02*
X134240000Y-97655000D01*
D35*
%TO.N,Net-(J3-Pin_2)*%
X126938000Y-90085000D02*
X126500000Y-90085000D01*
X126500000Y-90085000D02*
X118970000Y-97615000D01*
X126810000Y-90085000D02*
X126800000Y-90075000D01*
X118970000Y-97615000D02*
X108350000Y-97615000D01*
D34*
%TO.N,Net-(L2_a1-Pad1)*%
X157675000Y-79050000D02*
X160775000Y-79050000D01*
X154145000Y-82205000D02*
X154145000Y-88300000D01*
D35*
X157350000Y-79000000D02*
X157750000Y-79000000D01*
X157400000Y-79050000D02*
X157350000Y-79000000D01*
X157312500Y-79050000D02*
X157262500Y-79000000D01*
X157750000Y-79000000D02*
X157800000Y-79050000D01*
D34*
X154145000Y-82205000D02*
X157350000Y-79000000D01*
D35*
%TO.N,Net-(M1-G)*%
X151100000Y-100425000D02*
X146437500Y-100425000D01*
D34*
%TO.N,Net-(M1-D)*%
X166100000Y-102312500D02*
X167400000Y-102312500D01*
%TD*%
M02*
