%TF.GenerationSoftware,KiCad,Pcbnew,8.0.3-8.0.3-0~ubuntu23.10.1*%
%TF.CreationDate,2024-11-23T00:09:27-05:00*%
%TF.ProjectId,28mhz_class_e_amplifier_for_pi,32386d68-7a5f-4636-9c61-73735f655f61,alpha*%
%TF.SameCoordinates,Original*%
%TF.FileFunction,Drillmap*%
%TF.FilePolarity,Positive*%
%FSLAX45Y45*%
G04 Gerber Fmt 4.5, Leading zero omitted, Abs format (unit mm)*
G04 Created by KiCad (PCBNEW 8.0.3-8.0.3-0~ubuntu23.10.1) date 2024-11-23 00:09:27*
%MOMM*%
%LPD*%
G01*
G04 APERTURE LIST*
%ADD10C,0.050000*%
%ADD11C,0.200000*%
G04 APERTURE END LIST*
D10*
X10492500Y-5580000D02*
X18637500Y-5580000D01*
X18637500Y-10495000D01*
X10492500Y-10495000D01*
X10492500Y-5580000D01*
D11*
X10750777Y-10808984D02*
X10750777Y-10608984D01*
X10750777Y-10608984D02*
X10798396Y-10608984D01*
X10798396Y-10608984D02*
X10826967Y-10618508D01*
X10826967Y-10618508D02*
X10846015Y-10637555D01*
X10846015Y-10637555D02*
X10855539Y-10656603D01*
X10855539Y-10656603D02*
X10865063Y-10694698D01*
X10865063Y-10694698D02*
X10865063Y-10723270D01*
X10865063Y-10723270D02*
X10855539Y-10761365D01*
X10855539Y-10761365D02*
X10846015Y-10780412D01*
X10846015Y-10780412D02*
X10826967Y-10799460D01*
X10826967Y-10799460D02*
X10798396Y-10808984D01*
X10798396Y-10808984D02*
X10750777Y-10808984D01*
X10950777Y-10808984D02*
X10950777Y-10675650D01*
X10950777Y-10713746D02*
X10960301Y-10694698D01*
X10960301Y-10694698D02*
X10969824Y-10685174D01*
X10969824Y-10685174D02*
X10988872Y-10675650D01*
X10988872Y-10675650D02*
X11007920Y-10675650D01*
X11074586Y-10808984D02*
X11074586Y-10675650D01*
X11074586Y-10608984D02*
X11065063Y-10618508D01*
X11065063Y-10618508D02*
X11074586Y-10628031D01*
X11074586Y-10628031D02*
X11084110Y-10618508D01*
X11084110Y-10618508D02*
X11074586Y-10608984D01*
X11074586Y-10608984D02*
X11074586Y-10628031D01*
X11198396Y-10808984D02*
X11179348Y-10799460D01*
X11179348Y-10799460D02*
X11169824Y-10780412D01*
X11169824Y-10780412D02*
X11169824Y-10608984D01*
X11303158Y-10808984D02*
X11284110Y-10799460D01*
X11284110Y-10799460D02*
X11274586Y-10780412D01*
X11274586Y-10780412D02*
X11274586Y-10608984D01*
X11531729Y-10808984D02*
X11531729Y-10608984D01*
X11531729Y-10608984D02*
X11598396Y-10751841D01*
X11598396Y-10751841D02*
X11665062Y-10608984D01*
X11665062Y-10608984D02*
X11665062Y-10808984D01*
X11846015Y-10808984D02*
X11846015Y-10704222D01*
X11846015Y-10704222D02*
X11836491Y-10685174D01*
X11836491Y-10685174D02*
X11817443Y-10675650D01*
X11817443Y-10675650D02*
X11779348Y-10675650D01*
X11779348Y-10675650D02*
X11760301Y-10685174D01*
X11846015Y-10799460D02*
X11826967Y-10808984D01*
X11826967Y-10808984D02*
X11779348Y-10808984D01*
X11779348Y-10808984D02*
X11760301Y-10799460D01*
X11760301Y-10799460D02*
X11750777Y-10780412D01*
X11750777Y-10780412D02*
X11750777Y-10761365D01*
X11750777Y-10761365D02*
X11760301Y-10742317D01*
X11760301Y-10742317D02*
X11779348Y-10732793D01*
X11779348Y-10732793D02*
X11826967Y-10732793D01*
X11826967Y-10732793D02*
X11846015Y-10723270D01*
X11941253Y-10675650D02*
X11941253Y-10875650D01*
X11941253Y-10685174D02*
X11960301Y-10675650D01*
X11960301Y-10675650D02*
X11998396Y-10675650D01*
X11998396Y-10675650D02*
X12017443Y-10685174D01*
X12017443Y-10685174D02*
X12026967Y-10694698D01*
X12026967Y-10694698D02*
X12036491Y-10713746D01*
X12036491Y-10713746D02*
X12036491Y-10770889D01*
X12036491Y-10770889D02*
X12026967Y-10789936D01*
X12026967Y-10789936D02*
X12017443Y-10799460D01*
X12017443Y-10799460D02*
X11998396Y-10808984D01*
X11998396Y-10808984D02*
X11960301Y-10808984D01*
X11960301Y-10808984D02*
X11941253Y-10799460D01*
X12122205Y-10789936D02*
X12131729Y-10799460D01*
X12131729Y-10799460D02*
X12122205Y-10808984D01*
X12122205Y-10808984D02*
X12112682Y-10799460D01*
X12112682Y-10799460D02*
X12122205Y-10789936D01*
X12122205Y-10789936D02*
X12122205Y-10808984D01*
X12122205Y-10685174D02*
X12131729Y-10694698D01*
X12131729Y-10694698D02*
X12122205Y-10704222D01*
X12122205Y-10704222D02*
X12112682Y-10694698D01*
X12112682Y-10694698D02*
X12122205Y-10685174D01*
X12122205Y-10685174D02*
X12122205Y-10704222D01*
M02*
