%TF.GenerationSoftware,KiCad,Pcbnew,8.0.3-8.0.3-0~ubuntu23.10.1*%
%TF.CreationDate,2024-11-22T01:20:34-05:00*%
%TF.ProjectId,28mhz_class_e_amplifier_for_pi,32386d68-7a5f-4636-9c61-73735f655f61,alpha*%
%TF.SameCoordinates,Original*%
%TF.FileFunction,Legend,Top*%
%TF.FilePolarity,Positive*%
%FSLAX46Y46*%
G04 Gerber Fmt 4.6, Leading zero omitted, Abs format (unit mm)*
G04 Created by KiCad (PCBNEW 8.0.3-8.0.3-0~ubuntu23.10.1) date 2024-11-22 01:20:34*
%MOMM*%
%LPD*%
G01*
G04 APERTURE LIST*
G04 Aperture macros list*
%AMRoundRect*
0 Rectangle with rounded corners*
0 $1 Rounding radius*
0 $2 $3 $4 $5 $6 $7 $8 $9 X,Y pos of 4 corners*
0 Add a 4 corners polygon primitive as box body*
4,1,4,$2,$3,$4,$5,$6,$7,$8,$9,$2,$3,0*
0 Add four circle primitives for the rounded corners*
1,1,$1+$1,$2,$3*
1,1,$1+$1,$4,$5*
1,1,$1+$1,$6,$7*
1,1,$1+$1,$8,$9*
0 Add four rect primitives between the rounded corners*
20,1,$1+$1,$2,$3,$4,$5,0*
20,1,$1+$1,$4,$5,$6,$7,0*
20,1,$1+$1,$6,$7,$8,$9,0*
20,1,$1+$1,$8,$9,$2,$3,0*%
G04 Aperture macros list end*
%ADD10C,0.150000*%
%ADD11C,0.254000*%
%ADD12C,0.100000*%
%ADD13C,0.120000*%
%ADD14C,0.200000*%
%ADD15RoundRect,0.249999X-0.450001X-1.425001X0.450001X-1.425001X0.450001X1.425001X-0.450001X1.425001X0*%
%ADD16RoundRect,0.250000X-0.337500X-0.475000X0.337500X-0.475000X0.337500X0.475000X-0.337500X0.475000X0*%
%ADD17R,1.700000X1.700000*%
%ADD18O,1.700000X1.700000*%
%ADD19RoundRect,0.250000X0.337500X0.475000X-0.337500X0.475000X-0.337500X-0.475000X0.337500X-0.475000X0*%
%ADD20R,2.290000X8.260000*%
%ADD21RoundRect,0.250000X-0.475000X0.337500X-0.475000X-0.337500X0.475000X-0.337500X0.475000X0.337500X0*%
%ADD22RoundRect,0.249999X0.450001X1.425001X-0.450001X1.425001X-0.450001X-1.425001X0.450001X-1.425001X0*%
%ADD23O,1.905000X2.000000*%
%ADD24R,1.905000X2.000000*%
%ADD25C,4.800000*%
%ADD26R,1.446000X1.446000*%
%ADD27C,1.446000*%
%ADD28C,3.000000*%
%ADD29R,1.526000X0.650000*%
%ADD30RoundRect,0.249999X1.425001X-0.450001X1.425001X0.450001X-1.425001X0.450001X-1.425001X-0.450001X0*%
%ADD31RoundRect,0.237500X-0.237500X0.300000X-0.237500X-0.300000X0.237500X-0.300000X0.237500X0.300000X0*%
%ADD32RoundRect,0.250000X-0.275000X-0.350000X0.275000X-0.350000X0.275000X0.350000X-0.275000X0.350000X0*%
%ADD33R,6.730000X2.160000*%
%ADD34R,1.500000X1.500000*%
%ADD35C,1.500000*%
%ADD36RoundRect,0.250000X0.400000X0.625000X-0.400000X0.625000X-0.400000X-0.625000X0.400000X-0.625000X0*%
G04 APERTURE END LIST*
D10*
X143283333Y-98284819D02*
X142950000Y-97808628D01*
X142711905Y-98284819D02*
X142711905Y-97284819D01*
X142711905Y-97284819D02*
X143092857Y-97284819D01*
X143092857Y-97284819D02*
X143188095Y-97332438D01*
X143188095Y-97332438D02*
X143235714Y-97380057D01*
X143235714Y-97380057D02*
X143283333Y-97475295D01*
X143283333Y-97475295D02*
X143283333Y-97618152D01*
X143283333Y-97618152D02*
X143235714Y-97713390D01*
X143235714Y-97713390D02*
X143188095Y-97761009D01*
X143188095Y-97761009D02*
X143092857Y-97808628D01*
X143092857Y-97808628D02*
X142711905Y-97808628D01*
X143902381Y-97284819D02*
X143997619Y-97284819D01*
X143997619Y-97284819D02*
X144092857Y-97332438D01*
X144092857Y-97332438D02*
X144140476Y-97380057D01*
X144140476Y-97380057D02*
X144188095Y-97475295D01*
X144188095Y-97475295D02*
X144235714Y-97665771D01*
X144235714Y-97665771D02*
X144235714Y-97903866D01*
X144235714Y-97903866D02*
X144188095Y-98094342D01*
X144188095Y-98094342D02*
X144140476Y-98189580D01*
X144140476Y-98189580D02*
X144092857Y-98237200D01*
X144092857Y-98237200D02*
X143997619Y-98284819D01*
X143997619Y-98284819D02*
X143902381Y-98284819D01*
X143902381Y-98284819D02*
X143807143Y-98237200D01*
X143807143Y-98237200D02*
X143759524Y-98189580D01*
X143759524Y-98189580D02*
X143711905Y-98094342D01*
X143711905Y-98094342D02*
X143664286Y-97903866D01*
X143664286Y-97903866D02*
X143664286Y-97665771D01*
X143664286Y-97665771D02*
X143711905Y-97475295D01*
X143711905Y-97475295D02*
X143759524Y-97380057D01*
X143759524Y-97380057D02*
X143807143Y-97332438D01*
X143807143Y-97332438D02*
X143902381Y-97284819D01*
X145457142Y-77679580D02*
X145409523Y-77727200D01*
X145409523Y-77727200D02*
X145266666Y-77774819D01*
X145266666Y-77774819D02*
X145171428Y-77774819D01*
X145171428Y-77774819D02*
X145028571Y-77727200D01*
X145028571Y-77727200D02*
X144933333Y-77631961D01*
X144933333Y-77631961D02*
X144885714Y-77536723D01*
X144885714Y-77536723D02*
X144838095Y-77346247D01*
X144838095Y-77346247D02*
X144838095Y-77203390D01*
X144838095Y-77203390D02*
X144885714Y-77012914D01*
X144885714Y-77012914D02*
X144933333Y-76917676D01*
X144933333Y-76917676D02*
X145028571Y-76822438D01*
X145028571Y-76822438D02*
X145171428Y-76774819D01*
X145171428Y-76774819D02*
X145266666Y-76774819D01*
X145266666Y-76774819D02*
X145409523Y-76822438D01*
X145409523Y-76822438D02*
X145457142Y-76870057D01*
X145838095Y-77727200D02*
X145980952Y-77774819D01*
X145980952Y-77774819D02*
X146219047Y-77774819D01*
X146219047Y-77774819D02*
X146314285Y-77727200D01*
X146314285Y-77727200D02*
X146361904Y-77679580D01*
X146361904Y-77679580D02*
X146409523Y-77584342D01*
X146409523Y-77584342D02*
X146409523Y-77489104D01*
X146409523Y-77489104D02*
X146361904Y-77393866D01*
X146361904Y-77393866D02*
X146314285Y-77346247D01*
X146314285Y-77346247D02*
X146219047Y-77298628D01*
X146219047Y-77298628D02*
X146028571Y-77251009D01*
X146028571Y-77251009D02*
X145933333Y-77203390D01*
X145933333Y-77203390D02*
X145885714Y-77155771D01*
X145885714Y-77155771D02*
X145838095Y-77060533D01*
X145838095Y-77060533D02*
X145838095Y-76965295D01*
X145838095Y-76965295D02*
X145885714Y-76870057D01*
X145885714Y-76870057D02*
X145933333Y-76822438D01*
X145933333Y-76822438D02*
X146028571Y-76774819D01*
X146028571Y-76774819D02*
X146266666Y-76774819D01*
X146266666Y-76774819D02*
X146409523Y-76822438D01*
X147361904Y-77774819D02*
X146790476Y-77774819D01*
X147076190Y-77774819D02*
X147076190Y-76774819D01*
X147076190Y-76774819D02*
X146980952Y-76917676D01*
X146980952Y-76917676D02*
X146885714Y-77012914D01*
X146885714Y-77012914D02*
X146790476Y-77060533D01*
X108016666Y-102379819D02*
X108016666Y-103094104D01*
X108016666Y-103094104D02*
X107969047Y-103236961D01*
X107969047Y-103236961D02*
X107873809Y-103332200D01*
X107873809Y-103332200D02*
X107730952Y-103379819D01*
X107730952Y-103379819D02*
X107635714Y-103379819D01*
X108397619Y-102379819D02*
X109016666Y-102379819D01*
X109016666Y-102379819D02*
X108683333Y-102760771D01*
X108683333Y-102760771D02*
X108826190Y-102760771D01*
X108826190Y-102760771D02*
X108921428Y-102808390D01*
X108921428Y-102808390D02*
X108969047Y-102856009D01*
X108969047Y-102856009D02*
X109016666Y-102951247D01*
X109016666Y-102951247D02*
X109016666Y-103189342D01*
X109016666Y-103189342D02*
X108969047Y-103284580D01*
X108969047Y-103284580D02*
X108921428Y-103332200D01*
X108921428Y-103332200D02*
X108826190Y-103379819D01*
X108826190Y-103379819D02*
X108540476Y-103379819D01*
X108540476Y-103379819D02*
X108445238Y-103332200D01*
X108445238Y-103332200D02*
X108397619Y-103284580D01*
X135358333Y-104389580D02*
X135310714Y-104437200D01*
X135310714Y-104437200D02*
X135167857Y-104484819D01*
X135167857Y-104484819D02*
X135072619Y-104484819D01*
X135072619Y-104484819D02*
X134929762Y-104437200D01*
X134929762Y-104437200D02*
X134834524Y-104341961D01*
X134834524Y-104341961D02*
X134786905Y-104246723D01*
X134786905Y-104246723D02*
X134739286Y-104056247D01*
X134739286Y-104056247D02*
X134739286Y-103913390D01*
X134739286Y-103913390D02*
X134786905Y-103722914D01*
X134786905Y-103722914D02*
X134834524Y-103627676D01*
X134834524Y-103627676D02*
X134929762Y-103532438D01*
X134929762Y-103532438D02*
X135072619Y-103484819D01*
X135072619Y-103484819D02*
X135167857Y-103484819D01*
X135167857Y-103484819D02*
X135310714Y-103532438D01*
X135310714Y-103532438D02*
X135358333Y-103580057D01*
X136215476Y-103818152D02*
X136215476Y-104484819D01*
X135977381Y-103437200D02*
X135739286Y-104151485D01*
X135739286Y-104151485D02*
X136358333Y-104151485D01*
D11*
X131744047Y-63074318D02*
X131139285Y-63074318D01*
X131139285Y-63074318D02*
X131139285Y-61804318D01*
X132590714Y-62409080D02*
X132167380Y-62409080D01*
X132167380Y-63074318D02*
X132167380Y-61804318D01*
X132167380Y-61804318D02*
X132772142Y-61804318D01*
X133921190Y-63074318D02*
X133195475Y-63074318D01*
X133558332Y-63074318D02*
X133558332Y-61804318D01*
X133558332Y-61804318D02*
X133437380Y-61985746D01*
X133437380Y-61985746D02*
X133316428Y-62106699D01*
X133316428Y-62106699D02*
X133195475Y-62167175D01*
D10*
X163133333Y-102589580D02*
X163085714Y-102637200D01*
X163085714Y-102637200D02*
X162942857Y-102684819D01*
X162942857Y-102684819D02*
X162847619Y-102684819D01*
X162847619Y-102684819D02*
X162704762Y-102637200D01*
X162704762Y-102637200D02*
X162609524Y-102541961D01*
X162609524Y-102541961D02*
X162561905Y-102446723D01*
X162561905Y-102446723D02*
X162514286Y-102256247D01*
X162514286Y-102256247D02*
X162514286Y-102113390D01*
X162514286Y-102113390D02*
X162561905Y-101922914D01*
X162561905Y-101922914D02*
X162609524Y-101827676D01*
X162609524Y-101827676D02*
X162704762Y-101732438D01*
X162704762Y-101732438D02*
X162847619Y-101684819D01*
X162847619Y-101684819D02*
X162942857Y-101684819D01*
X162942857Y-101684819D02*
X163085714Y-101732438D01*
X163085714Y-101732438D02*
X163133333Y-101780057D01*
X164085714Y-102684819D02*
X163514286Y-102684819D01*
X163800000Y-102684819D02*
X163800000Y-101684819D01*
X163800000Y-101684819D02*
X163704762Y-101827676D01*
X163704762Y-101827676D02*
X163609524Y-101922914D01*
X163609524Y-101922914D02*
X163514286Y-101970533D01*
D11*
X158875237Y-88874318D02*
X158270475Y-88874318D01*
X158270475Y-88874318D02*
X158270475Y-87604318D01*
X159238094Y-87725270D02*
X159298570Y-87664794D01*
X159298570Y-87664794D02*
X159419523Y-87604318D01*
X159419523Y-87604318D02*
X159721904Y-87604318D01*
X159721904Y-87604318D02*
X159842856Y-87664794D01*
X159842856Y-87664794D02*
X159903332Y-87725270D01*
X159903332Y-87725270D02*
X159963809Y-87846222D01*
X159963809Y-87846222D02*
X159963809Y-87967175D01*
X159963809Y-87967175D02*
X159903332Y-88148603D01*
X159903332Y-88148603D02*
X159177618Y-88874318D01*
X159177618Y-88874318D02*
X159963809Y-88874318D01*
X160205714Y-88995270D02*
X161173333Y-88995270D01*
X161475713Y-88874318D02*
X161475713Y-87604318D01*
X161475713Y-88088127D02*
X161596666Y-88027651D01*
X161596666Y-88027651D02*
X161838571Y-88027651D01*
X161838571Y-88027651D02*
X161959523Y-88088127D01*
X161959523Y-88088127D02*
X162019999Y-88148603D01*
X162019999Y-88148603D02*
X162080475Y-88269556D01*
X162080475Y-88269556D02*
X162080475Y-88632413D01*
X162080475Y-88632413D02*
X162019999Y-88753365D01*
X162019999Y-88753365D02*
X161959523Y-88813842D01*
X161959523Y-88813842D02*
X161838571Y-88874318D01*
X161838571Y-88874318D02*
X161596666Y-88874318D01*
X161596666Y-88874318D02*
X161475713Y-88813842D01*
X163290000Y-88874318D02*
X162564285Y-88874318D01*
X162927142Y-88874318D02*
X162927142Y-87604318D01*
X162927142Y-87604318D02*
X162806190Y-87785746D01*
X162806190Y-87785746D02*
X162685238Y-87906699D01*
X162685238Y-87906699D02*
X162564285Y-87967175D01*
D10*
X133114580Y-78421428D02*
X133162200Y-78469047D01*
X133162200Y-78469047D02*
X133209819Y-78611904D01*
X133209819Y-78611904D02*
X133209819Y-78707142D01*
X133209819Y-78707142D02*
X133162200Y-78849999D01*
X133162200Y-78849999D02*
X133066961Y-78945237D01*
X133066961Y-78945237D02*
X132971723Y-78992856D01*
X132971723Y-78992856D02*
X132781247Y-79040475D01*
X132781247Y-79040475D02*
X132638390Y-79040475D01*
X132638390Y-79040475D02*
X132447914Y-78992856D01*
X132447914Y-78992856D02*
X132352676Y-78945237D01*
X132352676Y-78945237D02*
X132257438Y-78849999D01*
X132257438Y-78849999D02*
X132209819Y-78707142D01*
X132209819Y-78707142D02*
X132209819Y-78611904D01*
X132209819Y-78611904D02*
X132257438Y-78469047D01*
X132257438Y-78469047D02*
X132305057Y-78421428D01*
X133209819Y-77516666D02*
X133209819Y-77992856D01*
X133209819Y-77992856D02*
X132209819Y-77992856D01*
X133209819Y-76659523D02*
X133209819Y-77230951D01*
X133209819Y-76945237D02*
X132209819Y-76945237D01*
X132209819Y-76945237D02*
X132352676Y-77040475D01*
X132352676Y-77040475D02*
X132447914Y-77135713D01*
X132447914Y-77135713D02*
X132495533Y-77230951D01*
X154133333Y-82074819D02*
X153800000Y-81598628D01*
X153561905Y-82074819D02*
X153561905Y-81074819D01*
X153561905Y-81074819D02*
X153942857Y-81074819D01*
X153942857Y-81074819D02*
X154038095Y-81122438D01*
X154038095Y-81122438D02*
X154085714Y-81170057D01*
X154085714Y-81170057D02*
X154133333Y-81265295D01*
X154133333Y-81265295D02*
X154133333Y-81408152D01*
X154133333Y-81408152D02*
X154085714Y-81503390D01*
X154085714Y-81503390D02*
X154038095Y-81551009D01*
X154038095Y-81551009D02*
X153942857Y-81598628D01*
X153942857Y-81598628D02*
X153561905Y-81598628D01*
X155085714Y-82074819D02*
X154514286Y-82074819D01*
X154800000Y-82074819D02*
X154800000Y-81074819D01*
X154800000Y-81074819D02*
X154704762Y-81217676D01*
X154704762Y-81217676D02*
X154609524Y-81312914D01*
X154609524Y-81312914D02*
X154514286Y-81360533D01*
X133089580Y-72695238D02*
X133137200Y-72742857D01*
X133137200Y-72742857D02*
X133184819Y-72885714D01*
X133184819Y-72885714D02*
X133184819Y-72980952D01*
X133184819Y-72980952D02*
X133137200Y-73123809D01*
X133137200Y-73123809D02*
X133041961Y-73219047D01*
X133041961Y-73219047D02*
X132946723Y-73266666D01*
X132946723Y-73266666D02*
X132756247Y-73314285D01*
X132756247Y-73314285D02*
X132613390Y-73314285D01*
X132613390Y-73314285D02*
X132422914Y-73266666D01*
X132422914Y-73266666D02*
X132327676Y-73219047D01*
X132327676Y-73219047D02*
X132232438Y-73123809D01*
X132232438Y-73123809D02*
X132184819Y-72980952D01*
X132184819Y-72980952D02*
X132184819Y-72885714D01*
X132184819Y-72885714D02*
X132232438Y-72742857D01*
X132232438Y-72742857D02*
X132280057Y-72695238D01*
X132661009Y-71933333D02*
X132661009Y-72266666D01*
X133184819Y-72266666D02*
X132184819Y-72266666D01*
X132184819Y-72266666D02*
X132184819Y-71790476D01*
X133184819Y-70885714D02*
X133184819Y-71457142D01*
X133184819Y-71171428D02*
X132184819Y-71171428D01*
X132184819Y-71171428D02*
X132327676Y-71266666D01*
X132327676Y-71266666D02*
X132422914Y-71361904D01*
X132422914Y-71361904D02*
X132470533Y-71457142D01*
X152830476Y-96609819D02*
X152830476Y-95609819D01*
X152830476Y-95609819D02*
X153163809Y-96324104D01*
X153163809Y-96324104D02*
X153497142Y-95609819D01*
X153497142Y-95609819D02*
X153497142Y-96609819D01*
X154497142Y-96609819D02*
X153925714Y-96609819D01*
X154211428Y-96609819D02*
X154211428Y-95609819D01*
X154211428Y-95609819D02*
X154116190Y-95752676D01*
X154116190Y-95752676D02*
X154020952Y-95847914D01*
X154020952Y-95847914D02*
X153925714Y-95895533D01*
D11*
X109662167Y-84095318D02*
X109662167Y-85002461D01*
X109662167Y-85002461D02*
X109601690Y-85183889D01*
X109601690Y-85183889D02*
X109480738Y-85304842D01*
X109480738Y-85304842D02*
X109299309Y-85365318D01*
X109299309Y-85365318D02*
X109178357Y-85365318D01*
X110206452Y-84216270D02*
X110266928Y-84155794D01*
X110266928Y-84155794D02*
X110387881Y-84095318D01*
X110387881Y-84095318D02*
X110690262Y-84095318D01*
X110690262Y-84095318D02*
X110811214Y-84155794D01*
X110811214Y-84155794D02*
X110871690Y-84216270D01*
X110871690Y-84216270D02*
X110932167Y-84337222D01*
X110932167Y-84337222D02*
X110932167Y-84458175D01*
X110932167Y-84458175D02*
X110871690Y-84639603D01*
X110871690Y-84639603D02*
X110145976Y-85365318D01*
X110145976Y-85365318D02*
X110932167Y-85365318D01*
D10*
X128958333Y-101029580D02*
X128910714Y-101077200D01*
X128910714Y-101077200D02*
X128767857Y-101124819D01*
X128767857Y-101124819D02*
X128672619Y-101124819D01*
X128672619Y-101124819D02*
X128529762Y-101077200D01*
X128529762Y-101077200D02*
X128434524Y-100981961D01*
X128434524Y-100981961D02*
X128386905Y-100886723D01*
X128386905Y-100886723D02*
X128339286Y-100696247D01*
X128339286Y-100696247D02*
X128339286Y-100553390D01*
X128339286Y-100553390D02*
X128386905Y-100362914D01*
X128386905Y-100362914D02*
X128434524Y-100267676D01*
X128434524Y-100267676D02*
X128529762Y-100172438D01*
X128529762Y-100172438D02*
X128672619Y-100124819D01*
X128672619Y-100124819D02*
X128767857Y-100124819D01*
X128767857Y-100124819D02*
X128910714Y-100172438D01*
X128910714Y-100172438D02*
X128958333Y-100220057D01*
X129291667Y-100124819D02*
X129910714Y-100124819D01*
X129910714Y-100124819D02*
X129577381Y-100505771D01*
X129577381Y-100505771D02*
X129720238Y-100505771D01*
X129720238Y-100505771D02*
X129815476Y-100553390D01*
X129815476Y-100553390D02*
X129863095Y-100601009D01*
X129863095Y-100601009D02*
X129910714Y-100696247D01*
X129910714Y-100696247D02*
X129910714Y-100934342D01*
X129910714Y-100934342D02*
X129863095Y-101029580D01*
X129863095Y-101029580D02*
X129815476Y-101077200D01*
X129815476Y-101077200D02*
X129720238Y-101124819D01*
X129720238Y-101124819D02*
X129434524Y-101124819D01*
X129434524Y-101124819D02*
X129339286Y-101077200D01*
X129339286Y-101077200D02*
X129291667Y-101029580D01*
D11*
X188293318Y-73463332D02*
X189200461Y-73463332D01*
X189200461Y-73463332D02*
X189381889Y-73523809D01*
X189381889Y-73523809D02*
X189502842Y-73644761D01*
X189502842Y-73644761D02*
X189563318Y-73826190D01*
X189563318Y-73826190D02*
X189563318Y-73947142D01*
X189563318Y-72193332D02*
X189563318Y-72919047D01*
X189563318Y-72556190D02*
X188293318Y-72556190D01*
X188293318Y-72556190D02*
X188474746Y-72677142D01*
X188474746Y-72677142D02*
X188595699Y-72798094D01*
X188595699Y-72798094D02*
X188656175Y-72919047D01*
D10*
X153539580Y-72595238D02*
X153587200Y-72642857D01*
X153587200Y-72642857D02*
X153634819Y-72785714D01*
X153634819Y-72785714D02*
X153634819Y-72880952D01*
X153634819Y-72880952D02*
X153587200Y-73023809D01*
X153587200Y-73023809D02*
X153491961Y-73119047D01*
X153491961Y-73119047D02*
X153396723Y-73166666D01*
X153396723Y-73166666D02*
X153206247Y-73214285D01*
X153206247Y-73214285D02*
X153063390Y-73214285D01*
X153063390Y-73214285D02*
X152872914Y-73166666D01*
X152872914Y-73166666D02*
X152777676Y-73119047D01*
X152777676Y-73119047D02*
X152682438Y-73023809D01*
X152682438Y-73023809D02*
X152634819Y-72880952D01*
X152634819Y-72880952D02*
X152634819Y-72785714D01*
X152634819Y-72785714D02*
X152682438Y-72642857D01*
X152682438Y-72642857D02*
X152730057Y-72595238D01*
X153111009Y-71833333D02*
X153111009Y-72166666D01*
X153634819Y-72166666D02*
X152634819Y-72166666D01*
X152634819Y-72166666D02*
X152634819Y-71690476D01*
X152730057Y-71357142D02*
X152682438Y-71309523D01*
X152682438Y-71309523D02*
X152634819Y-71214285D01*
X152634819Y-71214285D02*
X152634819Y-70976190D01*
X152634819Y-70976190D02*
X152682438Y-70880952D01*
X152682438Y-70880952D02*
X152730057Y-70833333D01*
X152730057Y-70833333D02*
X152825295Y-70785714D01*
X152825295Y-70785714D02*
X152920533Y-70785714D01*
X152920533Y-70785714D02*
X153063390Y-70833333D01*
X153063390Y-70833333D02*
X153634819Y-71404761D01*
X153634819Y-71404761D02*
X153634819Y-70785714D01*
X165539580Y-72545238D02*
X165587200Y-72592857D01*
X165587200Y-72592857D02*
X165634819Y-72735714D01*
X165634819Y-72735714D02*
X165634819Y-72830952D01*
X165634819Y-72830952D02*
X165587200Y-72973809D01*
X165587200Y-72973809D02*
X165491961Y-73069047D01*
X165491961Y-73069047D02*
X165396723Y-73116666D01*
X165396723Y-73116666D02*
X165206247Y-73164285D01*
X165206247Y-73164285D02*
X165063390Y-73164285D01*
X165063390Y-73164285D02*
X164872914Y-73116666D01*
X164872914Y-73116666D02*
X164777676Y-73069047D01*
X164777676Y-73069047D02*
X164682438Y-72973809D01*
X164682438Y-72973809D02*
X164634819Y-72830952D01*
X164634819Y-72830952D02*
X164634819Y-72735714D01*
X164634819Y-72735714D02*
X164682438Y-72592857D01*
X164682438Y-72592857D02*
X164730057Y-72545238D01*
X165111009Y-71783333D02*
X165111009Y-72116666D01*
X165634819Y-72116666D02*
X164634819Y-72116666D01*
X164634819Y-72116666D02*
X164634819Y-71640476D01*
X164634819Y-71354761D02*
X164634819Y-70735714D01*
X164634819Y-70735714D02*
X165015771Y-71069047D01*
X165015771Y-71069047D02*
X165015771Y-70926190D01*
X165015771Y-70926190D02*
X165063390Y-70830952D01*
X165063390Y-70830952D02*
X165111009Y-70783333D01*
X165111009Y-70783333D02*
X165206247Y-70735714D01*
X165206247Y-70735714D02*
X165444342Y-70735714D01*
X165444342Y-70735714D02*
X165539580Y-70783333D01*
X165539580Y-70783333D02*
X165587200Y-70830952D01*
X165587200Y-70830952D02*
X165634819Y-70926190D01*
X165634819Y-70926190D02*
X165634819Y-71211904D01*
X165634819Y-71211904D02*
X165587200Y-71307142D01*
X165587200Y-71307142D02*
X165539580Y-71354761D01*
D11*
X128682380Y-88754318D02*
X128682380Y-89782413D01*
X128682380Y-89782413D02*
X128742857Y-89903365D01*
X128742857Y-89903365D02*
X128803333Y-89963842D01*
X128803333Y-89963842D02*
X128924285Y-90024318D01*
X128924285Y-90024318D02*
X129166190Y-90024318D01*
X129166190Y-90024318D02*
X129287142Y-89963842D01*
X129287142Y-89963842D02*
X129347619Y-89903365D01*
X129347619Y-89903365D02*
X129408095Y-89782413D01*
X129408095Y-89782413D02*
X129408095Y-88754318D01*
X130678095Y-90024318D02*
X129952380Y-90024318D01*
X130315237Y-90024318D02*
X130315237Y-88754318D01*
X130315237Y-88754318D02*
X130194285Y-88935746D01*
X130194285Y-88935746D02*
X130073333Y-89056699D01*
X130073333Y-89056699D02*
X129952380Y-89117175D01*
D10*
X124534819Y-74316666D02*
X124058628Y-74649999D01*
X124534819Y-74888094D02*
X123534819Y-74888094D01*
X123534819Y-74888094D02*
X123534819Y-74507142D01*
X123534819Y-74507142D02*
X123582438Y-74411904D01*
X123582438Y-74411904D02*
X123630057Y-74364285D01*
X123630057Y-74364285D02*
X123725295Y-74316666D01*
X123725295Y-74316666D02*
X123868152Y-74316666D01*
X123868152Y-74316666D02*
X123963390Y-74364285D01*
X123963390Y-74364285D02*
X124011009Y-74411904D01*
X124011009Y-74411904D02*
X124058628Y-74507142D01*
X124058628Y-74507142D02*
X124058628Y-74888094D01*
X123630057Y-73935713D02*
X123582438Y-73888094D01*
X123582438Y-73888094D02*
X123534819Y-73792856D01*
X123534819Y-73792856D02*
X123534819Y-73554761D01*
X123534819Y-73554761D02*
X123582438Y-73459523D01*
X123582438Y-73459523D02*
X123630057Y-73411904D01*
X123630057Y-73411904D02*
X123725295Y-73364285D01*
X123725295Y-73364285D02*
X123820533Y-73364285D01*
X123820533Y-73364285D02*
X123963390Y-73411904D01*
X123963390Y-73411904D02*
X124534819Y-73983332D01*
X124534819Y-73983332D02*
X124534819Y-73364285D01*
X169189580Y-101616666D02*
X169237200Y-101664285D01*
X169237200Y-101664285D02*
X169284819Y-101807142D01*
X169284819Y-101807142D02*
X169284819Y-101902380D01*
X169284819Y-101902380D02*
X169237200Y-102045237D01*
X169237200Y-102045237D02*
X169141961Y-102140475D01*
X169141961Y-102140475D02*
X169046723Y-102188094D01*
X169046723Y-102188094D02*
X168856247Y-102235713D01*
X168856247Y-102235713D02*
X168713390Y-102235713D01*
X168713390Y-102235713D02*
X168522914Y-102188094D01*
X168522914Y-102188094D02*
X168427676Y-102140475D01*
X168427676Y-102140475D02*
X168332438Y-102045237D01*
X168332438Y-102045237D02*
X168284819Y-101902380D01*
X168284819Y-101902380D02*
X168284819Y-101807142D01*
X168284819Y-101807142D02*
X168332438Y-101664285D01*
X168332438Y-101664285D02*
X168380057Y-101616666D01*
X168380057Y-101235713D02*
X168332438Y-101188094D01*
X168332438Y-101188094D02*
X168284819Y-101092856D01*
X168284819Y-101092856D02*
X168284819Y-100854761D01*
X168284819Y-100854761D02*
X168332438Y-100759523D01*
X168332438Y-100759523D02*
X168380057Y-100711904D01*
X168380057Y-100711904D02*
X168475295Y-100664285D01*
X168475295Y-100664285D02*
X168570533Y-100664285D01*
X168570533Y-100664285D02*
X168713390Y-100711904D01*
X168713390Y-100711904D02*
X169284819Y-101283332D01*
X169284819Y-101283332D02*
X169284819Y-100664285D01*
X130938095Y-101379819D02*
X130938095Y-102189342D01*
X130938095Y-102189342D02*
X130985714Y-102284580D01*
X130985714Y-102284580D02*
X131033333Y-102332200D01*
X131033333Y-102332200D02*
X131128571Y-102379819D01*
X131128571Y-102379819D02*
X131319047Y-102379819D01*
X131319047Y-102379819D02*
X131414285Y-102332200D01*
X131414285Y-102332200D02*
X131461904Y-102284580D01*
X131461904Y-102284580D02*
X131509523Y-102189342D01*
X131509523Y-102189342D02*
X131509523Y-101379819D01*
X131938095Y-101475057D02*
X131985714Y-101427438D01*
X131985714Y-101427438D02*
X132080952Y-101379819D01*
X132080952Y-101379819D02*
X132319047Y-101379819D01*
X132319047Y-101379819D02*
X132414285Y-101427438D01*
X132414285Y-101427438D02*
X132461904Y-101475057D01*
X132461904Y-101475057D02*
X132509523Y-101570295D01*
X132509523Y-101570295D02*
X132509523Y-101665533D01*
X132509523Y-101665533D02*
X132461904Y-101808390D01*
X132461904Y-101808390D02*
X131890476Y-102379819D01*
X131890476Y-102379819D02*
X132509523Y-102379819D01*
X160573809Y-77954819D02*
X160097619Y-77954819D01*
X160097619Y-77954819D02*
X160097619Y-76954819D01*
X160859524Y-77050057D02*
X160907143Y-77002438D01*
X160907143Y-77002438D02*
X161002381Y-76954819D01*
X161002381Y-76954819D02*
X161240476Y-76954819D01*
X161240476Y-76954819D02*
X161335714Y-77002438D01*
X161335714Y-77002438D02*
X161383333Y-77050057D01*
X161383333Y-77050057D02*
X161430952Y-77145295D01*
X161430952Y-77145295D02*
X161430952Y-77240533D01*
X161430952Y-77240533D02*
X161383333Y-77383390D01*
X161383333Y-77383390D02*
X160811905Y-77954819D01*
X160811905Y-77954819D02*
X161430952Y-77954819D01*
X161621429Y-78050057D02*
X162383333Y-78050057D01*
X163050000Y-77954819D02*
X163050000Y-77431009D01*
X163050000Y-77431009D02*
X163002381Y-77335771D01*
X163002381Y-77335771D02*
X162907143Y-77288152D01*
X162907143Y-77288152D02*
X162716667Y-77288152D01*
X162716667Y-77288152D02*
X162621429Y-77335771D01*
X163050000Y-77907200D02*
X162954762Y-77954819D01*
X162954762Y-77954819D02*
X162716667Y-77954819D01*
X162716667Y-77954819D02*
X162621429Y-77907200D01*
X162621429Y-77907200D02*
X162573810Y-77811961D01*
X162573810Y-77811961D02*
X162573810Y-77716723D01*
X162573810Y-77716723D02*
X162621429Y-77621485D01*
X162621429Y-77621485D02*
X162716667Y-77573866D01*
X162716667Y-77573866D02*
X162954762Y-77573866D01*
X162954762Y-77573866D02*
X163050000Y-77526247D01*
X164050000Y-77954819D02*
X163478572Y-77954819D01*
X163764286Y-77954819D02*
X163764286Y-76954819D01*
X163764286Y-76954819D02*
X163669048Y-77097676D01*
X163669048Y-77097676D02*
X163573810Y-77192914D01*
X163573810Y-77192914D02*
X163478572Y-77240533D01*
D12*
X138407419Y-76354761D02*
X138407419Y-76830951D01*
X138407419Y-76830951D02*
X137407419Y-76830951D01*
X138407419Y-76021427D02*
X137407419Y-76021427D01*
X138407419Y-75021428D02*
X138407419Y-75592856D01*
X138407419Y-75307142D02*
X137407419Y-75307142D01*
X137407419Y-75307142D02*
X137550276Y-75402380D01*
X137550276Y-75402380D02*
X137645514Y-75497618D01*
X137645514Y-75497618D02*
X137693133Y-75592856D01*
D11*
X145774318Y-88161666D02*
X145774318Y-88766428D01*
X145774318Y-88766428D02*
X144504318Y-88766428D01*
X145774318Y-87073094D02*
X145774318Y-87798809D01*
X145774318Y-87435952D02*
X144504318Y-87435952D01*
X144504318Y-87435952D02*
X144685746Y-87556904D01*
X144685746Y-87556904D02*
X144806699Y-87677856D01*
X144806699Y-87677856D02*
X144867175Y-87798809D01*
D10*
X129095238Y-85124819D02*
X128761905Y-84648628D01*
X128523810Y-85124819D02*
X128523810Y-84124819D01*
X128523810Y-84124819D02*
X128904762Y-84124819D01*
X128904762Y-84124819D02*
X129000000Y-84172438D01*
X129000000Y-84172438D02*
X129047619Y-84220057D01*
X129047619Y-84220057D02*
X129095238Y-84315295D01*
X129095238Y-84315295D02*
X129095238Y-84458152D01*
X129095238Y-84458152D02*
X129047619Y-84553390D01*
X129047619Y-84553390D02*
X129000000Y-84601009D01*
X129000000Y-84601009D02*
X128904762Y-84648628D01*
X128904762Y-84648628D02*
X128523810Y-84648628D01*
X129523810Y-85124819D02*
X129523810Y-84124819D01*
X130523809Y-85124819D02*
X129952381Y-85124819D01*
X130238095Y-85124819D02*
X130238095Y-84124819D01*
X130238095Y-84124819D02*
X130142857Y-84267676D01*
X130142857Y-84267676D02*
X130047619Y-84362914D01*
X130047619Y-84362914D02*
X129952381Y-84410533D01*
D11*
X156744047Y-63074318D02*
X156139285Y-63074318D01*
X156139285Y-63074318D02*
X156139285Y-61804318D01*
X157590714Y-62409080D02*
X157167380Y-62409080D01*
X157167380Y-63074318D02*
X157167380Y-61804318D01*
X157167380Y-61804318D02*
X157772142Y-61804318D01*
X158195475Y-61925270D02*
X158255951Y-61864794D01*
X158255951Y-61864794D02*
X158376904Y-61804318D01*
X158376904Y-61804318D02*
X158679285Y-61804318D01*
X158679285Y-61804318D02*
X158800237Y-61864794D01*
X158800237Y-61864794D02*
X158860713Y-61925270D01*
X158860713Y-61925270D02*
X158921190Y-62046222D01*
X158921190Y-62046222D02*
X158921190Y-62167175D01*
X158921190Y-62167175D02*
X158860713Y-62348603D01*
X158860713Y-62348603D02*
X158134999Y-63074318D01*
X158134999Y-63074318D02*
X158921190Y-63074318D01*
D10*
X129004761Y-96624819D02*
X128671428Y-96148628D01*
X128433333Y-96624819D02*
X128433333Y-95624819D01*
X128433333Y-95624819D02*
X128814285Y-95624819D01*
X128814285Y-95624819D02*
X128909523Y-95672438D01*
X128909523Y-95672438D02*
X128957142Y-95720057D01*
X128957142Y-95720057D02*
X129004761Y-95815295D01*
X129004761Y-95815295D02*
X129004761Y-95958152D01*
X129004761Y-95958152D02*
X128957142Y-96053390D01*
X128957142Y-96053390D02*
X128909523Y-96101009D01*
X128909523Y-96101009D02*
X128814285Y-96148628D01*
X128814285Y-96148628D02*
X128433333Y-96148628D01*
X129766666Y-96101009D02*
X129433333Y-96101009D01*
X129433333Y-96624819D02*
X129433333Y-95624819D01*
X129433333Y-95624819D02*
X129909523Y-95624819D01*
X130814285Y-96624819D02*
X130242857Y-96624819D01*
X130528571Y-96624819D02*
X130528571Y-95624819D01*
X130528571Y-95624819D02*
X130433333Y-95767676D01*
X130433333Y-95767676D02*
X130338095Y-95862914D01*
X130338095Y-95862914D02*
X130242857Y-95910533D01*
D13*
%TO.C,R0*%
X141272936Y-98740000D02*
X145627064Y-98740000D01*
X141272936Y-102160000D02*
X145627064Y-102160000D01*
%TO.C,CS1*%
X145838748Y-78265000D02*
X146361252Y-78265000D01*
X145838748Y-79735000D02*
X146361252Y-79735000D01*
%TO.C,J3*%
X107020000Y-98885000D02*
X107020000Y-93745000D01*
X107020000Y-101485000D02*
X107020000Y-100155000D01*
X108350000Y-101485000D02*
X107020000Y-101485000D01*
X109680000Y-93745000D02*
X107020000Y-93745000D01*
X109680000Y-98885000D02*
X107020000Y-98885000D01*
X109680000Y-98885000D02*
X109680000Y-93745000D01*
%TO.C,C4*%
X135786252Y-101615000D02*
X135263748Y-101615000D01*
X135786252Y-103085000D02*
X135263748Y-103085000D01*
D14*
%TO.C,LF1*%
X128300000Y-58755000D02*
X136700000Y-58755000D01*
X136700000Y-66245000D02*
X128300000Y-66245000D01*
D13*
%TO.C,C1*%
X163561252Y-99815000D02*
X163038748Y-99815000D01*
X163561252Y-101285000D02*
X163038748Y-101285000D01*
D14*
%TO.C,L2_b1*%
X156250000Y-84555000D02*
X165250000Y-84555000D01*
X156250000Y-92045000D02*
X165250000Y-92045000D01*
D13*
%TO.C,CL1*%
X130340000Y-77588748D02*
X130340000Y-78111252D01*
X131810000Y-77588748D02*
X131810000Y-78111252D01*
%TO.C,R1*%
X156477064Y-77290000D02*
X152122936Y-77290000D01*
X156477064Y-80710000D02*
X152122936Y-80710000D01*
%TO.C,CF1*%
X130315000Y-71838748D02*
X130315000Y-72361252D01*
X131785000Y-71838748D02*
X131785000Y-72361252D01*
%TO.C,M1*%
X148520000Y-97155000D02*
X148520000Y-101796000D01*
X148520000Y-97155000D02*
X158760000Y-97155000D01*
X148520000Y-98665000D02*
X158760000Y-98665000D01*
X148520000Y-101796000D02*
X158760000Y-101796000D01*
X151790000Y-97155000D02*
X151790000Y-98665000D01*
X155491000Y-97155000D02*
X155491000Y-98665000D01*
X158760000Y-97155000D02*
X158760000Y-101796000D01*
D14*
%TO.C,J2*%
X106709500Y-80350000D02*
X121209500Y-80350000D01*
X106709500Y-89350000D02*
X106709500Y-80350000D01*
X113959500Y-89350000D02*
X106709500Y-89350000D01*
X123640500Y-85411000D02*
G75*
G02*
X123512500Y-85411000I-64000J0D01*
G01*
X123512500Y-85411000D02*
G75*
G02*
X123640500Y-85411000I64000J0D01*
G01*
D13*
%TO.C,C3*%
X128863748Y-101615000D02*
X129386252Y-101615000D01*
X128863748Y-103085000D02*
X129386252Y-103085000D01*
D14*
%TO.C,J1*%
X170600000Y-70500000D02*
X170800000Y-70500000D01*
X170800000Y-70500000D02*
X170600000Y-70500000D01*
X171500000Y-65640000D02*
X171500000Y-67960000D01*
X171500000Y-65640000D02*
X186400000Y-65640000D01*
X171500000Y-80440000D02*
X171500000Y-75040000D01*
X186400000Y-65640000D02*
X186400000Y-80440000D01*
X186400000Y-80440000D02*
X171500000Y-80440000D01*
X196900000Y-65540000D02*
X206700000Y-65540000D01*
X196900000Y-68040000D02*
X196900000Y-65540000D01*
X196900000Y-78040000D02*
X196900000Y-77540000D01*
X196900000Y-80540000D02*
X196900000Y-78040000D01*
X206700000Y-65540000D02*
X206700000Y-80540000D01*
X206700000Y-80540000D02*
X196900000Y-80540000D01*
D13*
%TO.C,CF2*%
X150765000Y-71738748D02*
X150765000Y-72261252D01*
X152235000Y-71738748D02*
X152235000Y-72261252D01*
%TO.C,CF3*%
X162765000Y-71688748D02*
X162765000Y-72211252D01*
X164235000Y-71688748D02*
X164235000Y-72211252D01*
D14*
%TO.C,U1*%
X126175000Y-86870000D02*
X127700000Y-86870000D01*
X128050000Y-86999000D02*
X131250000Y-86999000D01*
X128050000Y-91901000D02*
X128050000Y-86999000D01*
X131250000Y-86999000D02*
X131250000Y-91901000D01*
X131250000Y-91901000D02*
X128050000Y-91901000D01*
D13*
%TO.C,R2*%
X124990000Y-76327064D02*
X124990000Y-71972936D01*
X128410000Y-76327064D02*
X128410000Y-71972936D01*
%TO.C,C2*%
X166890000Y-101303733D02*
X166890000Y-101596267D01*
X167910000Y-101303733D02*
X167910000Y-101596267D01*
%TO.C,U2*%
X126580000Y-100925000D02*
X126580000Y-96284000D01*
X129849000Y-100925000D02*
X129849000Y-99415000D01*
X133550000Y-100925000D02*
X133550000Y-99415000D01*
X136820000Y-96284000D02*
X126580000Y-96284000D01*
X136820000Y-99415000D02*
X126580000Y-99415000D01*
X136820000Y-100925000D02*
X126580000Y-100925000D01*
X136820000Y-100925000D02*
X136820000Y-96284000D01*
%TO.C,L2_a1*%
X161639758Y-78490000D02*
X162460242Y-78490000D01*
X161639758Y-79610000D02*
X162460242Y-79610000D01*
D14*
%TO.C,L1*%
X145250000Y-84325000D02*
G75*
G02*
X145150000Y-84325000I-50000J0D01*
G01*
X145150000Y-84325000D02*
G75*
G02*
X145250000Y-84325000I50000J0D01*
G01*
D13*
%TO.C,RI1*%
X130227064Y-81940000D02*
X128772936Y-81940000D01*
X130227064Y-83760000D02*
X128772936Y-83760000D01*
D14*
%TO.C,LF2*%
X153300000Y-58755000D02*
X161700000Y-58755000D01*
X161700000Y-66245000D02*
X153300000Y-66245000D01*
D13*
%TO.C,RF1*%
X130327064Y-93440000D02*
X128872936Y-93440000D01*
X130327064Y-95260000D02*
X128872936Y-95260000D01*
%TD*%
%LPC*%
D15*
%TO.C,R0*%
X140400000Y-100450000D03*
X146500000Y-100450000D03*
%TD*%
D16*
%TO.C,CS1*%
X145062500Y-79000000D03*
X147137500Y-79000000D03*
%TD*%
D17*
%TO.C,J3*%
X108350000Y-100155000D03*
D18*
X108350000Y-97615000D03*
X108350000Y-95075000D03*
%TD*%
D19*
%TO.C,C4*%
X136562500Y-102350000D03*
X134487500Y-102350000D03*
%TD*%
D20*
%TO.C,LF1*%
X138280000Y-62500000D03*
X126720000Y-62500000D03*
%TD*%
D19*
%TO.C,C1*%
X164337500Y-100550000D03*
X162262500Y-100550000D03*
%TD*%
D20*
%TO.C,L2_b1*%
X154145000Y-88300000D03*
X167355000Y-88300000D03*
%TD*%
D21*
%TO.C,CL1*%
X131075000Y-76812500D03*
X131075000Y-78887500D03*
%TD*%
D22*
%TO.C,R1*%
X157350000Y-79000000D03*
X151250000Y-79000000D03*
%TD*%
D21*
%TO.C,CF1*%
X131050000Y-71062500D03*
X131050000Y-73137500D03*
%TD*%
D23*
%TO.C,M1*%
X153640000Y-100425000D03*
D24*
X151100000Y-100425000D03*
D23*
X156180000Y-100425000D03*
%TD*%
D25*
%TO.C,J2*%
X120309500Y-85550000D03*
X114509500Y-85550000D03*
X117309500Y-90350000D03*
%TD*%
D16*
%TO.C,C3*%
X128087500Y-102350000D03*
X130162500Y-102350000D03*
%TD*%
D26*
%TO.C,J1*%
X172000000Y-70500000D03*
D27*
X172000000Y-73040000D03*
D28*
X177080000Y-67960000D03*
X177080000Y-78120000D03*
%TD*%
D21*
%TO.C,CF2*%
X151500000Y-70962500D03*
X151500000Y-73037500D03*
%TD*%
%TO.C,CF3*%
X163500000Y-70912500D03*
X163500000Y-72987500D03*
%TD*%
D29*
%TO.C,U1*%
X126938000Y-87545000D03*
X126938000Y-88815000D03*
X126938000Y-90085000D03*
X126938000Y-91355000D03*
X132362000Y-91355000D03*
X132362000Y-90085000D03*
X132362000Y-88815000D03*
X132362000Y-87545000D03*
%TD*%
D30*
%TO.C,R2*%
X126700000Y-77200000D03*
X126700000Y-71100000D03*
%TD*%
D31*
%TO.C,C2*%
X167400000Y-100587500D03*
X167400000Y-102312500D03*
%TD*%
D24*
%TO.C,U2*%
X134240000Y-97655000D03*
D23*
X131700000Y-97655000D03*
X129160000Y-97655000D03*
%TD*%
D32*
%TO.C,L2_a1*%
X160900000Y-79050000D03*
X163200000Y-79050000D03*
%TD*%
D33*
%TO.C,LI1*%
X138450000Y-79060000D03*
X138450000Y-72840000D03*
%TD*%
D34*
%TO.C,L1*%
X145200000Y-85425000D03*
D35*
X145200000Y-90425000D03*
%TD*%
D36*
%TO.C,RI1*%
X131050000Y-82850000D03*
X127950000Y-82850000D03*
%TD*%
D20*
%TO.C,LF2*%
X163280000Y-62500000D03*
X151720000Y-62500000D03*
%TD*%
D36*
%TO.C,RF1*%
X131150000Y-94350000D03*
X128050000Y-94350000D03*
%TD*%
%LPD*%
M02*
