%TF.GenerationSoftware,KiCad,Pcbnew,8.0.3-8.0.3-0~ubuntu23.10.1*%
%TF.CreationDate,2024-11-22T01:20:38-05:00*%
%TF.ProjectId,28mhz_class_e_amplifier_for_pi,32386d68-7a5f-4636-9c61-73735f655f61,alpha*%
%TF.SameCoordinates,Original*%
%TF.FileFunction,Drillmap*%
%TF.FilePolarity,Positive*%
%FSLAX45Y45*%
G04 Gerber Fmt 4.5, Leading zero omitted, Abs format (unit mm)*
G04 Created by KiCad (PCBNEW 8.0.3-8.0.3-0~ubuntu23.10.1) date 2024-11-22 01:20:38*
%MOMM*%
%LPD*%
G01*
G04 APERTURE LIST*
%ADD10C,0.050000*%
%ADD11C,0.200000*%
%ADD12C,0.100000*%
%ADD13C,0.110000*%
%ADD14C,0.320000*%
G04 APERTURE END LIST*
D10*
X10492500Y-5580000D02*
X18637500Y-5580000D01*
X18637500Y-10495000D01*
X10492500Y-10495000D01*
X10492500Y-5580000D01*
D11*
D12*
X12635000Y-9120000D02*
X12665000Y-9150000D01*
X12665000Y-9120000D02*
X12635000Y-9150000D01*
X12722500Y-9120000D02*
X12752500Y-9150000D01*
X12752500Y-9120000D02*
X12722500Y-9150000D01*
X12755000Y-8230000D02*
X12785000Y-8260000D01*
X12785000Y-8230000D02*
X12755000Y-8260000D01*
X12755000Y-8310000D02*
X12785000Y-8340000D01*
X12785000Y-8310000D02*
X12755000Y-8340000D01*
X12807500Y-8270000D02*
X12837500Y-8300000D01*
X12837500Y-8270000D02*
X12807500Y-8300000D01*
X12975000Y-10180000D02*
X13005000Y-10210000D01*
X13005000Y-10180000D02*
X12975000Y-10210000D01*
X12975000Y-10260000D02*
X13005000Y-10290000D01*
X13005000Y-10260000D02*
X12975000Y-10290000D01*
X13027500Y-10220000D02*
X13057500Y-10250000D01*
X13057500Y-10220000D02*
X13027500Y-10250000D01*
X13050000Y-7272500D02*
X13080000Y-7302500D01*
X13080000Y-7272500D02*
X13050000Y-7302500D01*
X13090000Y-7325000D02*
X13120000Y-7355000D01*
X13120000Y-7325000D02*
X13090000Y-7355000D01*
X13130000Y-7272500D02*
X13160000Y-7302500D01*
X13160000Y-7272500D02*
X13130000Y-7302500D01*
X13407500Y-10180000D02*
X13437500Y-10210000D01*
X13437500Y-10180000D02*
X13407500Y-10210000D01*
X13407500Y-10260000D02*
X13437500Y-10290000D01*
X13437500Y-10260000D02*
X13407500Y-10290000D01*
X13460000Y-10220000D02*
X13490000Y-10250000D01*
X13490000Y-10220000D02*
X13460000Y-10250000D01*
X15095000Y-7262500D02*
X15125000Y-7292500D01*
X15125000Y-7262500D02*
X15095000Y-7292500D01*
X15135000Y-7315000D02*
X15165000Y-7345000D01*
X15165000Y-7315000D02*
X15135000Y-7345000D01*
X15175000Y-7262500D02*
X15205000Y-7292500D01*
X15205000Y-7262500D02*
X15175000Y-7292500D01*
X16185000Y-10000000D02*
X16215000Y-10030000D01*
X16215000Y-10000000D02*
X16185000Y-10030000D01*
X16185000Y-10080000D02*
X16215000Y-10110000D01*
X16215000Y-10080000D02*
X16185000Y-10110000D01*
X16237500Y-10040000D02*
X16267500Y-10070000D01*
X16267500Y-10040000D02*
X16237500Y-10070000D01*
X16295000Y-7257500D02*
X16325000Y-7287500D01*
X16325000Y-7257500D02*
X16295000Y-7287500D01*
X16335000Y-7310000D02*
X16365000Y-7340000D01*
X16365000Y-7310000D02*
X16335000Y-7340000D01*
X16375000Y-7257500D02*
X16405000Y-7287500D01*
X16405000Y-7257500D02*
X16375000Y-7287500D01*
X17244500Y-7050000D02*
G75*
G02*
X17155500Y-7050000I-44500J0D01*
G01*
X17155500Y-7050000D02*
G75*
G02*
X17244500Y-7050000I44500J0D01*
G01*
X17244500Y-7304000D02*
G75*
G02*
X17155500Y-7304000I-44500J0D01*
G01*
X17155500Y-7304000D02*
G75*
G02*
X17244500Y-7304000I44500J0D01*
G01*
X13845000Y-7237500D02*
X13845000Y-7337500D01*
X13795000Y-7287500D02*
X13895000Y-7287500D01*
X10870356Y-9542856D02*
X10870356Y-9472144D01*
X10799644Y-9472144D01*
X10799644Y-9542856D01*
X10870356Y-9542856D01*
X10870356Y-9796856D02*
X10870356Y-9726144D01*
X10799644Y-9726144D01*
X10799644Y-9796856D01*
X10870356Y-9796856D01*
X10870356Y-10050856D02*
X10870356Y-9980144D01*
X10799644Y-9980144D01*
X10799644Y-10050856D01*
X10870356Y-10050856D01*
X14555356Y-8577856D02*
X14555356Y-8507144D01*
X14484644Y-8507144D01*
X14484644Y-8577856D01*
X14555356Y-8577856D01*
X14555356Y-9077856D02*
X14555356Y-9007144D01*
X14484644Y-9007144D01*
X14484644Y-9077856D01*
X14555356Y-9077856D01*
D13*
X12916000Y-9820500D02*
X12971000Y-9765500D01*
X12916000Y-9710500D01*
X12861000Y-9765500D01*
X12916000Y-9820500D01*
X13170000Y-9820500D02*
X13225000Y-9765500D01*
X13170000Y-9710500D01*
X13115000Y-9765500D01*
X13170000Y-9820500D01*
X13424000Y-9820500D02*
X13479000Y-9765500D01*
X13424000Y-9710500D01*
X13369000Y-9765500D01*
X13424000Y-9820500D01*
X15110000Y-10097500D02*
X15165000Y-10042500D01*
X15110000Y-9987500D01*
X15055000Y-10042500D01*
X15110000Y-10097500D01*
X15364000Y-10097500D02*
X15419000Y-10042500D01*
X15364000Y-9987500D01*
X15309000Y-10042500D01*
X15364000Y-10097500D01*
X15618000Y-10097500D02*
X15673000Y-10042500D01*
X15618000Y-9987500D01*
X15563000Y-10042500D01*
X15618000Y-10097500D01*
D11*
X17608000Y-6696000D02*
X17808000Y-6896000D01*
X17808000Y-6696000D02*
X17608000Y-6896000D01*
X17808000Y-6796000D02*
G75*
G02*
X17608000Y-6796000I-100000J0D01*
G01*
X17608000Y-6796000D02*
G75*
G02*
X17808000Y-6796000I100000J0D01*
G01*
X17608000Y-7712000D02*
X17808000Y-7912000D01*
X17808000Y-7712000D02*
X17608000Y-7912000D01*
X17808000Y-7812000D02*
G75*
G02*
X17608000Y-7812000I-100000J0D01*
G01*
X17608000Y-7812000D02*
G75*
G02*
X17808000Y-7812000I100000J0D01*
G01*
D14*
X11290950Y-8395000D02*
X11610950Y-8715000D01*
X11610950Y-8395000D02*
X11290950Y-8715000D01*
X11450950Y-8395000D02*
X11450950Y-8715000D01*
X11290950Y-8555000D02*
X11610950Y-8555000D01*
X11570950Y-8875000D02*
X11890950Y-9195000D01*
X11890950Y-8875000D02*
X11570950Y-9195000D01*
X11730950Y-8875000D02*
X11730950Y-9195000D01*
X11570950Y-9035000D02*
X11890950Y-9035000D01*
X11870950Y-8395000D02*
X12190950Y-8715000D01*
X12190950Y-8395000D02*
X11870950Y-8715000D01*
X12030950Y-8395000D02*
X12030950Y-8715000D01*
X11870950Y-8555000D02*
X12190950Y-8555000D01*
D11*
X10750777Y-10808984D02*
X10750777Y-10608984D01*
X10750777Y-10608984D02*
X10798396Y-10608984D01*
X10798396Y-10608984D02*
X10826967Y-10618508D01*
X10826967Y-10618508D02*
X10846015Y-10637555D01*
X10846015Y-10637555D02*
X10855539Y-10656603D01*
X10855539Y-10656603D02*
X10865063Y-10694698D01*
X10865063Y-10694698D02*
X10865063Y-10723270D01*
X10865063Y-10723270D02*
X10855539Y-10761365D01*
X10855539Y-10761365D02*
X10846015Y-10780412D01*
X10846015Y-10780412D02*
X10826967Y-10799460D01*
X10826967Y-10799460D02*
X10798396Y-10808984D01*
X10798396Y-10808984D02*
X10750777Y-10808984D01*
X10950777Y-10808984D02*
X10950777Y-10675650D01*
X10950777Y-10713746D02*
X10960301Y-10694698D01*
X10960301Y-10694698D02*
X10969824Y-10685174D01*
X10969824Y-10685174D02*
X10988872Y-10675650D01*
X10988872Y-10675650D02*
X11007920Y-10675650D01*
X11074586Y-10808984D02*
X11074586Y-10675650D01*
X11074586Y-10608984D02*
X11065063Y-10618508D01*
X11065063Y-10618508D02*
X11074586Y-10628031D01*
X11074586Y-10628031D02*
X11084110Y-10618508D01*
X11084110Y-10618508D02*
X11074586Y-10608984D01*
X11074586Y-10608984D02*
X11074586Y-10628031D01*
X11198396Y-10808984D02*
X11179348Y-10799460D01*
X11179348Y-10799460D02*
X11169824Y-10780412D01*
X11169824Y-10780412D02*
X11169824Y-10608984D01*
X11303158Y-10808984D02*
X11284110Y-10799460D01*
X11284110Y-10799460D02*
X11274586Y-10780412D01*
X11274586Y-10780412D02*
X11274586Y-10608984D01*
X11531729Y-10808984D02*
X11531729Y-10608984D01*
X11531729Y-10608984D02*
X11598396Y-10751841D01*
X11598396Y-10751841D02*
X11665062Y-10608984D01*
X11665062Y-10608984D02*
X11665062Y-10808984D01*
X11846015Y-10808984D02*
X11846015Y-10704222D01*
X11846015Y-10704222D02*
X11836491Y-10685174D01*
X11836491Y-10685174D02*
X11817443Y-10675650D01*
X11817443Y-10675650D02*
X11779348Y-10675650D01*
X11779348Y-10675650D02*
X11760301Y-10685174D01*
X11846015Y-10799460D02*
X11826967Y-10808984D01*
X11826967Y-10808984D02*
X11779348Y-10808984D01*
X11779348Y-10808984D02*
X11760301Y-10799460D01*
X11760301Y-10799460D02*
X11750777Y-10780412D01*
X11750777Y-10780412D02*
X11750777Y-10761365D01*
X11750777Y-10761365D02*
X11760301Y-10742317D01*
X11760301Y-10742317D02*
X11779348Y-10732793D01*
X11779348Y-10732793D02*
X11826967Y-10732793D01*
X11826967Y-10732793D02*
X11846015Y-10723270D01*
X11941253Y-10675650D02*
X11941253Y-10875650D01*
X11941253Y-10685174D02*
X11960301Y-10675650D01*
X11960301Y-10675650D02*
X11998396Y-10675650D01*
X11998396Y-10675650D02*
X12017443Y-10685174D01*
X12017443Y-10685174D02*
X12026967Y-10694698D01*
X12026967Y-10694698D02*
X12036491Y-10713746D01*
X12036491Y-10713746D02*
X12036491Y-10770889D01*
X12036491Y-10770889D02*
X12026967Y-10789936D01*
X12026967Y-10789936D02*
X12017443Y-10799460D01*
X12017443Y-10799460D02*
X11998396Y-10808984D01*
X11998396Y-10808984D02*
X11960301Y-10808984D01*
X11960301Y-10808984D02*
X11941253Y-10799460D01*
X12122205Y-10789936D02*
X12131729Y-10799460D01*
X12131729Y-10799460D02*
X12122205Y-10808984D01*
X12122205Y-10808984D02*
X12112682Y-10799460D01*
X12112682Y-10799460D02*
X12122205Y-10789936D01*
X12122205Y-10789936D02*
X12122205Y-10808984D01*
X12122205Y-10685174D02*
X12131729Y-10694698D01*
X12131729Y-10694698D02*
X12122205Y-10704222D01*
X12122205Y-10704222D02*
X12112682Y-10694698D01*
X12112682Y-10694698D02*
X12122205Y-10685174D01*
X12122205Y-10685174D02*
X12122205Y-10704222D01*
D12*
X10460000Y-11122500D02*
X10490000Y-11152500D01*
X10490000Y-11122500D02*
X10460000Y-11152500D01*
D11*
X10788872Y-11028984D02*
X10807920Y-11028984D01*
X10807920Y-11028984D02*
X10826967Y-11038508D01*
X10826967Y-11038508D02*
X10836491Y-11048031D01*
X10836491Y-11048031D02*
X10846015Y-11067079D01*
X10846015Y-11067079D02*
X10855539Y-11105174D01*
X10855539Y-11105174D02*
X10855539Y-11152793D01*
X10855539Y-11152793D02*
X10846015Y-11190888D01*
X10846015Y-11190888D02*
X10836491Y-11209936D01*
X10836491Y-11209936D02*
X10826967Y-11219460D01*
X10826967Y-11219460D02*
X10807920Y-11228984D01*
X10807920Y-11228984D02*
X10788872Y-11228984D01*
X10788872Y-11228984D02*
X10769824Y-11219460D01*
X10769824Y-11219460D02*
X10760301Y-11209936D01*
X10760301Y-11209936D02*
X10750777Y-11190888D01*
X10750777Y-11190888D02*
X10741253Y-11152793D01*
X10741253Y-11152793D02*
X10741253Y-11105174D01*
X10741253Y-11105174D02*
X10750777Y-11067079D01*
X10750777Y-11067079D02*
X10760301Y-11048031D01*
X10760301Y-11048031D02*
X10769824Y-11038508D01*
X10769824Y-11038508D02*
X10788872Y-11028984D01*
X10941253Y-11209936D02*
X10950777Y-11219460D01*
X10950777Y-11219460D02*
X10941253Y-11228984D01*
X10941253Y-11228984D02*
X10931729Y-11219460D01*
X10931729Y-11219460D02*
X10941253Y-11209936D01*
X10941253Y-11209936D02*
X10941253Y-11228984D01*
X11017444Y-11028984D02*
X11141253Y-11028984D01*
X11141253Y-11028984D02*
X11074586Y-11105174D01*
X11074586Y-11105174D02*
X11103158Y-11105174D01*
X11103158Y-11105174D02*
X11122205Y-11114698D01*
X11122205Y-11114698D02*
X11131729Y-11124222D01*
X11131729Y-11124222D02*
X11141253Y-11143270D01*
X11141253Y-11143270D02*
X11141253Y-11190888D01*
X11141253Y-11190888D02*
X11131729Y-11209936D01*
X11131729Y-11209936D02*
X11122205Y-11219460D01*
X11122205Y-11219460D02*
X11103158Y-11228984D01*
X11103158Y-11228984D02*
X11046015Y-11228984D01*
X11046015Y-11228984D02*
X11026967Y-11219460D01*
X11026967Y-11219460D02*
X11017444Y-11209936D01*
X11265062Y-11028984D02*
X11284110Y-11028984D01*
X11284110Y-11028984D02*
X11303158Y-11038508D01*
X11303158Y-11038508D02*
X11312682Y-11048031D01*
X11312682Y-11048031D02*
X11322205Y-11067079D01*
X11322205Y-11067079D02*
X11331729Y-11105174D01*
X11331729Y-11105174D02*
X11331729Y-11152793D01*
X11331729Y-11152793D02*
X11322205Y-11190888D01*
X11322205Y-11190888D02*
X11312682Y-11209936D01*
X11312682Y-11209936D02*
X11303158Y-11219460D01*
X11303158Y-11219460D02*
X11284110Y-11228984D01*
X11284110Y-11228984D02*
X11265062Y-11228984D01*
X11265062Y-11228984D02*
X11246015Y-11219460D01*
X11246015Y-11219460D02*
X11236491Y-11209936D01*
X11236491Y-11209936D02*
X11226967Y-11190888D01*
X11226967Y-11190888D02*
X11217443Y-11152793D01*
X11217443Y-11152793D02*
X11217443Y-11105174D01*
X11217443Y-11105174D02*
X11226967Y-11067079D01*
X11226967Y-11067079D02*
X11236491Y-11048031D01*
X11236491Y-11048031D02*
X11246015Y-11038508D01*
X11246015Y-11038508D02*
X11265062Y-11028984D01*
X11455539Y-11028984D02*
X11474586Y-11028984D01*
X11474586Y-11028984D02*
X11493634Y-11038508D01*
X11493634Y-11038508D02*
X11503158Y-11048031D01*
X11503158Y-11048031D02*
X11512682Y-11067079D01*
X11512682Y-11067079D02*
X11522205Y-11105174D01*
X11522205Y-11105174D02*
X11522205Y-11152793D01*
X11522205Y-11152793D02*
X11512682Y-11190888D01*
X11512682Y-11190888D02*
X11503158Y-11209936D01*
X11503158Y-11209936D02*
X11493634Y-11219460D01*
X11493634Y-11219460D02*
X11474586Y-11228984D01*
X11474586Y-11228984D02*
X11455539Y-11228984D01*
X11455539Y-11228984D02*
X11436491Y-11219460D01*
X11436491Y-11219460D02*
X11426967Y-11209936D01*
X11426967Y-11209936D02*
X11417443Y-11190888D01*
X11417443Y-11190888D02*
X11407920Y-11152793D01*
X11407920Y-11152793D02*
X11407920Y-11105174D01*
X11407920Y-11105174D02*
X11417443Y-11067079D01*
X11417443Y-11067079D02*
X11426967Y-11048031D01*
X11426967Y-11048031D02*
X11436491Y-11038508D01*
X11436491Y-11038508D02*
X11455539Y-11028984D01*
X11607920Y-11228984D02*
X11607920Y-11095650D01*
X11607920Y-11114698D02*
X11617443Y-11105174D01*
X11617443Y-11105174D02*
X11636491Y-11095650D01*
X11636491Y-11095650D02*
X11665063Y-11095650D01*
X11665063Y-11095650D02*
X11684110Y-11105174D01*
X11684110Y-11105174D02*
X11693634Y-11124222D01*
X11693634Y-11124222D02*
X11693634Y-11228984D01*
X11693634Y-11124222D02*
X11703158Y-11105174D01*
X11703158Y-11105174D02*
X11722205Y-11095650D01*
X11722205Y-11095650D02*
X11750777Y-11095650D01*
X11750777Y-11095650D02*
X11769824Y-11105174D01*
X11769824Y-11105174D02*
X11779348Y-11124222D01*
X11779348Y-11124222D02*
X11779348Y-11228984D01*
X11874586Y-11228984D02*
X11874586Y-11095650D01*
X11874586Y-11114698D02*
X11884110Y-11105174D01*
X11884110Y-11105174D02*
X11903158Y-11095650D01*
X11903158Y-11095650D02*
X11931729Y-11095650D01*
X11931729Y-11095650D02*
X11950777Y-11105174D01*
X11950777Y-11105174D02*
X11960301Y-11124222D01*
X11960301Y-11124222D02*
X11960301Y-11228984D01*
X11960301Y-11124222D02*
X11969824Y-11105174D01*
X11969824Y-11105174D02*
X11988872Y-11095650D01*
X11988872Y-11095650D02*
X12017443Y-11095650D01*
X12017443Y-11095650D02*
X12036491Y-11105174D01*
X12036491Y-11105174D02*
X12046015Y-11124222D01*
X12046015Y-11124222D02*
X12046015Y-11228984D01*
X12436491Y-11019460D02*
X12265063Y-11276603D01*
X12693634Y-11028984D02*
X12712682Y-11028984D01*
X12712682Y-11028984D02*
X12731729Y-11038508D01*
X12731729Y-11038508D02*
X12741253Y-11048031D01*
X12741253Y-11048031D02*
X12750777Y-11067079D01*
X12750777Y-11067079D02*
X12760301Y-11105174D01*
X12760301Y-11105174D02*
X12760301Y-11152793D01*
X12760301Y-11152793D02*
X12750777Y-11190888D01*
X12750777Y-11190888D02*
X12741253Y-11209936D01*
X12741253Y-11209936D02*
X12731729Y-11219460D01*
X12731729Y-11219460D02*
X12712682Y-11228984D01*
X12712682Y-11228984D02*
X12693634Y-11228984D01*
X12693634Y-11228984D02*
X12674586Y-11219460D01*
X12674586Y-11219460D02*
X12665063Y-11209936D01*
X12665063Y-11209936D02*
X12655539Y-11190888D01*
X12655539Y-11190888D02*
X12646015Y-11152793D01*
X12646015Y-11152793D02*
X12646015Y-11105174D01*
X12646015Y-11105174D02*
X12655539Y-11067079D01*
X12655539Y-11067079D02*
X12665063Y-11048031D01*
X12665063Y-11048031D02*
X12674586Y-11038508D01*
X12674586Y-11038508D02*
X12693634Y-11028984D01*
X12846015Y-11209936D02*
X12855539Y-11219460D01*
X12855539Y-11219460D02*
X12846015Y-11228984D01*
X12846015Y-11228984D02*
X12836491Y-11219460D01*
X12836491Y-11219460D02*
X12846015Y-11209936D01*
X12846015Y-11209936D02*
X12846015Y-11228984D01*
X12979348Y-11028984D02*
X12998396Y-11028984D01*
X12998396Y-11028984D02*
X13017444Y-11038508D01*
X13017444Y-11038508D02*
X13026967Y-11048031D01*
X13026967Y-11048031D02*
X13036491Y-11067079D01*
X13036491Y-11067079D02*
X13046015Y-11105174D01*
X13046015Y-11105174D02*
X13046015Y-11152793D01*
X13046015Y-11152793D02*
X13036491Y-11190888D01*
X13036491Y-11190888D02*
X13026967Y-11209936D01*
X13026967Y-11209936D02*
X13017444Y-11219460D01*
X13017444Y-11219460D02*
X12998396Y-11228984D01*
X12998396Y-11228984D02*
X12979348Y-11228984D01*
X12979348Y-11228984D02*
X12960301Y-11219460D01*
X12960301Y-11219460D02*
X12950777Y-11209936D01*
X12950777Y-11209936D02*
X12941253Y-11190888D01*
X12941253Y-11190888D02*
X12931729Y-11152793D01*
X12931729Y-11152793D02*
X12931729Y-11105174D01*
X12931729Y-11105174D02*
X12941253Y-11067079D01*
X12941253Y-11067079D02*
X12950777Y-11048031D01*
X12950777Y-11048031D02*
X12960301Y-11038508D01*
X12960301Y-11038508D02*
X12979348Y-11028984D01*
X13236491Y-11228984D02*
X13122206Y-11228984D01*
X13179348Y-11228984D02*
X13179348Y-11028984D01*
X13179348Y-11028984D02*
X13160301Y-11057555D01*
X13160301Y-11057555D02*
X13141253Y-11076603D01*
X13141253Y-11076603D02*
X13122206Y-11086127D01*
X13426967Y-11228984D02*
X13312682Y-11228984D01*
X13369825Y-11228984D02*
X13369825Y-11028984D01*
X13369825Y-11028984D02*
X13350777Y-11057555D01*
X13350777Y-11057555D02*
X13331729Y-11076603D01*
X13331729Y-11076603D02*
X13312682Y-11086127D01*
X13541253Y-11114698D02*
X13522206Y-11105174D01*
X13522206Y-11105174D02*
X13512682Y-11095650D01*
X13512682Y-11095650D02*
X13503158Y-11076603D01*
X13503158Y-11076603D02*
X13503158Y-11067079D01*
X13503158Y-11067079D02*
X13512682Y-11048031D01*
X13512682Y-11048031D02*
X13522206Y-11038508D01*
X13522206Y-11038508D02*
X13541253Y-11028984D01*
X13541253Y-11028984D02*
X13579348Y-11028984D01*
X13579348Y-11028984D02*
X13598396Y-11038508D01*
X13598396Y-11038508D02*
X13607920Y-11048031D01*
X13607920Y-11048031D02*
X13617444Y-11067079D01*
X13617444Y-11067079D02*
X13617444Y-11076603D01*
X13617444Y-11076603D02*
X13607920Y-11095650D01*
X13607920Y-11095650D02*
X13598396Y-11105174D01*
X13598396Y-11105174D02*
X13579348Y-11114698D01*
X13579348Y-11114698D02*
X13541253Y-11114698D01*
X13541253Y-11114698D02*
X13522206Y-11124222D01*
X13522206Y-11124222D02*
X13512682Y-11133746D01*
X13512682Y-11133746D02*
X13503158Y-11152793D01*
X13503158Y-11152793D02*
X13503158Y-11190888D01*
X13503158Y-11190888D02*
X13512682Y-11209936D01*
X13512682Y-11209936D02*
X13522206Y-11219460D01*
X13522206Y-11219460D02*
X13541253Y-11228984D01*
X13541253Y-11228984D02*
X13579348Y-11228984D01*
X13579348Y-11228984D02*
X13598396Y-11219460D01*
X13598396Y-11219460D02*
X13607920Y-11209936D01*
X13607920Y-11209936D02*
X13617444Y-11190888D01*
X13617444Y-11190888D02*
X13617444Y-11152793D01*
X13617444Y-11152793D02*
X13607920Y-11133746D01*
X13607920Y-11133746D02*
X13598396Y-11124222D01*
X13598396Y-11124222D02*
X13579348Y-11114698D01*
X13693634Y-11028984D02*
X13693634Y-11067079D01*
X13769825Y-11028984D02*
X13769825Y-11067079D01*
X14065063Y-11305174D02*
X14055539Y-11295650D01*
X14055539Y-11295650D02*
X14036491Y-11267079D01*
X14036491Y-11267079D02*
X14026968Y-11248031D01*
X14026968Y-11248031D02*
X14017444Y-11219460D01*
X14017444Y-11219460D02*
X14007920Y-11171841D01*
X14007920Y-11171841D02*
X14007920Y-11133746D01*
X14007920Y-11133746D02*
X14017444Y-11086127D01*
X14017444Y-11086127D02*
X14026968Y-11057555D01*
X14026968Y-11057555D02*
X14036491Y-11038508D01*
X14036491Y-11038508D02*
X14055539Y-11009936D01*
X14055539Y-11009936D02*
X14065063Y-11000412D01*
X14131729Y-11048031D02*
X14141253Y-11038508D01*
X14141253Y-11038508D02*
X14160301Y-11028984D01*
X14160301Y-11028984D02*
X14207920Y-11028984D01*
X14207920Y-11028984D02*
X14226968Y-11038508D01*
X14226968Y-11038508D02*
X14236491Y-11048031D01*
X14236491Y-11048031D02*
X14246015Y-11067079D01*
X14246015Y-11067079D02*
X14246015Y-11086127D01*
X14246015Y-11086127D02*
X14236491Y-11114698D01*
X14236491Y-11114698D02*
X14122206Y-11228984D01*
X14122206Y-11228984D02*
X14246015Y-11228984D01*
X14312682Y-11028984D02*
X14436491Y-11028984D01*
X14436491Y-11028984D02*
X14369825Y-11105174D01*
X14369825Y-11105174D02*
X14398396Y-11105174D01*
X14398396Y-11105174D02*
X14417444Y-11114698D01*
X14417444Y-11114698D02*
X14426968Y-11124222D01*
X14426968Y-11124222D02*
X14436491Y-11143270D01*
X14436491Y-11143270D02*
X14436491Y-11190888D01*
X14436491Y-11190888D02*
X14426968Y-11209936D01*
X14426968Y-11209936D02*
X14417444Y-11219460D01*
X14417444Y-11219460D02*
X14398396Y-11228984D01*
X14398396Y-11228984D02*
X14341253Y-11228984D01*
X14341253Y-11228984D02*
X14322206Y-11219460D01*
X14322206Y-11219460D02*
X14312682Y-11209936D01*
X14674587Y-11228984D02*
X14674587Y-11028984D01*
X14760301Y-11228984D02*
X14760301Y-11124222D01*
X14760301Y-11124222D02*
X14750777Y-11105174D01*
X14750777Y-11105174D02*
X14731730Y-11095650D01*
X14731730Y-11095650D02*
X14703158Y-11095650D01*
X14703158Y-11095650D02*
X14684110Y-11105174D01*
X14684110Y-11105174D02*
X14674587Y-11114698D01*
X14884110Y-11228984D02*
X14865063Y-11219460D01*
X14865063Y-11219460D02*
X14855539Y-11209936D01*
X14855539Y-11209936D02*
X14846015Y-11190888D01*
X14846015Y-11190888D02*
X14846015Y-11133746D01*
X14846015Y-11133746D02*
X14855539Y-11114698D01*
X14855539Y-11114698D02*
X14865063Y-11105174D01*
X14865063Y-11105174D02*
X14884110Y-11095650D01*
X14884110Y-11095650D02*
X14912682Y-11095650D01*
X14912682Y-11095650D02*
X14931730Y-11105174D01*
X14931730Y-11105174D02*
X14941253Y-11114698D01*
X14941253Y-11114698D02*
X14950777Y-11133746D01*
X14950777Y-11133746D02*
X14950777Y-11190888D01*
X14950777Y-11190888D02*
X14941253Y-11209936D01*
X14941253Y-11209936D02*
X14931730Y-11219460D01*
X14931730Y-11219460D02*
X14912682Y-11228984D01*
X14912682Y-11228984D02*
X14884110Y-11228984D01*
X15065063Y-11228984D02*
X15046015Y-11219460D01*
X15046015Y-11219460D02*
X15036491Y-11200412D01*
X15036491Y-11200412D02*
X15036491Y-11028984D01*
X15217444Y-11219460D02*
X15198396Y-11228984D01*
X15198396Y-11228984D02*
X15160301Y-11228984D01*
X15160301Y-11228984D02*
X15141253Y-11219460D01*
X15141253Y-11219460D02*
X15131730Y-11200412D01*
X15131730Y-11200412D02*
X15131730Y-11124222D01*
X15131730Y-11124222D02*
X15141253Y-11105174D01*
X15141253Y-11105174D02*
X15160301Y-11095650D01*
X15160301Y-11095650D02*
X15198396Y-11095650D01*
X15198396Y-11095650D02*
X15217444Y-11105174D01*
X15217444Y-11105174D02*
X15226968Y-11124222D01*
X15226968Y-11124222D02*
X15226968Y-11143270D01*
X15226968Y-11143270D02*
X15131730Y-11162317D01*
X15303158Y-11219460D02*
X15322206Y-11228984D01*
X15322206Y-11228984D02*
X15360301Y-11228984D01*
X15360301Y-11228984D02*
X15379349Y-11219460D01*
X15379349Y-11219460D02*
X15388872Y-11200412D01*
X15388872Y-11200412D02*
X15388872Y-11190888D01*
X15388872Y-11190888D02*
X15379349Y-11171841D01*
X15379349Y-11171841D02*
X15360301Y-11162317D01*
X15360301Y-11162317D02*
X15331730Y-11162317D01*
X15331730Y-11162317D02*
X15312682Y-11152793D01*
X15312682Y-11152793D02*
X15303158Y-11133746D01*
X15303158Y-11133746D02*
X15303158Y-11124222D01*
X15303158Y-11124222D02*
X15312682Y-11105174D01*
X15312682Y-11105174D02*
X15331730Y-11095650D01*
X15331730Y-11095650D02*
X15360301Y-11095650D01*
X15360301Y-11095650D02*
X15379349Y-11105174D01*
X15455539Y-11305174D02*
X15465063Y-11295650D01*
X15465063Y-11295650D02*
X15484111Y-11267079D01*
X15484111Y-11267079D02*
X15493634Y-11248031D01*
X15493634Y-11248031D02*
X15503158Y-11219460D01*
X15503158Y-11219460D02*
X15512682Y-11171841D01*
X15512682Y-11171841D02*
X15512682Y-11133746D01*
X15512682Y-11133746D02*
X15503158Y-11086127D01*
X15503158Y-11086127D02*
X15493634Y-11057555D01*
X15493634Y-11057555D02*
X15484111Y-11038508D01*
X15484111Y-11038508D02*
X15465063Y-11009936D01*
X15465063Y-11009936D02*
X15455539Y-11000412D01*
D12*
X10490000Y-11401500D02*
G75*
G02*
X10401000Y-11401500I-44500J0D01*
G01*
X10401000Y-11401500D02*
G75*
G02*
X10490000Y-11401500I44500J0D01*
G01*
D11*
X10788872Y-11292984D02*
X10807920Y-11292984D01*
X10807920Y-11292984D02*
X10826967Y-11302508D01*
X10826967Y-11302508D02*
X10836491Y-11312031D01*
X10836491Y-11312031D02*
X10846015Y-11331079D01*
X10846015Y-11331079D02*
X10855539Y-11369174D01*
X10855539Y-11369174D02*
X10855539Y-11416793D01*
X10855539Y-11416793D02*
X10846015Y-11454888D01*
X10846015Y-11454888D02*
X10836491Y-11473936D01*
X10836491Y-11473936D02*
X10826967Y-11483460D01*
X10826967Y-11483460D02*
X10807920Y-11492984D01*
X10807920Y-11492984D02*
X10788872Y-11492984D01*
X10788872Y-11492984D02*
X10769824Y-11483460D01*
X10769824Y-11483460D02*
X10760301Y-11473936D01*
X10760301Y-11473936D02*
X10750777Y-11454888D01*
X10750777Y-11454888D02*
X10741253Y-11416793D01*
X10741253Y-11416793D02*
X10741253Y-11369174D01*
X10741253Y-11369174D02*
X10750777Y-11331079D01*
X10750777Y-11331079D02*
X10760301Y-11312031D01*
X10760301Y-11312031D02*
X10769824Y-11302508D01*
X10769824Y-11302508D02*
X10788872Y-11292984D01*
X10941253Y-11473936D02*
X10950777Y-11483460D01*
X10950777Y-11483460D02*
X10941253Y-11492984D01*
X10941253Y-11492984D02*
X10931729Y-11483460D01*
X10931729Y-11483460D02*
X10941253Y-11473936D01*
X10941253Y-11473936D02*
X10941253Y-11492984D01*
X11065063Y-11378698D02*
X11046015Y-11369174D01*
X11046015Y-11369174D02*
X11036491Y-11359650D01*
X11036491Y-11359650D02*
X11026967Y-11340603D01*
X11026967Y-11340603D02*
X11026967Y-11331079D01*
X11026967Y-11331079D02*
X11036491Y-11312031D01*
X11036491Y-11312031D02*
X11046015Y-11302508D01*
X11046015Y-11302508D02*
X11065063Y-11292984D01*
X11065063Y-11292984D02*
X11103158Y-11292984D01*
X11103158Y-11292984D02*
X11122205Y-11302508D01*
X11122205Y-11302508D02*
X11131729Y-11312031D01*
X11131729Y-11312031D02*
X11141253Y-11331079D01*
X11141253Y-11331079D02*
X11141253Y-11340603D01*
X11141253Y-11340603D02*
X11131729Y-11359650D01*
X11131729Y-11359650D02*
X11122205Y-11369174D01*
X11122205Y-11369174D02*
X11103158Y-11378698D01*
X11103158Y-11378698D02*
X11065063Y-11378698D01*
X11065063Y-11378698D02*
X11046015Y-11388222D01*
X11046015Y-11388222D02*
X11036491Y-11397746D01*
X11036491Y-11397746D02*
X11026967Y-11416793D01*
X11026967Y-11416793D02*
X11026967Y-11454888D01*
X11026967Y-11454888D02*
X11036491Y-11473936D01*
X11036491Y-11473936D02*
X11046015Y-11483460D01*
X11046015Y-11483460D02*
X11065063Y-11492984D01*
X11065063Y-11492984D02*
X11103158Y-11492984D01*
X11103158Y-11492984D02*
X11122205Y-11483460D01*
X11122205Y-11483460D02*
X11131729Y-11473936D01*
X11131729Y-11473936D02*
X11141253Y-11454888D01*
X11141253Y-11454888D02*
X11141253Y-11416793D01*
X11141253Y-11416793D02*
X11131729Y-11397746D01*
X11131729Y-11397746D02*
X11122205Y-11388222D01*
X11122205Y-11388222D02*
X11103158Y-11378698D01*
X11236491Y-11492984D02*
X11274586Y-11492984D01*
X11274586Y-11492984D02*
X11293634Y-11483460D01*
X11293634Y-11483460D02*
X11303158Y-11473936D01*
X11303158Y-11473936D02*
X11322205Y-11445365D01*
X11322205Y-11445365D02*
X11331729Y-11407269D01*
X11331729Y-11407269D02*
X11331729Y-11331079D01*
X11331729Y-11331079D02*
X11322205Y-11312031D01*
X11322205Y-11312031D02*
X11312682Y-11302508D01*
X11312682Y-11302508D02*
X11293634Y-11292984D01*
X11293634Y-11292984D02*
X11255539Y-11292984D01*
X11255539Y-11292984D02*
X11236491Y-11302508D01*
X11236491Y-11302508D02*
X11226967Y-11312031D01*
X11226967Y-11312031D02*
X11217443Y-11331079D01*
X11217443Y-11331079D02*
X11217443Y-11378698D01*
X11217443Y-11378698D02*
X11226967Y-11397746D01*
X11226967Y-11397746D02*
X11236491Y-11407269D01*
X11236491Y-11407269D02*
X11255539Y-11416793D01*
X11255539Y-11416793D02*
X11293634Y-11416793D01*
X11293634Y-11416793D02*
X11312682Y-11407269D01*
X11312682Y-11407269D02*
X11322205Y-11397746D01*
X11322205Y-11397746D02*
X11331729Y-11378698D01*
X11455539Y-11292984D02*
X11474586Y-11292984D01*
X11474586Y-11292984D02*
X11493634Y-11302508D01*
X11493634Y-11302508D02*
X11503158Y-11312031D01*
X11503158Y-11312031D02*
X11512682Y-11331079D01*
X11512682Y-11331079D02*
X11522205Y-11369174D01*
X11522205Y-11369174D02*
X11522205Y-11416793D01*
X11522205Y-11416793D02*
X11512682Y-11454888D01*
X11512682Y-11454888D02*
X11503158Y-11473936D01*
X11503158Y-11473936D02*
X11493634Y-11483460D01*
X11493634Y-11483460D02*
X11474586Y-11492984D01*
X11474586Y-11492984D02*
X11455539Y-11492984D01*
X11455539Y-11492984D02*
X11436491Y-11483460D01*
X11436491Y-11483460D02*
X11426967Y-11473936D01*
X11426967Y-11473936D02*
X11417443Y-11454888D01*
X11417443Y-11454888D02*
X11407920Y-11416793D01*
X11407920Y-11416793D02*
X11407920Y-11369174D01*
X11407920Y-11369174D02*
X11417443Y-11331079D01*
X11417443Y-11331079D02*
X11426967Y-11312031D01*
X11426967Y-11312031D02*
X11436491Y-11302508D01*
X11436491Y-11302508D02*
X11455539Y-11292984D01*
X11607920Y-11492984D02*
X11607920Y-11359650D01*
X11607920Y-11378698D02*
X11617443Y-11369174D01*
X11617443Y-11369174D02*
X11636491Y-11359650D01*
X11636491Y-11359650D02*
X11665063Y-11359650D01*
X11665063Y-11359650D02*
X11684110Y-11369174D01*
X11684110Y-11369174D02*
X11693634Y-11388222D01*
X11693634Y-11388222D02*
X11693634Y-11492984D01*
X11693634Y-11388222D02*
X11703158Y-11369174D01*
X11703158Y-11369174D02*
X11722205Y-11359650D01*
X11722205Y-11359650D02*
X11750777Y-11359650D01*
X11750777Y-11359650D02*
X11769824Y-11369174D01*
X11769824Y-11369174D02*
X11779348Y-11388222D01*
X11779348Y-11388222D02*
X11779348Y-11492984D01*
X11874586Y-11492984D02*
X11874586Y-11359650D01*
X11874586Y-11378698D02*
X11884110Y-11369174D01*
X11884110Y-11369174D02*
X11903158Y-11359650D01*
X11903158Y-11359650D02*
X11931729Y-11359650D01*
X11931729Y-11359650D02*
X11950777Y-11369174D01*
X11950777Y-11369174D02*
X11960301Y-11388222D01*
X11960301Y-11388222D02*
X11960301Y-11492984D01*
X11960301Y-11388222D02*
X11969824Y-11369174D01*
X11969824Y-11369174D02*
X11988872Y-11359650D01*
X11988872Y-11359650D02*
X12017443Y-11359650D01*
X12017443Y-11359650D02*
X12036491Y-11369174D01*
X12036491Y-11369174D02*
X12046015Y-11388222D01*
X12046015Y-11388222D02*
X12046015Y-11492984D01*
X12436491Y-11283460D02*
X12265063Y-11540603D01*
X12693634Y-11292984D02*
X12712682Y-11292984D01*
X12712682Y-11292984D02*
X12731729Y-11302508D01*
X12731729Y-11302508D02*
X12741253Y-11312031D01*
X12741253Y-11312031D02*
X12750777Y-11331079D01*
X12750777Y-11331079D02*
X12760301Y-11369174D01*
X12760301Y-11369174D02*
X12760301Y-11416793D01*
X12760301Y-11416793D02*
X12750777Y-11454888D01*
X12750777Y-11454888D02*
X12741253Y-11473936D01*
X12741253Y-11473936D02*
X12731729Y-11483460D01*
X12731729Y-11483460D02*
X12712682Y-11492984D01*
X12712682Y-11492984D02*
X12693634Y-11492984D01*
X12693634Y-11492984D02*
X12674586Y-11483460D01*
X12674586Y-11483460D02*
X12665063Y-11473936D01*
X12665063Y-11473936D02*
X12655539Y-11454888D01*
X12655539Y-11454888D02*
X12646015Y-11416793D01*
X12646015Y-11416793D02*
X12646015Y-11369174D01*
X12646015Y-11369174D02*
X12655539Y-11331079D01*
X12655539Y-11331079D02*
X12665063Y-11312031D01*
X12665063Y-11312031D02*
X12674586Y-11302508D01*
X12674586Y-11302508D02*
X12693634Y-11292984D01*
X12846015Y-11473936D02*
X12855539Y-11483460D01*
X12855539Y-11483460D02*
X12846015Y-11492984D01*
X12846015Y-11492984D02*
X12836491Y-11483460D01*
X12836491Y-11483460D02*
X12846015Y-11473936D01*
X12846015Y-11473936D02*
X12846015Y-11492984D01*
X12979348Y-11292984D02*
X12998396Y-11292984D01*
X12998396Y-11292984D02*
X13017444Y-11302508D01*
X13017444Y-11302508D02*
X13026967Y-11312031D01*
X13026967Y-11312031D02*
X13036491Y-11331079D01*
X13036491Y-11331079D02*
X13046015Y-11369174D01*
X13046015Y-11369174D02*
X13046015Y-11416793D01*
X13046015Y-11416793D02*
X13036491Y-11454888D01*
X13036491Y-11454888D02*
X13026967Y-11473936D01*
X13026967Y-11473936D02*
X13017444Y-11483460D01*
X13017444Y-11483460D02*
X12998396Y-11492984D01*
X12998396Y-11492984D02*
X12979348Y-11492984D01*
X12979348Y-11492984D02*
X12960301Y-11483460D01*
X12960301Y-11483460D02*
X12950777Y-11473936D01*
X12950777Y-11473936D02*
X12941253Y-11454888D01*
X12941253Y-11454888D02*
X12931729Y-11416793D01*
X12931729Y-11416793D02*
X12931729Y-11369174D01*
X12931729Y-11369174D02*
X12941253Y-11331079D01*
X12941253Y-11331079D02*
X12950777Y-11312031D01*
X12950777Y-11312031D02*
X12960301Y-11302508D01*
X12960301Y-11302508D02*
X12979348Y-11292984D01*
X13112682Y-11292984D02*
X13236491Y-11292984D01*
X13236491Y-11292984D02*
X13169825Y-11369174D01*
X13169825Y-11369174D02*
X13198396Y-11369174D01*
X13198396Y-11369174D02*
X13217444Y-11378698D01*
X13217444Y-11378698D02*
X13226967Y-11388222D01*
X13226967Y-11388222D02*
X13236491Y-11407269D01*
X13236491Y-11407269D02*
X13236491Y-11454888D01*
X13236491Y-11454888D02*
X13226967Y-11473936D01*
X13226967Y-11473936D02*
X13217444Y-11483460D01*
X13217444Y-11483460D02*
X13198396Y-11492984D01*
X13198396Y-11492984D02*
X13141253Y-11492984D01*
X13141253Y-11492984D02*
X13122206Y-11483460D01*
X13122206Y-11483460D02*
X13112682Y-11473936D01*
X13417444Y-11292984D02*
X13322206Y-11292984D01*
X13322206Y-11292984D02*
X13312682Y-11388222D01*
X13312682Y-11388222D02*
X13322206Y-11378698D01*
X13322206Y-11378698D02*
X13341253Y-11369174D01*
X13341253Y-11369174D02*
X13388872Y-11369174D01*
X13388872Y-11369174D02*
X13407920Y-11378698D01*
X13407920Y-11378698D02*
X13417444Y-11388222D01*
X13417444Y-11388222D02*
X13426967Y-11407269D01*
X13426967Y-11407269D02*
X13426967Y-11454888D01*
X13426967Y-11454888D02*
X13417444Y-11473936D01*
X13417444Y-11473936D02*
X13407920Y-11483460D01*
X13407920Y-11483460D02*
X13388872Y-11492984D01*
X13388872Y-11492984D02*
X13341253Y-11492984D01*
X13341253Y-11492984D02*
X13322206Y-11483460D01*
X13322206Y-11483460D02*
X13312682Y-11473936D01*
X13550777Y-11292984D02*
X13569825Y-11292984D01*
X13569825Y-11292984D02*
X13588872Y-11302508D01*
X13588872Y-11302508D02*
X13598396Y-11312031D01*
X13598396Y-11312031D02*
X13607920Y-11331079D01*
X13607920Y-11331079D02*
X13617444Y-11369174D01*
X13617444Y-11369174D02*
X13617444Y-11416793D01*
X13617444Y-11416793D02*
X13607920Y-11454888D01*
X13607920Y-11454888D02*
X13598396Y-11473936D01*
X13598396Y-11473936D02*
X13588872Y-11483460D01*
X13588872Y-11483460D02*
X13569825Y-11492984D01*
X13569825Y-11492984D02*
X13550777Y-11492984D01*
X13550777Y-11492984D02*
X13531729Y-11483460D01*
X13531729Y-11483460D02*
X13522206Y-11473936D01*
X13522206Y-11473936D02*
X13512682Y-11454888D01*
X13512682Y-11454888D02*
X13503158Y-11416793D01*
X13503158Y-11416793D02*
X13503158Y-11369174D01*
X13503158Y-11369174D02*
X13512682Y-11331079D01*
X13512682Y-11331079D02*
X13522206Y-11312031D01*
X13522206Y-11312031D02*
X13531729Y-11302508D01*
X13531729Y-11302508D02*
X13550777Y-11292984D01*
X13693634Y-11292984D02*
X13693634Y-11331079D01*
X13769825Y-11292984D02*
X13769825Y-11331079D01*
X14065063Y-11569174D02*
X14055539Y-11559650D01*
X14055539Y-11559650D02*
X14036491Y-11531079D01*
X14036491Y-11531079D02*
X14026968Y-11512031D01*
X14026968Y-11512031D02*
X14017444Y-11483460D01*
X14017444Y-11483460D02*
X14007920Y-11435841D01*
X14007920Y-11435841D02*
X14007920Y-11397746D01*
X14007920Y-11397746D02*
X14017444Y-11350127D01*
X14017444Y-11350127D02*
X14026968Y-11321555D01*
X14026968Y-11321555D02*
X14036491Y-11302508D01*
X14036491Y-11302508D02*
X14055539Y-11273936D01*
X14055539Y-11273936D02*
X14065063Y-11264412D01*
X14131729Y-11312031D02*
X14141253Y-11302508D01*
X14141253Y-11302508D02*
X14160301Y-11292984D01*
X14160301Y-11292984D02*
X14207920Y-11292984D01*
X14207920Y-11292984D02*
X14226968Y-11302508D01*
X14226968Y-11302508D02*
X14236491Y-11312031D01*
X14236491Y-11312031D02*
X14246015Y-11331079D01*
X14246015Y-11331079D02*
X14246015Y-11350127D01*
X14246015Y-11350127D02*
X14236491Y-11378698D01*
X14236491Y-11378698D02*
X14122206Y-11492984D01*
X14122206Y-11492984D02*
X14246015Y-11492984D01*
X14484110Y-11492984D02*
X14484110Y-11292984D01*
X14569825Y-11492984D02*
X14569825Y-11388222D01*
X14569825Y-11388222D02*
X14560301Y-11369174D01*
X14560301Y-11369174D02*
X14541253Y-11359650D01*
X14541253Y-11359650D02*
X14512682Y-11359650D01*
X14512682Y-11359650D02*
X14493634Y-11369174D01*
X14493634Y-11369174D02*
X14484110Y-11378698D01*
X14693634Y-11492984D02*
X14674587Y-11483460D01*
X14674587Y-11483460D02*
X14665063Y-11473936D01*
X14665063Y-11473936D02*
X14655539Y-11454888D01*
X14655539Y-11454888D02*
X14655539Y-11397746D01*
X14655539Y-11397746D02*
X14665063Y-11378698D01*
X14665063Y-11378698D02*
X14674587Y-11369174D01*
X14674587Y-11369174D02*
X14693634Y-11359650D01*
X14693634Y-11359650D02*
X14722206Y-11359650D01*
X14722206Y-11359650D02*
X14741253Y-11369174D01*
X14741253Y-11369174D02*
X14750777Y-11378698D01*
X14750777Y-11378698D02*
X14760301Y-11397746D01*
X14760301Y-11397746D02*
X14760301Y-11454888D01*
X14760301Y-11454888D02*
X14750777Y-11473936D01*
X14750777Y-11473936D02*
X14741253Y-11483460D01*
X14741253Y-11483460D02*
X14722206Y-11492984D01*
X14722206Y-11492984D02*
X14693634Y-11492984D01*
X14874587Y-11492984D02*
X14855539Y-11483460D01*
X14855539Y-11483460D02*
X14846015Y-11464412D01*
X14846015Y-11464412D02*
X14846015Y-11292984D01*
X15026968Y-11483460D02*
X15007920Y-11492984D01*
X15007920Y-11492984D02*
X14969825Y-11492984D01*
X14969825Y-11492984D02*
X14950777Y-11483460D01*
X14950777Y-11483460D02*
X14941253Y-11464412D01*
X14941253Y-11464412D02*
X14941253Y-11388222D01*
X14941253Y-11388222D02*
X14950777Y-11369174D01*
X14950777Y-11369174D02*
X14969825Y-11359650D01*
X14969825Y-11359650D02*
X15007920Y-11359650D01*
X15007920Y-11359650D02*
X15026968Y-11369174D01*
X15026968Y-11369174D02*
X15036491Y-11388222D01*
X15036491Y-11388222D02*
X15036491Y-11407269D01*
X15036491Y-11407269D02*
X14941253Y-11426317D01*
X15112682Y-11483460D02*
X15131730Y-11492984D01*
X15131730Y-11492984D02*
X15169825Y-11492984D01*
X15169825Y-11492984D02*
X15188872Y-11483460D01*
X15188872Y-11483460D02*
X15198396Y-11464412D01*
X15198396Y-11464412D02*
X15198396Y-11454888D01*
X15198396Y-11454888D02*
X15188872Y-11435841D01*
X15188872Y-11435841D02*
X15169825Y-11426317D01*
X15169825Y-11426317D02*
X15141253Y-11426317D01*
X15141253Y-11426317D02*
X15122206Y-11416793D01*
X15122206Y-11416793D02*
X15112682Y-11397746D01*
X15112682Y-11397746D02*
X15112682Y-11388222D01*
X15112682Y-11388222D02*
X15122206Y-11369174D01*
X15122206Y-11369174D02*
X15141253Y-11359650D01*
X15141253Y-11359650D02*
X15169825Y-11359650D01*
X15169825Y-11359650D02*
X15188872Y-11369174D01*
X15265063Y-11569174D02*
X15274587Y-11559650D01*
X15274587Y-11559650D02*
X15293634Y-11531079D01*
X15293634Y-11531079D02*
X15303158Y-11512031D01*
X15303158Y-11512031D02*
X15312682Y-11483460D01*
X15312682Y-11483460D02*
X15322206Y-11435841D01*
X15322206Y-11435841D02*
X15322206Y-11397746D01*
X15322206Y-11397746D02*
X15312682Y-11350127D01*
X15312682Y-11350127D02*
X15303158Y-11321555D01*
X15303158Y-11321555D02*
X15293634Y-11302508D01*
X15293634Y-11302508D02*
X15274587Y-11273936D01*
X15274587Y-11273936D02*
X15265063Y-11264412D01*
D12*
X10440000Y-11615500D02*
X10440000Y-11715500D01*
X10390000Y-11665500D02*
X10490000Y-11665500D01*
D11*
X10855539Y-11756984D02*
X10741253Y-11756984D01*
X10798396Y-11756984D02*
X10798396Y-11556984D01*
X10798396Y-11556984D02*
X10779348Y-11585555D01*
X10779348Y-11585555D02*
X10760301Y-11604603D01*
X10760301Y-11604603D02*
X10741253Y-11614127D01*
X10941253Y-11737936D02*
X10950777Y-11747460D01*
X10950777Y-11747460D02*
X10941253Y-11756984D01*
X10941253Y-11756984D02*
X10931729Y-11747460D01*
X10931729Y-11747460D02*
X10941253Y-11737936D01*
X10941253Y-11737936D02*
X10941253Y-11756984D01*
X11074586Y-11556984D02*
X11093634Y-11556984D01*
X11093634Y-11556984D02*
X11112682Y-11566508D01*
X11112682Y-11566508D02*
X11122205Y-11576031D01*
X11122205Y-11576031D02*
X11131729Y-11595079D01*
X11131729Y-11595079D02*
X11141253Y-11633174D01*
X11141253Y-11633174D02*
X11141253Y-11680793D01*
X11141253Y-11680793D02*
X11131729Y-11718888D01*
X11131729Y-11718888D02*
X11122205Y-11737936D01*
X11122205Y-11737936D02*
X11112682Y-11747460D01*
X11112682Y-11747460D02*
X11093634Y-11756984D01*
X11093634Y-11756984D02*
X11074586Y-11756984D01*
X11074586Y-11756984D02*
X11055539Y-11747460D01*
X11055539Y-11747460D02*
X11046015Y-11737936D01*
X11046015Y-11737936D02*
X11036491Y-11718888D01*
X11036491Y-11718888D02*
X11026967Y-11680793D01*
X11026967Y-11680793D02*
X11026967Y-11633174D01*
X11026967Y-11633174D02*
X11036491Y-11595079D01*
X11036491Y-11595079D02*
X11046015Y-11576031D01*
X11046015Y-11576031D02*
X11055539Y-11566508D01*
X11055539Y-11566508D02*
X11074586Y-11556984D01*
X11265062Y-11556984D02*
X11284110Y-11556984D01*
X11284110Y-11556984D02*
X11303158Y-11566508D01*
X11303158Y-11566508D02*
X11312682Y-11576031D01*
X11312682Y-11576031D02*
X11322205Y-11595079D01*
X11322205Y-11595079D02*
X11331729Y-11633174D01*
X11331729Y-11633174D02*
X11331729Y-11680793D01*
X11331729Y-11680793D02*
X11322205Y-11718888D01*
X11322205Y-11718888D02*
X11312682Y-11737936D01*
X11312682Y-11737936D02*
X11303158Y-11747460D01*
X11303158Y-11747460D02*
X11284110Y-11756984D01*
X11284110Y-11756984D02*
X11265062Y-11756984D01*
X11265062Y-11756984D02*
X11246015Y-11747460D01*
X11246015Y-11747460D02*
X11236491Y-11737936D01*
X11236491Y-11737936D02*
X11226967Y-11718888D01*
X11226967Y-11718888D02*
X11217443Y-11680793D01*
X11217443Y-11680793D02*
X11217443Y-11633174D01*
X11217443Y-11633174D02*
X11226967Y-11595079D01*
X11226967Y-11595079D02*
X11236491Y-11576031D01*
X11236491Y-11576031D02*
X11246015Y-11566508D01*
X11246015Y-11566508D02*
X11265062Y-11556984D01*
X11455539Y-11556984D02*
X11474586Y-11556984D01*
X11474586Y-11556984D02*
X11493634Y-11566508D01*
X11493634Y-11566508D02*
X11503158Y-11576031D01*
X11503158Y-11576031D02*
X11512682Y-11595079D01*
X11512682Y-11595079D02*
X11522205Y-11633174D01*
X11522205Y-11633174D02*
X11522205Y-11680793D01*
X11522205Y-11680793D02*
X11512682Y-11718888D01*
X11512682Y-11718888D02*
X11503158Y-11737936D01*
X11503158Y-11737936D02*
X11493634Y-11747460D01*
X11493634Y-11747460D02*
X11474586Y-11756984D01*
X11474586Y-11756984D02*
X11455539Y-11756984D01*
X11455539Y-11756984D02*
X11436491Y-11747460D01*
X11436491Y-11747460D02*
X11426967Y-11737936D01*
X11426967Y-11737936D02*
X11417443Y-11718888D01*
X11417443Y-11718888D02*
X11407920Y-11680793D01*
X11407920Y-11680793D02*
X11407920Y-11633174D01*
X11407920Y-11633174D02*
X11417443Y-11595079D01*
X11417443Y-11595079D02*
X11426967Y-11576031D01*
X11426967Y-11576031D02*
X11436491Y-11566508D01*
X11436491Y-11566508D02*
X11455539Y-11556984D01*
X11607920Y-11756984D02*
X11607920Y-11623650D01*
X11607920Y-11642698D02*
X11617443Y-11633174D01*
X11617443Y-11633174D02*
X11636491Y-11623650D01*
X11636491Y-11623650D02*
X11665063Y-11623650D01*
X11665063Y-11623650D02*
X11684110Y-11633174D01*
X11684110Y-11633174D02*
X11693634Y-11652222D01*
X11693634Y-11652222D02*
X11693634Y-11756984D01*
X11693634Y-11652222D02*
X11703158Y-11633174D01*
X11703158Y-11633174D02*
X11722205Y-11623650D01*
X11722205Y-11623650D02*
X11750777Y-11623650D01*
X11750777Y-11623650D02*
X11769824Y-11633174D01*
X11769824Y-11633174D02*
X11779348Y-11652222D01*
X11779348Y-11652222D02*
X11779348Y-11756984D01*
X11874586Y-11756984D02*
X11874586Y-11623650D01*
X11874586Y-11642698D02*
X11884110Y-11633174D01*
X11884110Y-11633174D02*
X11903158Y-11623650D01*
X11903158Y-11623650D02*
X11931729Y-11623650D01*
X11931729Y-11623650D02*
X11950777Y-11633174D01*
X11950777Y-11633174D02*
X11960301Y-11652222D01*
X11960301Y-11652222D02*
X11960301Y-11756984D01*
X11960301Y-11652222D02*
X11969824Y-11633174D01*
X11969824Y-11633174D02*
X11988872Y-11623650D01*
X11988872Y-11623650D02*
X12017443Y-11623650D01*
X12017443Y-11623650D02*
X12036491Y-11633174D01*
X12036491Y-11633174D02*
X12046015Y-11652222D01*
X12046015Y-11652222D02*
X12046015Y-11756984D01*
X12436491Y-11547460D02*
X12265063Y-11804603D01*
X12693634Y-11556984D02*
X12712682Y-11556984D01*
X12712682Y-11556984D02*
X12731729Y-11566508D01*
X12731729Y-11566508D02*
X12741253Y-11576031D01*
X12741253Y-11576031D02*
X12750777Y-11595079D01*
X12750777Y-11595079D02*
X12760301Y-11633174D01*
X12760301Y-11633174D02*
X12760301Y-11680793D01*
X12760301Y-11680793D02*
X12750777Y-11718888D01*
X12750777Y-11718888D02*
X12741253Y-11737936D01*
X12741253Y-11737936D02*
X12731729Y-11747460D01*
X12731729Y-11747460D02*
X12712682Y-11756984D01*
X12712682Y-11756984D02*
X12693634Y-11756984D01*
X12693634Y-11756984D02*
X12674586Y-11747460D01*
X12674586Y-11747460D02*
X12665063Y-11737936D01*
X12665063Y-11737936D02*
X12655539Y-11718888D01*
X12655539Y-11718888D02*
X12646015Y-11680793D01*
X12646015Y-11680793D02*
X12646015Y-11633174D01*
X12646015Y-11633174D02*
X12655539Y-11595079D01*
X12655539Y-11595079D02*
X12665063Y-11576031D01*
X12665063Y-11576031D02*
X12674586Y-11566508D01*
X12674586Y-11566508D02*
X12693634Y-11556984D01*
X12846015Y-11737936D02*
X12855539Y-11747460D01*
X12855539Y-11747460D02*
X12846015Y-11756984D01*
X12846015Y-11756984D02*
X12836491Y-11747460D01*
X12836491Y-11747460D02*
X12846015Y-11737936D01*
X12846015Y-11737936D02*
X12846015Y-11756984D01*
X12979348Y-11556984D02*
X12998396Y-11556984D01*
X12998396Y-11556984D02*
X13017444Y-11566508D01*
X13017444Y-11566508D02*
X13026967Y-11576031D01*
X13026967Y-11576031D02*
X13036491Y-11595079D01*
X13036491Y-11595079D02*
X13046015Y-11633174D01*
X13046015Y-11633174D02*
X13046015Y-11680793D01*
X13046015Y-11680793D02*
X13036491Y-11718888D01*
X13036491Y-11718888D02*
X13026967Y-11737936D01*
X13026967Y-11737936D02*
X13017444Y-11747460D01*
X13017444Y-11747460D02*
X12998396Y-11756984D01*
X12998396Y-11756984D02*
X12979348Y-11756984D01*
X12979348Y-11756984D02*
X12960301Y-11747460D01*
X12960301Y-11747460D02*
X12950777Y-11737936D01*
X12950777Y-11737936D02*
X12941253Y-11718888D01*
X12941253Y-11718888D02*
X12931729Y-11680793D01*
X12931729Y-11680793D02*
X12931729Y-11633174D01*
X12931729Y-11633174D02*
X12941253Y-11595079D01*
X12941253Y-11595079D02*
X12950777Y-11576031D01*
X12950777Y-11576031D02*
X12960301Y-11566508D01*
X12960301Y-11566508D02*
X12979348Y-11556984D01*
X13112682Y-11556984D02*
X13236491Y-11556984D01*
X13236491Y-11556984D02*
X13169825Y-11633174D01*
X13169825Y-11633174D02*
X13198396Y-11633174D01*
X13198396Y-11633174D02*
X13217444Y-11642698D01*
X13217444Y-11642698D02*
X13226967Y-11652222D01*
X13226967Y-11652222D02*
X13236491Y-11671269D01*
X13236491Y-11671269D02*
X13236491Y-11718888D01*
X13236491Y-11718888D02*
X13226967Y-11737936D01*
X13226967Y-11737936D02*
X13217444Y-11747460D01*
X13217444Y-11747460D02*
X13198396Y-11756984D01*
X13198396Y-11756984D02*
X13141253Y-11756984D01*
X13141253Y-11756984D02*
X13122206Y-11747460D01*
X13122206Y-11747460D02*
X13112682Y-11737936D01*
X13331729Y-11756984D02*
X13369825Y-11756984D01*
X13369825Y-11756984D02*
X13388872Y-11747460D01*
X13388872Y-11747460D02*
X13398396Y-11737936D01*
X13398396Y-11737936D02*
X13417444Y-11709365D01*
X13417444Y-11709365D02*
X13426967Y-11671269D01*
X13426967Y-11671269D02*
X13426967Y-11595079D01*
X13426967Y-11595079D02*
X13417444Y-11576031D01*
X13417444Y-11576031D02*
X13407920Y-11566508D01*
X13407920Y-11566508D02*
X13388872Y-11556984D01*
X13388872Y-11556984D02*
X13350777Y-11556984D01*
X13350777Y-11556984D02*
X13331729Y-11566508D01*
X13331729Y-11566508D02*
X13322206Y-11576031D01*
X13322206Y-11576031D02*
X13312682Y-11595079D01*
X13312682Y-11595079D02*
X13312682Y-11642698D01*
X13312682Y-11642698D02*
X13322206Y-11661746D01*
X13322206Y-11661746D02*
X13331729Y-11671269D01*
X13331729Y-11671269D02*
X13350777Y-11680793D01*
X13350777Y-11680793D02*
X13388872Y-11680793D01*
X13388872Y-11680793D02*
X13407920Y-11671269D01*
X13407920Y-11671269D02*
X13417444Y-11661746D01*
X13417444Y-11661746D02*
X13426967Y-11642698D01*
X13598396Y-11623650D02*
X13598396Y-11756984D01*
X13550777Y-11547460D02*
X13503158Y-11690317D01*
X13503158Y-11690317D02*
X13626967Y-11690317D01*
X13693634Y-11556984D02*
X13693634Y-11595079D01*
X13769825Y-11556984D02*
X13769825Y-11595079D01*
X14065063Y-11833174D02*
X14055539Y-11823650D01*
X14055539Y-11823650D02*
X14036491Y-11795079D01*
X14036491Y-11795079D02*
X14026968Y-11776031D01*
X14026968Y-11776031D02*
X14017444Y-11747460D01*
X14017444Y-11747460D02*
X14007920Y-11699841D01*
X14007920Y-11699841D02*
X14007920Y-11661746D01*
X14007920Y-11661746D02*
X14017444Y-11614127D01*
X14017444Y-11614127D02*
X14026968Y-11585555D01*
X14026968Y-11585555D02*
X14036491Y-11566508D01*
X14036491Y-11566508D02*
X14055539Y-11537936D01*
X14055539Y-11537936D02*
X14065063Y-11528412D01*
X14246015Y-11756984D02*
X14131729Y-11756984D01*
X14188872Y-11756984D02*
X14188872Y-11556984D01*
X14188872Y-11556984D02*
X14169825Y-11585555D01*
X14169825Y-11585555D02*
X14150777Y-11604603D01*
X14150777Y-11604603D02*
X14131729Y-11614127D01*
X14484110Y-11756984D02*
X14484110Y-11556984D01*
X14569825Y-11756984D02*
X14569825Y-11652222D01*
X14569825Y-11652222D02*
X14560301Y-11633174D01*
X14560301Y-11633174D02*
X14541253Y-11623650D01*
X14541253Y-11623650D02*
X14512682Y-11623650D01*
X14512682Y-11623650D02*
X14493634Y-11633174D01*
X14493634Y-11633174D02*
X14484110Y-11642698D01*
X14693634Y-11756984D02*
X14674587Y-11747460D01*
X14674587Y-11747460D02*
X14665063Y-11737936D01*
X14665063Y-11737936D02*
X14655539Y-11718888D01*
X14655539Y-11718888D02*
X14655539Y-11661746D01*
X14655539Y-11661746D02*
X14665063Y-11642698D01*
X14665063Y-11642698D02*
X14674587Y-11633174D01*
X14674587Y-11633174D02*
X14693634Y-11623650D01*
X14693634Y-11623650D02*
X14722206Y-11623650D01*
X14722206Y-11623650D02*
X14741253Y-11633174D01*
X14741253Y-11633174D02*
X14750777Y-11642698D01*
X14750777Y-11642698D02*
X14760301Y-11661746D01*
X14760301Y-11661746D02*
X14760301Y-11718888D01*
X14760301Y-11718888D02*
X14750777Y-11737936D01*
X14750777Y-11737936D02*
X14741253Y-11747460D01*
X14741253Y-11747460D02*
X14722206Y-11756984D01*
X14722206Y-11756984D02*
X14693634Y-11756984D01*
X14874587Y-11756984D02*
X14855539Y-11747460D01*
X14855539Y-11747460D02*
X14846015Y-11728412D01*
X14846015Y-11728412D02*
X14846015Y-11556984D01*
X15026968Y-11747460D02*
X15007920Y-11756984D01*
X15007920Y-11756984D02*
X14969825Y-11756984D01*
X14969825Y-11756984D02*
X14950777Y-11747460D01*
X14950777Y-11747460D02*
X14941253Y-11728412D01*
X14941253Y-11728412D02*
X14941253Y-11652222D01*
X14941253Y-11652222D02*
X14950777Y-11633174D01*
X14950777Y-11633174D02*
X14969825Y-11623650D01*
X14969825Y-11623650D02*
X15007920Y-11623650D01*
X15007920Y-11623650D02*
X15026968Y-11633174D01*
X15026968Y-11633174D02*
X15036491Y-11652222D01*
X15036491Y-11652222D02*
X15036491Y-11671269D01*
X15036491Y-11671269D02*
X14941253Y-11690317D01*
X15103158Y-11833174D02*
X15112682Y-11823650D01*
X15112682Y-11823650D02*
X15131730Y-11795079D01*
X15131730Y-11795079D02*
X15141253Y-11776031D01*
X15141253Y-11776031D02*
X15150777Y-11747460D01*
X15150777Y-11747460D02*
X15160301Y-11699841D01*
X15160301Y-11699841D02*
X15160301Y-11661746D01*
X15160301Y-11661746D02*
X15150777Y-11614127D01*
X15150777Y-11614127D02*
X15141253Y-11585555D01*
X15141253Y-11585555D02*
X15131730Y-11566508D01*
X15131730Y-11566508D02*
X15112682Y-11537936D01*
X15112682Y-11537936D02*
X15103158Y-11528412D01*
D12*
X10475356Y-11964856D02*
X10475356Y-11894144D01*
X10404644Y-11894144D01*
X10404644Y-11964856D01*
X10475356Y-11964856D01*
D11*
X10855539Y-12020984D02*
X10741253Y-12020984D01*
X10798396Y-12020984D02*
X10798396Y-11820984D01*
X10798396Y-11820984D02*
X10779348Y-11849555D01*
X10779348Y-11849555D02*
X10760301Y-11868603D01*
X10760301Y-11868603D02*
X10741253Y-11878127D01*
X10941253Y-12001936D02*
X10950777Y-12011460D01*
X10950777Y-12011460D02*
X10941253Y-12020984D01*
X10941253Y-12020984D02*
X10931729Y-12011460D01*
X10931729Y-12011460D02*
X10941253Y-12001936D01*
X10941253Y-12001936D02*
X10941253Y-12020984D01*
X11074586Y-11820984D02*
X11093634Y-11820984D01*
X11093634Y-11820984D02*
X11112682Y-11830508D01*
X11112682Y-11830508D02*
X11122205Y-11840031D01*
X11122205Y-11840031D02*
X11131729Y-11859079D01*
X11131729Y-11859079D02*
X11141253Y-11897174D01*
X11141253Y-11897174D02*
X11141253Y-11944793D01*
X11141253Y-11944793D02*
X11131729Y-11982888D01*
X11131729Y-11982888D02*
X11122205Y-12001936D01*
X11122205Y-12001936D02*
X11112682Y-12011460D01*
X11112682Y-12011460D02*
X11093634Y-12020984D01*
X11093634Y-12020984D02*
X11074586Y-12020984D01*
X11074586Y-12020984D02*
X11055539Y-12011460D01*
X11055539Y-12011460D02*
X11046015Y-12001936D01*
X11046015Y-12001936D02*
X11036491Y-11982888D01*
X11036491Y-11982888D02*
X11026967Y-11944793D01*
X11026967Y-11944793D02*
X11026967Y-11897174D01*
X11026967Y-11897174D02*
X11036491Y-11859079D01*
X11036491Y-11859079D02*
X11046015Y-11840031D01*
X11046015Y-11840031D02*
X11055539Y-11830508D01*
X11055539Y-11830508D02*
X11074586Y-11820984D01*
X11265062Y-11820984D02*
X11284110Y-11820984D01*
X11284110Y-11820984D02*
X11303158Y-11830508D01*
X11303158Y-11830508D02*
X11312682Y-11840031D01*
X11312682Y-11840031D02*
X11322205Y-11859079D01*
X11322205Y-11859079D02*
X11331729Y-11897174D01*
X11331729Y-11897174D02*
X11331729Y-11944793D01*
X11331729Y-11944793D02*
X11322205Y-11982888D01*
X11322205Y-11982888D02*
X11312682Y-12001936D01*
X11312682Y-12001936D02*
X11303158Y-12011460D01*
X11303158Y-12011460D02*
X11284110Y-12020984D01*
X11284110Y-12020984D02*
X11265062Y-12020984D01*
X11265062Y-12020984D02*
X11246015Y-12011460D01*
X11246015Y-12011460D02*
X11236491Y-12001936D01*
X11236491Y-12001936D02*
X11226967Y-11982888D01*
X11226967Y-11982888D02*
X11217443Y-11944793D01*
X11217443Y-11944793D02*
X11217443Y-11897174D01*
X11217443Y-11897174D02*
X11226967Y-11859079D01*
X11226967Y-11859079D02*
X11236491Y-11840031D01*
X11236491Y-11840031D02*
X11246015Y-11830508D01*
X11246015Y-11830508D02*
X11265062Y-11820984D01*
X11455539Y-11820984D02*
X11474586Y-11820984D01*
X11474586Y-11820984D02*
X11493634Y-11830508D01*
X11493634Y-11830508D02*
X11503158Y-11840031D01*
X11503158Y-11840031D02*
X11512682Y-11859079D01*
X11512682Y-11859079D02*
X11522205Y-11897174D01*
X11522205Y-11897174D02*
X11522205Y-11944793D01*
X11522205Y-11944793D02*
X11512682Y-11982888D01*
X11512682Y-11982888D02*
X11503158Y-12001936D01*
X11503158Y-12001936D02*
X11493634Y-12011460D01*
X11493634Y-12011460D02*
X11474586Y-12020984D01*
X11474586Y-12020984D02*
X11455539Y-12020984D01*
X11455539Y-12020984D02*
X11436491Y-12011460D01*
X11436491Y-12011460D02*
X11426967Y-12001936D01*
X11426967Y-12001936D02*
X11417443Y-11982888D01*
X11417443Y-11982888D02*
X11407920Y-11944793D01*
X11407920Y-11944793D02*
X11407920Y-11897174D01*
X11407920Y-11897174D02*
X11417443Y-11859079D01*
X11417443Y-11859079D02*
X11426967Y-11840031D01*
X11426967Y-11840031D02*
X11436491Y-11830508D01*
X11436491Y-11830508D02*
X11455539Y-11820984D01*
X11607920Y-12020984D02*
X11607920Y-11887650D01*
X11607920Y-11906698D02*
X11617443Y-11897174D01*
X11617443Y-11897174D02*
X11636491Y-11887650D01*
X11636491Y-11887650D02*
X11665063Y-11887650D01*
X11665063Y-11887650D02*
X11684110Y-11897174D01*
X11684110Y-11897174D02*
X11693634Y-11916222D01*
X11693634Y-11916222D02*
X11693634Y-12020984D01*
X11693634Y-11916222D02*
X11703158Y-11897174D01*
X11703158Y-11897174D02*
X11722205Y-11887650D01*
X11722205Y-11887650D02*
X11750777Y-11887650D01*
X11750777Y-11887650D02*
X11769824Y-11897174D01*
X11769824Y-11897174D02*
X11779348Y-11916222D01*
X11779348Y-11916222D02*
X11779348Y-12020984D01*
X11874586Y-12020984D02*
X11874586Y-11887650D01*
X11874586Y-11906698D02*
X11884110Y-11897174D01*
X11884110Y-11897174D02*
X11903158Y-11887650D01*
X11903158Y-11887650D02*
X11931729Y-11887650D01*
X11931729Y-11887650D02*
X11950777Y-11897174D01*
X11950777Y-11897174D02*
X11960301Y-11916222D01*
X11960301Y-11916222D02*
X11960301Y-12020984D01*
X11960301Y-11916222D02*
X11969824Y-11897174D01*
X11969824Y-11897174D02*
X11988872Y-11887650D01*
X11988872Y-11887650D02*
X12017443Y-11887650D01*
X12017443Y-11887650D02*
X12036491Y-11897174D01*
X12036491Y-11897174D02*
X12046015Y-11916222D01*
X12046015Y-11916222D02*
X12046015Y-12020984D01*
X12436491Y-11811460D02*
X12265063Y-12068603D01*
X12693634Y-11820984D02*
X12712682Y-11820984D01*
X12712682Y-11820984D02*
X12731729Y-11830508D01*
X12731729Y-11830508D02*
X12741253Y-11840031D01*
X12741253Y-11840031D02*
X12750777Y-11859079D01*
X12750777Y-11859079D02*
X12760301Y-11897174D01*
X12760301Y-11897174D02*
X12760301Y-11944793D01*
X12760301Y-11944793D02*
X12750777Y-11982888D01*
X12750777Y-11982888D02*
X12741253Y-12001936D01*
X12741253Y-12001936D02*
X12731729Y-12011460D01*
X12731729Y-12011460D02*
X12712682Y-12020984D01*
X12712682Y-12020984D02*
X12693634Y-12020984D01*
X12693634Y-12020984D02*
X12674586Y-12011460D01*
X12674586Y-12011460D02*
X12665063Y-12001936D01*
X12665063Y-12001936D02*
X12655539Y-11982888D01*
X12655539Y-11982888D02*
X12646015Y-11944793D01*
X12646015Y-11944793D02*
X12646015Y-11897174D01*
X12646015Y-11897174D02*
X12655539Y-11859079D01*
X12655539Y-11859079D02*
X12665063Y-11840031D01*
X12665063Y-11840031D02*
X12674586Y-11830508D01*
X12674586Y-11830508D02*
X12693634Y-11820984D01*
X12846015Y-12001936D02*
X12855539Y-12011460D01*
X12855539Y-12011460D02*
X12846015Y-12020984D01*
X12846015Y-12020984D02*
X12836491Y-12011460D01*
X12836491Y-12011460D02*
X12846015Y-12001936D01*
X12846015Y-12001936D02*
X12846015Y-12020984D01*
X12979348Y-11820984D02*
X12998396Y-11820984D01*
X12998396Y-11820984D02*
X13017444Y-11830508D01*
X13017444Y-11830508D02*
X13026967Y-11840031D01*
X13026967Y-11840031D02*
X13036491Y-11859079D01*
X13036491Y-11859079D02*
X13046015Y-11897174D01*
X13046015Y-11897174D02*
X13046015Y-11944793D01*
X13046015Y-11944793D02*
X13036491Y-11982888D01*
X13036491Y-11982888D02*
X13026967Y-12001936D01*
X13026967Y-12001936D02*
X13017444Y-12011460D01*
X13017444Y-12011460D02*
X12998396Y-12020984D01*
X12998396Y-12020984D02*
X12979348Y-12020984D01*
X12979348Y-12020984D02*
X12960301Y-12011460D01*
X12960301Y-12011460D02*
X12950777Y-12001936D01*
X12950777Y-12001936D02*
X12941253Y-11982888D01*
X12941253Y-11982888D02*
X12931729Y-11944793D01*
X12931729Y-11944793D02*
X12931729Y-11897174D01*
X12931729Y-11897174D02*
X12941253Y-11859079D01*
X12941253Y-11859079D02*
X12950777Y-11840031D01*
X12950777Y-11840031D02*
X12960301Y-11830508D01*
X12960301Y-11830508D02*
X12979348Y-11820984D01*
X13112682Y-11820984D02*
X13236491Y-11820984D01*
X13236491Y-11820984D02*
X13169825Y-11897174D01*
X13169825Y-11897174D02*
X13198396Y-11897174D01*
X13198396Y-11897174D02*
X13217444Y-11906698D01*
X13217444Y-11906698D02*
X13226967Y-11916222D01*
X13226967Y-11916222D02*
X13236491Y-11935269D01*
X13236491Y-11935269D02*
X13236491Y-11982888D01*
X13236491Y-11982888D02*
X13226967Y-12001936D01*
X13226967Y-12001936D02*
X13217444Y-12011460D01*
X13217444Y-12011460D02*
X13198396Y-12020984D01*
X13198396Y-12020984D02*
X13141253Y-12020984D01*
X13141253Y-12020984D02*
X13122206Y-12011460D01*
X13122206Y-12011460D02*
X13112682Y-12001936D01*
X13331729Y-12020984D02*
X13369825Y-12020984D01*
X13369825Y-12020984D02*
X13388872Y-12011460D01*
X13388872Y-12011460D02*
X13398396Y-12001936D01*
X13398396Y-12001936D02*
X13417444Y-11973365D01*
X13417444Y-11973365D02*
X13426967Y-11935269D01*
X13426967Y-11935269D02*
X13426967Y-11859079D01*
X13426967Y-11859079D02*
X13417444Y-11840031D01*
X13417444Y-11840031D02*
X13407920Y-11830508D01*
X13407920Y-11830508D02*
X13388872Y-11820984D01*
X13388872Y-11820984D02*
X13350777Y-11820984D01*
X13350777Y-11820984D02*
X13331729Y-11830508D01*
X13331729Y-11830508D02*
X13322206Y-11840031D01*
X13322206Y-11840031D02*
X13312682Y-11859079D01*
X13312682Y-11859079D02*
X13312682Y-11906698D01*
X13312682Y-11906698D02*
X13322206Y-11925746D01*
X13322206Y-11925746D02*
X13331729Y-11935269D01*
X13331729Y-11935269D02*
X13350777Y-11944793D01*
X13350777Y-11944793D02*
X13388872Y-11944793D01*
X13388872Y-11944793D02*
X13407920Y-11935269D01*
X13407920Y-11935269D02*
X13417444Y-11925746D01*
X13417444Y-11925746D02*
X13426967Y-11906698D01*
X13598396Y-11887650D02*
X13598396Y-12020984D01*
X13550777Y-11811460D02*
X13503158Y-11954317D01*
X13503158Y-11954317D02*
X13626967Y-11954317D01*
X13693634Y-11820984D02*
X13693634Y-11859079D01*
X13769825Y-11820984D02*
X13769825Y-11859079D01*
X14065063Y-12097174D02*
X14055539Y-12087650D01*
X14055539Y-12087650D02*
X14036491Y-12059079D01*
X14036491Y-12059079D02*
X14026968Y-12040031D01*
X14026968Y-12040031D02*
X14017444Y-12011460D01*
X14017444Y-12011460D02*
X14007920Y-11963841D01*
X14007920Y-11963841D02*
X14007920Y-11925746D01*
X14007920Y-11925746D02*
X14017444Y-11878127D01*
X14017444Y-11878127D02*
X14026968Y-11849555D01*
X14026968Y-11849555D02*
X14036491Y-11830508D01*
X14036491Y-11830508D02*
X14055539Y-11801936D01*
X14055539Y-11801936D02*
X14065063Y-11792412D01*
X14236491Y-11820984D02*
X14141253Y-11820984D01*
X14141253Y-11820984D02*
X14131729Y-11916222D01*
X14131729Y-11916222D02*
X14141253Y-11906698D01*
X14141253Y-11906698D02*
X14160301Y-11897174D01*
X14160301Y-11897174D02*
X14207920Y-11897174D01*
X14207920Y-11897174D02*
X14226968Y-11906698D01*
X14226968Y-11906698D02*
X14236491Y-11916222D01*
X14236491Y-11916222D02*
X14246015Y-11935269D01*
X14246015Y-11935269D02*
X14246015Y-11982888D01*
X14246015Y-11982888D02*
X14236491Y-12001936D01*
X14236491Y-12001936D02*
X14226968Y-12011460D01*
X14226968Y-12011460D02*
X14207920Y-12020984D01*
X14207920Y-12020984D02*
X14160301Y-12020984D01*
X14160301Y-12020984D02*
X14141253Y-12011460D01*
X14141253Y-12011460D02*
X14131729Y-12001936D01*
X14484110Y-12020984D02*
X14484110Y-11820984D01*
X14569825Y-12020984D02*
X14569825Y-11916222D01*
X14569825Y-11916222D02*
X14560301Y-11897174D01*
X14560301Y-11897174D02*
X14541253Y-11887650D01*
X14541253Y-11887650D02*
X14512682Y-11887650D01*
X14512682Y-11887650D02*
X14493634Y-11897174D01*
X14493634Y-11897174D02*
X14484110Y-11906698D01*
X14693634Y-12020984D02*
X14674587Y-12011460D01*
X14674587Y-12011460D02*
X14665063Y-12001936D01*
X14665063Y-12001936D02*
X14655539Y-11982888D01*
X14655539Y-11982888D02*
X14655539Y-11925746D01*
X14655539Y-11925746D02*
X14665063Y-11906698D01*
X14665063Y-11906698D02*
X14674587Y-11897174D01*
X14674587Y-11897174D02*
X14693634Y-11887650D01*
X14693634Y-11887650D02*
X14722206Y-11887650D01*
X14722206Y-11887650D02*
X14741253Y-11897174D01*
X14741253Y-11897174D02*
X14750777Y-11906698D01*
X14750777Y-11906698D02*
X14760301Y-11925746D01*
X14760301Y-11925746D02*
X14760301Y-11982888D01*
X14760301Y-11982888D02*
X14750777Y-12001936D01*
X14750777Y-12001936D02*
X14741253Y-12011460D01*
X14741253Y-12011460D02*
X14722206Y-12020984D01*
X14722206Y-12020984D02*
X14693634Y-12020984D01*
X14874587Y-12020984D02*
X14855539Y-12011460D01*
X14855539Y-12011460D02*
X14846015Y-11992412D01*
X14846015Y-11992412D02*
X14846015Y-11820984D01*
X15026968Y-12011460D02*
X15007920Y-12020984D01*
X15007920Y-12020984D02*
X14969825Y-12020984D01*
X14969825Y-12020984D02*
X14950777Y-12011460D01*
X14950777Y-12011460D02*
X14941253Y-11992412D01*
X14941253Y-11992412D02*
X14941253Y-11916222D01*
X14941253Y-11916222D02*
X14950777Y-11897174D01*
X14950777Y-11897174D02*
X14969825Y-11887650D01*
X14969825Y-11887650D02*
X15007920Y-11887650D01*
X15007920Y-11887650D02*
X15026968Y-11897174D01*
X15026968Y-11897174D02*
X15036491Y-11916222D01*
X15036491Y-11916222D02*
X15036491Y-11935269D01*
X15036491Y-11935269D02*
X14941253Y-11954317D01*
X15112682Y-12011460D02*
X15131730Y-12020984D01*
X15131730Y-12020984D02*
X15169825Y-12020984D01*
X15169825Y-12020984D02*
X15188872Y-12011460D01*
X15188872Y-12011460D02*
X15198396Y-11992412D01*
X15198396Y-11992412D02*
X15198396Y-11982888D01*
X15198396Y-11982888D02*
X15188872Y-11963841D01*
X15188872Y-11963841D02*
X15169825Y-11954317D01*
X15169825Y-11954317D02*
X15141253Y-11954317D01*
X15141253Y-11954317D02*
X15122206Y-11944793D01*
X15122206Y-11944793D02*
X15112682Y-11925746D01*
X15112682Y-11925746D02*
X15112682Y-11916222D01*
X15112682Y-11916222D02*
X15122206Y-11897174D01*
X15122206Y-11897174D02*
X15141253Y-11887650D01*
X15141253Y-11887650D02*
X15169825Y-11887650D01*
X15169825Y-11887650D02*
X15188872Y-11897174D01*
X15265063Y-12097174D02*
X15274587Y-12087650D01*
X15274587Y-12087650D02*
X15293634Y-12059079D01*
X15293634Y-12059079D02*
X15303158Y-12040031D01*
X15303158Y-12040031D02*
X15312682Y-12011460D01*
X15312682Y-12011460D02*
X15322206Y-11963841D01*
X15322206Y-11963841D02*
X15322206Y-11925746D01*
X15322206Y-11925746D02*
X15312682Y-11878127D01*
X15312682Y-11878127D02*
X15303158Y-11849555D01*
X15303158Y-11849555D02*
X15293634Y-11830508D01*
X15293634Y-11830508D02*
X15274587Y-11801936D01*
X15274587Y-11801936D02*
X15265063Y-11792412D01*
D13*
X10435000Y-12248500D02*
X10490000Y-12193500D01*
X10435000Y-12138500D01*
X10380000Y-12193500D01*
X10435000Y-12248500D01*
D11*
X10855539Y-12284984D02*
X10741253Y-12284984D01*
X10798396Y-12284984D02*
X10798396Y-12084984D01*
X10798396Y-12084984D02*
X10779348Y-12113555D01*
X10779348Y-12113555D02*
X10760301Y-12132603D01*
X10760301Y-12132603D02*
X10741253Y-12142127D01*
X10941253Y-12265936D02*
X10950777Y-12275460D01*
X10950777Y-12275460D02*
X10941253Y-12284984D01*
X10941253Y-12284984D02*
X10931729Y-12275460D01*
X10931729Y-12275460D02*
X10941253Y-12265936D01*
X10941253Y-12265936D02*
X10941253Y-12284984D01*
X11141253Y-12284984D02*
X11026967Y-12284984D01*
X11084110Y-12284984D02*
X11084110Y-12084984D01*
X11084110Y-12084984D02*
X11065063Y-12113555D01*
X11065063Y-12113555D02*
X11046015Y-12132603D01*
X11046015Y-12132603D02*
X11026967Y-12142127D01*
X11265062Y-12084984D02*
X11284110Y-12084984D01*
X11284110Y-12084984D02*
X11303158Y-12094508D01*
X11303158Y-12094508D02*
X11312682Y-12104031D01*
X11312682Y-12104031D02*
X11322205Y-12123079D01*
X11322205Y-12123079D02*
X11331729Y-12161174D01*
X11331729Y-12161174D02*
X11331729Y-12208793D01*
X11331729Y-12208793D02*
X11322205Y-12246888D01*
X11322205Y-12246888D02*
X11312682Y-12265936D01*
X11312682Y-12265936D02*
X11303158Y-12275460D01*
X11303158Y-12275460D02*
X11284110Y-12284984D01*
X11284110Y-12284984D02*
X11265062Y-12284984D01*
X11265062Y-12284984D02*
X11246015Y-12275460D01*
X11246015Y-12275460D02*
X11236491Y-12265936D01*
X11236491Y-12265936D02*
X11226967Y-12246888D01*
X11226967Y-12246888D02*
X11217443Y-12208793D01*
X11217443Y-12208793D02*
X11217443Y-12161174D01*
X11217443Y-12161174D02*
X11226967Y-12123079D01*
X11226967Y-12123079D02*
X11236491Y-12104031D01*
X11236491Y-12104031D02*
X11246015Y-12094508D01*
X11246015Y-12094508D02*
X11265062Y-12084984D01*
X11455539Y-12084984D02*
X11474586Y-12084984D01*
X11474586Y-12084984D02*
X11493634Y-12094508D01*
X11493634Y-12094508D02*
X11503158Y-12104031D01*
X11503158Y-12104031D02*
X11512682Y-12123079D01*
X11512682Y-12123079D02*
X11522205Y-12161174D01*
X11522205Y-12161174D02*
X11522205Y-12208793D01*
X11522205Y-12208793D02*
X11512682Y-12246888D01*
X11512682Y-12246888D02*
X11503158Y-12265936D01*
X11503158Y-12265936D02*
X11493634Y-12275460D01*
X11493634Y-12275460D02*
X11474586Y-12284984D01*
X11474586Y-12284984D02*
X11455539Y-12284984D01*
X11455539Y-12284984D02*
X11436491Y-12275460D01*
X11436491Y-12275460D02*
X11426967Y-12265936D01*
X11426967Y-12265936D02*
X11417443Y-12246888D01*
X11417443Y-12246888D02*
X11407920Y-12208793D01*
X11407920Y-12208793D02*
X11407920Y-12161174D01*
X11407920Y-12161174D02*
X11417443Y-12123079D01*
X11417443Y-12123079D02*
X11426967Y-12104031D01*
X11426967Y-12104031D02*
X11436491Y-12094508D01*
X11436491Y-12094508D02*
X11455539Y-12084984D01*
X11607920Y-12284984D02*
X11607920Y-12151650D01*
X11607920Y-12170698D02*
X11617443Y-12161174D01*
X11617443Y-12161174D02*
X11636491Y-12151650D01*
X11636491Y-12151650D02*
X11665063Y-12151650D01*
X11665063Y-12151650D02*
X11684110Y-12161174D01*
X11684110Y-12161174D02*
X11693634Y-12180222D01*
X11693634Y-12180222D02*
X11693634Y-12284984D01*
X11693634Y-12180222D02*
X11703158Y-12161174D01*
X11703158Y-12161174D02*
X11722205Y-12151650D01*
X11722205Y-12151650D02*
X11750777Y-12151650D01*
X11750777Y-12151650D02*
X11769824Y-12161174D01*
X11769824Y-12161174D02*
X11779348Y-12180222D01*
X11779348Y-12180222D02*
X11779348Y-12284984D01*
X11874586Y-12284984D02*
X11874586Y-12151650D01*
X11874586Y-12170698D02*
X11884110Y-12161174D01*
X11884110Y-12161174D02*
X11903158Y-12151650D01*
X11903158Y-12151650D02*
X11931729Y-12151650D01*
X11931729Y-12151650D02*
X11950777Y-12161174D01*
X11950777Y-12161174D02*
X11960301Y-12180222D01*
X11960301Y-12180222D02*
X11960301Y-12284984D01*
X11960301Y-12180222D02*
X11969824Y-12161174D01*
X11969824Y-12161174D02*
X11988872Y-12151650D01*
X11988872Y-12151650D02*
X12017443Y-12151650D01*
X12017443Y-12151650D02*
X12036491Y-12161174D01*
X12036491Y-12161174D02*
X12046015Y-12180222D01*
X12046015Y-12180222D02*
X12046015Y-12284984D01*
X12436491Y-12075460D02*
X12265063Y-12332603D01*
X12693634Y-12084984D02*
X12712682Y-12084984D01*
X12712682Y-12084984D02*
X12731729Y-12094508D01*
X12731729Y-12094508D02*
X12741253Y-12104031D01*
X12741253Y-12104031D02*
X12750777Y-12123079D01*
X12750777Y-12123079D02*
X12760301Y-12161174D01*
X12760301Y-12161174D02*
X12760301Y-12208793D01*
X12760301Y-12208793D02*
X12750777Y-12246888D01*
X12750777Y-12246888D02*
X12741253Y-12265936D01*
X12741253Y-12265936D02*
X12731729Y-12275460D01*
X12731729Y-12275460D02*
X12712682Y-12284984D01*
X12712682Y-12284984D02*
X12693634Y-12284984D01*
X12693634Y-12284984D02*
X12674586Y-12275460D01*
X12674586Y-12275460D02*
X12665063Y-12265936D01*
X12665063Y-12265936D02*
X12655539Y-12246888D01*
X12655539Y-12246888D02*
X12646015Y-12208793D01*
X12646015Y-12208793D02*
X12646015Y-12161174D01*
X12646015Y-12161174D02*
X12655539Y-12123079D01*
X12655539Y-12123079D02*
X12665063Y-12104031D01*
X12665063Y-12104031D02*
X12674586Y-12094508D01*
X12674586Y-12094508D02*
X12693634Y-12084984D01*
X12846015Y-12265936D02*
X12855539Y-12275460D01*
X12855539Y-12275460D02*
X12846015Y-12284984D01*
X12846015Y-12284984D02*
X12836491Y-12275460D01*
X12836491Y-12275460D02*
X12846015Y-12265936D01*
X12846015Y-12265936D02*
X12846015Y-12284984D01*
X12979348Y-12084984D02*
X12998396Y-12084984D01*
X12998396Y-12084984D02*
X13017444Y-12094508D01*
X13017444Y-12094508D02*
X13026967Y-12104031D01*
X13026967Y-12104031D02*
X13036491Y-12123079D01*
X13036491Y-12123079D02*
X13046015Y-12161174D01*
X13046015Y-12161174D02*
X13046015Y-12208793D01*
X13046015Y-12208793D02*
X13036491Y-12246888D01*
X13036491Y-12246888D02*
X13026967Y-12265936D01*
X13026967Y-12265936D02*
X13017444Y-12275460D01*
X13017444Y-12275460D02*
X12998396Y-12284984D01*
X12998396Y-12284984D02*
X12979348Y-12284984D01*
X12979348Y-12284984D02*
X12960301Y-12275460D01*
X12960301Y-12275460D02*
X12950777Y-12265936D01*
X12950777Y-12265936D02*
X12941253Y-12246888D01*
X12941253Y-12246888D02*
X12931729Y-12208793D01*
X12931729Y-12208793D02*
X12931729Y-12161174D01*
X12931729Y-12161174D02*
X12941253Y-12123079D01*
X12941253Y-12123079D02*
X12950777Y-12104031D01*
X12950777Y-12104031D02*
X12960301Y-12094508D01*
X12960301Y-12094508D02*
X12979348Y-12084984D01*
X13217444Y-12151650D02*
X13217444Y-12284984D01*
X13169825Y-12075460D02*
X13122206Y-12218317D01*
X13122206Y-12218317D02*
X13246015Y-12218317D01*
X13303158Y-12084984D02*
X13426967Y-12084984D01*
X13426967Y-12084984D02*
X13360301Y-12161174D01*
X13360301Y-12161174D02*
X13388872Y-12161174D01*
X13388872Y-12161174D02*
X13407920Y-12170698D01*
X13407920Y-12170698D02*
X13417444Y-12180222D01*
X13417444Y-12180222D02*
X13426967Y-12199269D01*
X13426967Y-12199269D02*
X13426967Y-12246888D01*
X13426967Y-12246888D02*
X13417444Y-12265936D01*
X13417444Y-12265936D02*
X13407920Y-12275460D01*
X13407920Y-12275460D02*
X13388872Y-12284984D01*
X13388872Y-12284984D02*
X13331729Y-12284984D01*
X13331729Y-12284984D02*
X13312682Y-12275460D01*
X13312682Y-12275460D02*
X13303158Y-12265936D01*
X13493634Y-12084984D02*
X13617444Y-12084984D01*
X13617444Y-12084984D02*
X13550777Y-12161174D01*
X13550777Y-12161174D02*
X13579348Y-12161174D01*
X13579348Y-12161174D02*
X13598396Y-12170698D01*
X13598396Y-12170698D02*
X13607920Y-12180222D01*
X13607920Y-12180222D02*
X13617444Y-12199269D01*
X13617444Y-12199269D02*
X13617444Y-12246888D01*
X13617444Y-12246888D02*
X13607920Y-12265936D01*
X13607920Y-12265936D02*
X13598396Y-12275460D01*
X13598396Y-12275460D02*
X13579348Y-12284984D01*
X13579348Y-12284984D02*
X13522206Y-12284984D01*
X13522206Y-12284984D02*
X13503158Y-12275460D01*
X13503158Y-12275460D02*
X13493634Y-12265936D01*
X13693634Y-12084984D02*
X13693634Y-12123079D01*
X13769825Y-12084984D02*
X13769825Y-12123079D01*
X14065063Y-12361174D02*
X14055539Y-12351650D01*
X14055539Y-12351650D02*
X14036491Y-12323079D01*
X14036491Y-12323079D02*
X14026968Y-12304031D01*
X14026968Y-12304031D02*
X14017444Y-12275460D01*
X14017444Y-12275460D02*
X14007920Y-12227841D01*
X14007920Y-12227841D02*
X14007920Y-12189746D01*
X14007920Y-12189746D02*
X14017444Y-12142127D01*
X14017444Y-12142127D02*
X14026968Y-12113555D01*
X14026968Y-12113555D02*
X14036491Y-12094508D01*
X14036491Y-12094508D02*
X14055539Y-12065936D01*
X14055539Y-12065936D02*
X14065063Y-12056412D01*
X14226968Y-12084984D02*
X14188872Y-12084984D01*
X14188872Y-12084984D02*
X14169825Y-12094508D01*
X14169825Y-12094508D02*
X14160301Y-12104031D01*
X14160301Y-12104031D02*
X14141253Y-12132603D01*
X14141253Y-12132603D02*
X14131729Y-12170698D01*
X14131729Y-12170698D02*
X14131729Y-12246888D01*
X14131729Y-12246888D02*
X14141253Y-12265936D01*
X14141253Y-12265936D02*
X14150777Y-12275460D01*
X14150777Y-12275460D02*
X14169825Y-12284984D01*
X14169825Y-12284984D02*
X14207920Y-12284984D01*
X14207920Y-12284984D02*
X14226968Y-12275460D01*
X14226968Y-12275460D02*
X14236491Y-12265936D01*
X14236491Y-12265936D02*
X14246015Y-12246888D01*
X14246015Y-12246888D02*
X14246015Y-12199269D01*
X14246015Y-12199269D02*
X14236491Y-12180222D01*
X14236491Y-12180222D02*
X14226968Y-12170698D01*
X14226968Y-12170698D02*
X14207920Y-12161174D01*
X14207920Y-12161174D02*
X14169825Y-12161174D01*
X14169825Y-12161174D02*
X14150777Y-12170698D01*
X14150777Y-12170698D02*
X14141253Y-12180222D01*
X14141253Y-12180222D02*
X14131729Y-12199269D01*
X14484110Y-12284984D02*
X14484110Y-12084984D01*
X14569825Y-12284984D02*
X14569825Y-12180222D01*
X14569825Y-12180222D02*
X14560301Y-12161174D01*
X14560301Y-12161174D02*
X14541253Y-12151650D01*
X14541253Y-12151650D02*
X14512682Y-12151650D01*
X14512682Y-12151650D02*
X14493634Y-12161174D01*
X14493634Y-12161174D02*
X14484110Y-12170698D01*
X14693634Y-12284984D02*
X14674587Y-12275460D01*
X14674587Y-12275460D02*
X14665063Y-12265936D01*
X14665063Y-12265936D02*
X14655539Y-12246888D01*
X14655539Y-12246888D02*
X14655539Y-12189746D01*
X14655539Y-12189746D02*
X14665063Y-12170698D01*
X14665063Y-12170698D02*
X14674587Y-12161174D01*
X14674587Y-12161174D02*
X14693634Y-12151650D01*
X14693634Y-12151650D02*
X14722206Y-12151650D01*
X14722206Y-12151650D02*
X14741253Y-12161174D01*
X14741253Y-12161174D02*
X14750777Y-12170698D01*
X14750777Y-12170698D02*
X14760301Y-12189746D01*
X14760301Y-12189746D02*
X14760301Y-12246888D01*
X14760301Y-12246888D02*
X14750777Y-12265936D01*
X14750777Y-12265936D02*
X14741253Y-12275460D01*
X14741253Y-12275460D02*
X14722206Y-12284984D01*
X14722206Y-12284984D02*
X14693634Y-12284984D01*
X14874587Y-12284984D02*
X14855539Y-12275460D01*
X14855539Y-12275460D02*
X14846015Y-12256412D01*
X14846015Y-12256412D02*
X14846015Y-12084984D01*
X15026968Y-12275460D02*
X15007920Y-12284984D01*
X15007920Y-12284984D02*
X14969825Y-12284984D01*
X14969825Y-12284984D02*
X14950777Y-12275460D01*
X14950777Y-12275460D02*
X14941253Y-12256412D01*
X14941253Y-12256412D02*
X14941253Y-12180222D01*
X14941253Y-12180222D02*
X14950777Y-12161174D01*
X14950777Y-12161174D02*
X14969825Y-12151650D01*
X14969825Y-12151650D02*
X15007920Y-12151650D01*
X15007920Y-12151650D02*
X15026968Y-12161174D01*
X15026968Y-12161174D02*
X15036491Y-12180222D01*
X15036491Y-12180222D02*
X15036491Y-12199269D01*
X15036491Y-12199269D02*
X14941253Y-12218317D01*
X15112682Y-12275460D02*
X15131730Y-12284984D01*
X15131730Y-12284984D02*
X15169825Y-12284984D01*
X15169825Y-12284984D02*
X15188872Y-12275460D01*
X15188872Y-12275460D02*
X15198396Y-12256412D01*
X15198396Y-12256412D02*
X15198396Y-12246888D01*
X15198396Y-12246888D02*
X15188872Y-12227841D01*
X15188872Y-12227841D02*
X15169825Y-12218317D01*
X15169825Y-12218317D02*
X15141253Y-12218317D01*
X15141253Y-12218317D02*
X15122206Y-12208793D01*
X15122206Y-12208793D02*
X15112682Y-12189746D01*
X15112682Y-12189746D02*
X15112682Y-12180222D01*
X15112682Y-12180222D02*
X15122206Y-12161174D01*
X15122206Y-12161174D02*
X15141253Y-12151650D01*
X15141253Y-12151650D02*
X15169825Y-12151650D01*
X15169825Y-12151650D02*
X15188872Y-12161174D01*
X15265063Y-12361174D02*
X15274587Y-12351650D01*
X15274587Y-12351650D02*
X15293634Y-12323079D01*
X15293634Y-12323079D02*
X15303158Y-12304031D01*
X15303158Y-12304031D02*
X15312682Y-12275460D01*
X15312682Y-12275460D02*
X15322206Y-12227841D01*
X15322206Y-12227841D02*
X15322206Y-12189746D01*
X15322206Y-12189746D02*
X15312682Y-12142127D01*
X15312682Y-12142127D02*
X15303158Y-12113555D01*
X15303158Y-12113555D02*
X15293634Y-12094508D01*
X15293634Y-12094508D02*
X15274587Y-12065936D01*
X15274587Y-12065936D02*
X15265063Y-12056412D01*
X10290000Y-12357500D02*
X10490000Y-12557500D01*
X10490000Y-12357500D02*
X10290000Y-12557500D01*
X10490000Y-12457500D02*
G75*
G02*
X10290000Y-12457500I-100000J0D01*
G01*
X10290000Y-12457500D02*
G75*
G02*
X10490000Y-12457500I100000J0D01*
G01*
X10741253Y-12368031D02*
X10750777Y-12358508D01*
X10750777Y-12358508D02*
X10769824Y-12348984D01*
X10769824Y-12348984D02*
X10817444Y-12348984D01*
X10817444Y-12348984D02*
X10836491Y-12358508D01*
X10836491Y-12358508D02*
X10846015Y-12368031D01*
X10846015Y-12368031D02*
X10855539Y-12387079D01*
X10855539Y-12387079D02*
X10855539Y-12406127D01*
X10855539Y-12406127D02*
X10846015Y-12434698D01*
X10846015Y-12434698D02*
X10731729Y-12548984D01*
X10731729Y-12548984D02*
X10855539Y-12548984D01*
X10941253Y-12529936D02*
X10950777Y-12539460D01*
X10950777Y-12539460D02*
X10941253Y-12548984D01*
X10941253Y-12548984D02*
X10931729Y-12539460D01*
X10931729Y-12539460D02*
X10941253Y-12529936D01*
X10941253Y-12529936D02*
X10941253Y-12548984D01*
X11074586Y-12348984D02*
X11093634Y-12348984D01*
X11093634Y-12348984D02*
X11112682Y-12358508D01*
X11112682Y-12358508D02*
X11122205Y-12368031D01*
X11122205Y-12368031D02*
X11131729Y-12387079D01*
X11131729Y-12387079D02*
X11141253Y-12425174D01*
X11141253Y-12425174D02*
X11141253Y-12472793D01*
X11141253Y-12472793D02*
X11131729Y-12510888D01*
X11131729Y-12510888D02*
X11122205Y-12529936D01*
X11122205Y-12529936D02*
X11112682Y-12539460D01*
X11112682Y-12539460D02*
X11093634Y-12548984D01*
X11093634Y-12548984D02*
X11074586Y-12548984D01*
X11074586Y-12548984D02*
X11055539Y-12539460D01*
X11055539Y-12539460D02*
X11046015Y-12529936D01*
X11046015Y-12529936D02*
X11036491Y-12510888D01*
X11036491Y-12510888D02*
X11026967Y-12472793D01*
X11026967Y-12472793D02*
X11026967Y-12425174D01*
X11026967Y-12425174D02*
X11036491Y-12387079D01*
X11036491Y-12387079D02*
X11046015Y-12368031D01*
X11046015Y-12368031D02*
X11055539Y-12358508D01*
X11055539Y-12358508D02*
X11074586Y-12348984D01*
X11265062Y-12348984D02*
X11284110Y-12348984D01*
X11284110Y-12348984D02*
X11303158Y-12358508D01*
X11303158Y-12358508D02*
X11312682Y-12368031D01*
X11312682Y-12368031D02*
X11322205Y-12387079D01*
X11322205Y-12387079D02*
X11331729Y-12425174D01*
X11331729Y-12425174D02*
X11331729Y-12472793D01*
X11331729Y-12472793D02*
X11322205Y-12510888D01*
X11322205Y-12510888D02*
X11312682Y-12529936D01*
X11312682Y-12529936D02*
X11303158Y-12539460D01*
X11303158Y-12539460D02*
X11284110Y-12548984D01*
X11284110Y-12548984D02*
X11265062Y-12548984D01*
X11265062Y-12548984D02*
X11246015Y-12539460D01*
X11246015Y-12539460D02*
X11236491Y-12529936D01*
X11236491Y-12529936D02*
X11226967Y-12510888D01*
X11226967Y-12510888D02*
X11217443Y-12472793D01*
X11217443Y-12472793D02*
X11217443Y-12425174D01*
X11217443Y-12425174D02*
X11226967Y-12387079D01*
X11226967Y-12387079D02*
X11236491Y-12368031D01*
X11236491Y-12368031D02*
X11246015Y-12358508D01*
X11246015Y-12358508D02*
X11265062Y-12348984D01*
X11455539Y-12348984D02*
X11474586Y-12348984D01*
X11474586Y-12348984D02*
X11493634Y-12358508D01*
X11493634Y-12358508D02*
X11503158Y-12368031D01*
X11503158Y-12368031D02*
X11512682Y-12387079D01*
X11512682Y-12387079D02*
X11522205Y-12425174D01*
X11522205Y-12425174D02*
X11522205Y-12472793D01*
X11522205Y-12472793D02*
X11512682Y-12510888D01*
X11512682Y-12510888D02*
X11503158Y-12529936D01*
X11503158Y-12529936D02*
X11493634Y-12539460D01*
X11493634Y-12539460D02*
X11474586Y-12548984D01*
X11474586Y-12548984D02*
X11455539Y-12548984D01*
X11455539Y-12548984D02*
X11436491Y-12539460D01*
X11436491Y-12539460D02*
X11426967Y-12529936D01*
X11426967Y-12529936D02*
X11417443Y-12510888D01*
X11417443Y-12510888D02*
X11407920Y-12472793D01*
X11407920Y-12472793D02*
X11407920Y-12425174D01*
X11407920Y-12425174D02*
X11417443Y-12387079D01*
X11417443Y-12387079D02*
X11426967Y-12368031D01*
X11426967Y-12368031D02*
X11436491Y-12358508D01*
X11436491Y-12358508D02*
X11455539Y-12348984D01*
X11607920Y-12548984D02*
X11607920Y-12415650D01*
X11607920Y-12434698D02*
X11617443Y-12425174D01*
X11617443Y-12425174D02*
X11636491Y-12415650D01*
X11636491Y-12415650D02*
X11665063Y-12415650D01*
X11665063Y-12415650D02*
X11684110Y-12425174D01*
X11684110Y-12425174D02*
X11693634Y-12444222D01*
X11693634Y-12444222D02*
X11693634Y-12548984D01*
X11693634Y-12444222D02*
X11703158Y-12425174D01*
X11703158Y-12425174D02*
X11722205Y-12415650D01*
X11722205Y-12415650D02*
X11750777Y-12415650D01*
X11750777Y-12415650D02*
X11769824Y-12425174D01*
X11769824Y-12425174D02*
X11779348Y-12444222D01*
X11779348Y-12444222D02*
X11779348Y-12548984D01*
X11874586Y-12548984D02*
X11874586Y-12415650D01*
X11874586Y-12434698D02*
X11884110Y-12425174D01*
X11884110Y-12425174D02*
X11903158Y-12415650D01*
X11903158Y-12415650D02*
X11931729Y-12415650D01*
X11931729Y-12415650D02*
X11950777Y-12425174D01*
X11950777Y-12425174D02*
X11960301Y-12444222D01*
X11960301Y-12444222D02*
X11960301Y-12548984D01*
X11960301Y-12444222D02*
X11969824Y-12425174D01*
X11969824Y-12425174D02*
X11988872Y-12415650D01*
X11988872Y-12415650D02*
X12017443Y-12415650D01*
X12017443Y-12415650D02*
X12036491Y-12425174D01*
X12036491Y-12425174D02*
X12046015Y-12444222D01*
X12046015Y-12444222D02*
X12046015Y-12548984D01*
X12436491Y-12339460D02*
X12265063Y-12596603D01*
X12693634Y-12348984D02*
X12712682Y-12348984D01*
X12712682Y-12348984D02*
X12731729Y-12358508D01*
X12731729Y-12358508D02*
X12741253Y-12368031D01*
X12741253Y-12368031D02*
X12750777Y-12387079D01*
X12750777Y-12387079D02*
X12760301Y-12425174D01*
X12760301Y-12425174D02*
X12760301Y-12472793D01*
X12760301Y-12472793D02*
X12750777Y-12510888D01*
X12750777Y-12510888D02*
X12741253Y-12529936D01*
X12741253Y-12529936D02*
X12731729Y-12539460D01*
X12731729Y-12539460D02*
X12712682Y-12548984D01*
X12712682Y-12548984D02*
X12693634Y-12548984D01*
X12693634Y-12548984D02*
X12674586Y-12539460D01*
X12674586Y-12539460D02*
X12665063Y-12529936D01*
X12665063Y-12529936D02*
X12655539Y-12510888D01*
X12655539Y-12510888D02*
X12646015Y-12472793D01*
X12646015Y-12472793D02*
X12646015Y-12425174D01*
X12646015Y-12425174D02*
X12655539Y-12387079D01*
X12655539Y-12387079D02*
X12665063Y-12368031D01*
X12665063Y-12368031D02*
X12674586Y-12358508D01*
X12674586Y-12358508D02*
X12693634Y-12348984D01*
X12846015Y-12529936D02*
X12855539Y-12539460D01*
X12855539Y-12539460D02*
X12846015Y-12548984D01*
X12846015Y-12548984D02*
X12836491Y-12539460D01*
X12836491Y-12539460D02*
X12846015Y-12529936D01*
X12846015Y-12529936D02*
X12846015Y-12548984D01*
X12979348Y-12348984D02*
X12998396Y-12348984D01*
X12998396Y-12348984D02*
X13017444Y-12358508D01*
X13017444Y-12358508D02*
X13026967Y-12368031D01*
X13026967Y-12368031D02*
X13036491Y-12387079D01*
X13036491Y-12387079D02*
X13046015Y-12425174D01*
X13046015Y-12425174D02*
X13046015Y-12472793D01*
X13046015Y-12472793D02*
X13036491Y-12510888D01*
X13036491Y-12510888D02*
X13026967Y-12529936D01*
X13026967Y-12529936D02*
X13017444Y-12539460D01*
X13017444Y-12539460D02*
X12998396Y-12548984D01*
X12998396Y-12548984D02*
X12979348Y-12548984D01*
X12979348Y-12548984D02*
X12960301Y-12539460D01*
X12960301Y-12539460D02*
X12950777Y-12529936D01*
X12950777Y-12529936D02*
X12941253Y-12510888D01*
X12941253Y-12510888D02*
X12931729Y-12472793D01*
X12931729Y-12472793D02*
X12931729Y-12425174D01*
X12931729Y-12425174D02*
X12941253Y-12387079D01*
X12941253Y-12387079D02*
X12950777Y-12368031D01*
X12950777Y-12368031D02*
X12960301Y-12358508D01*
X12960301Y-12358508D02*
X12979348Y-12348984D01*
X13112682Y-12348984D02*
X13246015Y-12348984D01*
X13246015Y-12348984D02*
X13160301Y-12548984D01*
X13350777Y-12434698D02*
X13331729Y-12425174D01*
X13331729Y-12425174D02*
X13322206Y-12415650D01*
X13322206Y-12415650D02*
X13312682Y-12396603D01*
X13312682Y-12396603D02*
X13312682Y-12387079D01*
X13312682Y-12387079D02*
X13322206Y-12368031D01*
X13322206Y-12368031D02*
X13331729Y-12358508D01*
X13331729Y-12358508D02*
X13350777Y-12348984D01*
X13350777Y-12348984D02*
X13388872Y-12348984D01*
X13388872Y-12348984D02*
X13407920Y-12358508D01*
X13407920Y-12358508D02*
X13417444Y-12368031D01*
X13417444Y-12368031D02*
X13426967Y-12387079D01*
X13426967Y-12387079D02*
X13426967Y-12396603D01*
X13426967Y-12396603D02*
X13417444Y-12415650D01*
X13417444Y-12415650D02*
X13407920Y-12425174D01*
X13407920Y-12425174D02*
X13388872Y-12434698D01*
X13388872Y-12434698D02*
X13350777Y-12434698D01*
X13350777Y-12434698D02*
X13331729Y-12444222D01*
X13331729Y-12444222D02*
X13322206Y-12453746D01*
X13322206Y-12453746D02*
X13312682Y-12472793D01*
X13312682Y-12472793D02*
X13312682Y-12510888D01*
X13312682Y-12510888D02*
X13322206Y-12529936D01*
X13322206Y-12529936D02*
X13331729Y-12539460D01*
X13331729Y-12539460D02*
X13350777Y-12548984D01*
X13350777Y-12548984D02*
X13388872Y-12548984D01*
X13388872Y-12548984D02*
X13407920Y-12539460D01*
X13407920Y-12539460D02*
X13417444Y-12529936D01*
X13417444Y-12529936D02*
X13426967Y-12510888D01*
X13426967Y-12510888D02*
X13426967Y-12472793D01*
X13426967Y-12472793D02*
X13417444Y-12453746D01*
X13417444Y-12453746D02*
X13407920Y-12444222D01*
X13407920Y-12444222D02*
X13388872Y-12434698D01*
X13493634Y-12348984D02*
X13626967Y-12348984D01*
X13626967Y-12348984D02*
X13541253Y-12548984D01*
X13693634Y-12348984D02*
X13693634Y-12387079D01*
X13769825Y-12348984D02*
X13769825Y-12387079D01*
X14065063Y-12625174D02*
X14055539Y-12615650D01*
X14055539Y-12615650D02*
X14036491Y-12587079D01*
X14036491Y-12587079D02*
X14026968Y-12568031D01*
X14026968Y-12568031D02*
X14017444Y-12539460D01*
X14017444Y-12539460D02*
X14007920Y-12491841D01*
X14007920Y-12491841D02*
X14007920Y-12453746D01*
X14007920Y-12453746D02*
X14017444Y-12406127D01*
X14017444Y-12406127D02*
X14026968Y-12377555D01*
X14026968Y-12377555D02*
X14036491Y-12358508D01*
X14036491Y-12358508D02*
X14055539Y-12329936D01*
X14055539Y-12329936D02*
X14065063Y-12320412D01*
X14131729Y-12368031D02*
X14141253Y-12358508D01*
X14141253Y-12358508D02*
X14160301Y-12348984D01*
X14160301Y-12348984D02*
X14207920Y-12348984D01*
X14207920Y-12348984D02*
X14226968Y-12358508D01*
X14226968Y-12358508D02*
X14236491Y-12368031D01*
X14236491Y-12368031D02*
X14246015Y-12387079D01*
X14246015Y-12387079D02*
X14246015Y-12406127D01*
X14246015Y-12406127D02*
X14236491Y-12434698D01*
X14236491Y-12434698D02*
X14122206Y-12548984D01*
X14122206Y-12548984D02*
X14246015Y-12548984D01*
X14484110Y-12548984D02*
X14484110Y-12348984D01*
X14569825Y-12548984D02*
X14569825Y-12444222D01*
X14569825Y-12444222D02*
X14560301Y-12425174D01*
X14560301Y-12425174D02*
X14541253Y-12415650D01*
X14541253Y-12415650D02*
X14512682Y-12415650D01*
X14512682Y-12415650D02*
X14493634Y-12425174D01*
X14493634Y-12425174D02*
X14484110Y-12434698D01*
X14693634Y-12548984D02*
X14674587Y-12539460D01*
X14674587Y-12539460D02*
X14665063Y-12529936D01*
X14665063Y-12529936D02*
X14655539Y-12510888D01*
X14655539Y-12510888D02*
X14655539Y-12453746D01*
X14655539Y-12453746D02*
X14665063Y-12434698D01*
X14665063Y-12434698D02*
X14674587Y-12425174D01*
X14674587Y-12425174D02*
X14693634Y-12415650D01*
X14693634Y-12415650D02*
X14722206Y-12415650D01*
X14722206Y-12415650D02*
X14741253Y-12425174D01*
X14741253Y-12425174D02*
X14750777Y-12434698D01*
X14750777Y-12434698D02*
X14760301Y-12453746D01*
X14760301Y-12453746D02*
X14760301Y-12510888D01*
X14760301Y-12510888D02*
X14750777Y-12529936D01*
X14750777Y-12529936D02*
X14741253Y-12539460D01*
X14741253Y-12539460D02*
X14722206Y-12548984D01*
X14722206Y-12548984D02*
X14693634Y-12548984D01*
X14874587Y-12548984D02*
X14855539Y-12539460D01*
X14855539Y-12539460D02*
X14846015Y-12520412D01*
X14846015Y-12520412D02*
X14846015Y-12348984D01*
X15026968Y-12539460D02*
X15007920Y-12548984D01*
X15007920Y-12548984D02*
X14969825Y-12548984D01*
X14969825Y-12548984D02*
X14950777Y-12539460D01*
X14950777Y-12539460D02*
X14941253Y-12520412D01*
X14941253Y-12520412D02*
X14941253Y-12444222D01*
X14941253Y-12444222D02*
X14950777Y-12425174D01*
X14950777Y-12425174D02*
X14969825Y-12415650D01*
X14969825Y-12415650D02*
X15007920Y-12415650D01*
X15007920Y-12415650D02*
X15026968Y-12425174D01*
X15026968Y-12425174D02*
X15036491Y-12444222D01*
X15036491Y-12444222D02*
X15036491Y-12463269D01*
X15036491Y-12463269D02*
X14941253Y-12482317D01*
X15112682Y-12539460D02*
X15131730Y-12548984D01*
X15131730Y-12548984D02*
X15169825Y-12548984D01*
X15169825Y-12548984D02*
X15188872Y-12539460D01*
X15188872Y-12539460D02*
X15198396Y-12520412D01*
X15198396Y-12520412D02*
X15198396Y-12510888D01*
X15198396Y-12510888D02*
X15188872Y-12491841D01*
X15188872Y-12491841D02*
X15169825Y-12482317D01*
X15169825Y-12482317D02*
X15141253Y-12482317D01*
X15141253Y-12482317D02*
X15122206Y-12472793D01*
X15122206Y-12472793D02*
X15112682Y-12453746D01*
X15112682Y-12453746D02*
X15112682Y-12444222D01*
X15112682Y-12444222D02*
X15122206Y-12425174D01*
X15122206Y-12425174D02*
X15141253Y-12415650D01*
X15141253Y-12415650D02*
X15169825Y-12415650D01*
X15169825Y-12415650D02*
X15188872Y-12425174D01*
X15265063Y-12625174D02*
X15274587Y-12615650D01*
X15274587Y-12615650D02*
X15293634Y-12587079D01*
X15293634Y-12587079D02*
X15303158Y-12568031D01*
X15303158Y-12568031D02*
X15312682Y-12539460D01*
X15312682Y-12539460D02*
X15322206Y-12491841D01*
X15322206Y-12491841D02*
X15322206Y-12453746D01*
X15322206Y-12453746D02*
X15312682Y-12406127D01*
X15312682Y-12406127D02*
X15303158Y-12377555D01*
X15303158Y-12377555D02*
X15293634Y-12358508D01*
X15293634Y-12358508D02*
X15274587Y-12329936D01*
X15274587Y-12329936D02*
X15265063Y-12320412D01*
X10290000Y-12677500D02*
X10490000Y-12877500D01*
X10490000Y-12677500D02*
X10290000Y-12877500D01*
X10390000Y-12677500D02*
X10390000Y-12877500D01*
X10290000Y-12777500D02*
X10490000Y-12777500D01*
X10731729Y-12668984D02*
X10855539Y-12668984D01*
X10855539Y-12668984D02*
X10788872Y-12745174D01*
X10788872Y-12745174D02*
X10817444Y-12745174D01*
X10817444Y-12745174D02*
X10836491Y-12754698D01*
X10836491Y-12754698D02*
X10846015Y-12764222D01*
X10846015Y-12764222D02*
X10855539Y-12783269D01*
X10855539Y-12783269D02*
X10855539Y-12830888D01*
X10855539Y-12830888D02*
X10846015Y-12849936D01*
X10846015Y-12849936D02*
X10836491Y-12859460D01*
X10836491Y-12859460D02*
X10817444Y-12868984D01*
X10817444Y-12868984D02*
X10760301Y-12868984D01*
X10760301Y-12868984D02*
X10741253Y-12859460D01*
X10741253Y-12859460D02*
X10731729Y-12849936D01*
X10941253Y-12849936D02*
X10950777Y-12859460D01*
X10950777Y-12859460D02*
X10941253Y-12868984D01*
X10941253Y-12868984D02*
X10931729Y-12859460D01*
X10931729Y-12859460D02*
X10941253Y-12849936D01*
X10941253Y-12849936D02*
X10941253Y-12868984D01*
X11026967Y-12688031D02*
X11036491Y-12678508D01*
X11036491Y-12678508D02*
X11055539Y-12668984D01*
X11055539Y-12668984D02*
X11103158Y-12668984D01*
X11103158Y-12668984D02*
X11122205Y-12678508D01*
X11122205Y-12678508D02*
X11131729Y-12688031D01*
X11131729Y-12688031D02*
X11141253Y-12707079D01*
X11141253Y-12707079D02*
X11141253Y-12726127D01*
X11141253Y-12726127D02*
X11131729Y-12754698D01*
X11131729Y-12754698D02*
X11017444Y-12868984D01*
X11017444Y-12868984D02*
X11141253Y-12868984D01*
X11265062Y-12668984D02*
X11284110Y-12668984D01*
X11284110Y-12668984D02*
X11303158Y-12678508D01*
X11303158Y-12678508D02*
X11312682Y-12688031D01*
X11312682Y-12688031D02*
X11322205Y-12707079D01*
X11322205Y-12707079D02*
X11331729Y-12745174D01*
X11331729Y-12745174D02*
X11331729Y-12792793D01*
X11331729Y-12792793D02*
X11322205Y-12830888D01*
X11322205Y-12830888D02*
X11312682Y-12849936D01*
X11312682Y-12849936D02*
X11303158Y-12859460D01*
X11303158Y-12859460D02*
X11284110Y-12868984D01*
X11284110Y-12868984D02*
X11265062Y-12868984D01*
X11265062Y-12868984D02*
X11246015Y-12859460D01*
X11246015Y-12859460D02*
X11236491Y-12849936D01*
X11236491Y-12849936D02*
X11226967Y-12830888D01*
X11226967Y-12830888D02*
X11217443Y-12792793D01*
X11217443Y-12792793D02*
X11217443Y-12745174D01*
X11217443Y-12745174D02*
X11226967Y-12707079D01*
X11226967Y-12707079D02*
X11236491Y-12688031D01*
X11236491Y-12688031D02*
X11246015Y-12678508D01*
X11246015Y-12678508D02*
X11265062Y-12668984D01*
X11455539Y-12668984D02*
X11474586Y-12668984D01*
X11474586Y-12668984D02*
X11493634Y-12678508D01*
X11493634Y-12678508D02*
X11503158Y-12688031D01*
X11503158Y-12688031D02*
X11512682Y-12707079D01*
X11512682Y-12707079D02*
X11522205Y-12745174D01*
X11522205Y-12745174D02*
X11522205Y-12792793D01*
X11522205Y-12792793D02*
X11512682Y-12830888D01*
X11512682Y-12830888D02*
X11503158Y-12849936D01*
X11503158Y-12849936D02*
X11493634Y-12859460D01*
X11493634Y-12859460D02*
X11474586Y-12868984D01*
X11474586Y-12868984D02*
X11455539Y-12868984D01*
X11455539Y-12868984D02*
X11436491Y-12859460D01*
X11436491Y-12859460D02*
X11426967Y-12849936D01*
X11426967Y-12849936D02*
X11417443Y-12830888D01*
X11417443Y-12830888D02*
X11407920Y-12792793D01*
X11407920Y-12792793D02*
X11407920Y-12745174D01*
X11407920Y-12745174D02*
X11417443Y-12707079D01*
X11417443Y-12707079D02*
X11426967Y-12688031D01*
X11426967Y-12688031D02*
X11436491Y-12678508D01*
X11436491Y-12678508D02*
X11455539Y-12668984D01*
X11607920Y-12868984D02*
X11607920Y-12735650D01*
X11607920Y-12754698D02*
X11617443Y-12745174D01*
X11617443Y-12745174D02*
X11636491Y-12735650D01*
X11636491Y-12735650D02*
X11665063Y-12735650D01*
X11665063Y-12735650D02*
X11684110Y-12745174D01*
X11684110Y-12745174D02*
X11693634Y-12764222D01*
X11693634Y-12764222D02*
X11693634Y-12868984D01*
X11693634Y-12764222D02*
X11703158Y-12745174D01*
X11703158Y-12745174D02*
X11722205Y-12735650D01*
X11722205Y-12735650D02*
X11750777Y-12735650D01*
X11750777Y-12735650D02*
X11769824Y-12745174D01*
X11769824Y-12745174D02*
X11779348Y-12764222D01*
X11779348Y-12764222D02*
X11779348Y-12868984D01*
X11874586Y-12868984D02*
X11874586Y-12735650D01*
X11874586Y-12754698D02*
X11884110Y-12745174D01*
X11884110Y-12745174D02*
X11903158Y-12735650D01*
X11903158Y-12735650D02*
X11931729Y-12735650D01*
X11931729Y-12735650D02*
X11950777Y-12745174D01*
X11950777Y-12745174D02*
X11960301Y-12764222D01*
X11960301Y-12764222D02*
X11960301Y-12868984D01*
X11960301Y-12764222D02*
X11969824Y-12745174D01*
X11969824Y-12745174D02*
X11988872Y-12735650D01*
X11988872Y-12735650D02*
X12017443Y-12735650D01*
X12017443Y-12735650D02*
X12036491Y-12745174D01*
X12036491Y-12745174D02*
X12046015Y-12764222D01*
X12046015Y-12764222D02*
X12046015Y-12868984D01*
X12436491Y-12659460D02*
X12265063Y-12916603D01*
X12693634Y-12668984D02*
X12712682Y-12668984D01*
X12712682Y-12668984D02*
X12731729Y-12678508D01*
X12731729Y-12678508D02*
X12741253Y-12688031D01*
X12741253Y-12688031D02*
X12750777Y-12707079D01*
X12750777Y-12707079D02*
X12760301Y-12745174D01*
X12760301Y-12745174D02*
X12760301Y-12792793D01*
X12760301Y-12792793D02*
X12750777Y-12830888D01*
X12750777Y-12830888D02*
X12741253Y-12849936D01*
X12741253Y-12849936D02*
X12731729Y-12859460D01*
X12731729Y-12859460D02*
X12712682Y-12868984D01*
X12712682Y-12868984D02*
X12693634Y-12868984D01*
X12693634Y-12868984D02*
X12674586Y-12859460D01*
X12674586Y-12859460D02*
X12665063Y-12849936D01*
X12665063Y-12849936D02*
X12655539Y-12830888D01*
X12655539Y-12830888D02*
X12646015Y-12792793D01*
X12646015Y-12792793D02*
X12646015Y-12745174D01*
X12646015Y-12745174D02*
X12655539Y-12707079D01*
X12655539Y-12707079D02*
X12665063Y-12688031D01*
X12665063Y-12688031D02*
X12674586Y-12678508D01*
X12674586Y-12678508D02*
X12693634Y-12668984D01*
X12846015Y-12849936D02*
X12855539Y-12859460D01*
X12855539Y-12859460D02*
X12846015Y-12868984D01*
X12846015Y-12868984D02*
X12836491Y-12859460D01*
X12836491Y-12859460D02*
X12846015Y-12849936D01*
X12846015Y-12849936D02*
X12846015Y-12868984D01*
X13046015Y-12868984D02*
X12931729Y-12868984D01*
X12988872Y-12868984D02*
X12988872Y-12668984D01*
X12988872Y-12668984D02*
X12969825Y-12697555D01*
X12969825Y-12697555D02*
X12950777Y-12716603D01*
X12950777Y-12716603D02*
X12931729Y-12726127D01*
X13122206Y-12688031D02*
X13131729Y-12678508D01*
X13131729Y-12678508D02*
X13150777Y-12668984D01*
X13150777Y-12668984D02*
X13198396Y-12668984D01*
X13198396Y-12668984D02*
X13217444Y-12678508D01*
X13217444Y-12678508D02*
X13226967Y-12688031D01*
X13226967Y-12688031D02*
X13236491Y-12707079D01*
X13236491Y-12707079D02*
X13236491Y-12726127D01*
X13236491Y-12726127D02*
X13226967Y-12754698D01*
X13226967Y-12754698D02*
X13112682Y-12868984D01*
X13112682Y-12868984D02*
X13236491Y-12868984D01*
X13407920Y-12668984D02*
X13369825Y-12668984D01*
X13369825Y-12668984D02*
X13350777Y-12678508D01*
X13350777Y-12678508D02*
X13341253Y-12688031D01*
X13341253Y-12688031D02*
X13322206Y-12716603D01*
X13322206Y-12716603D02*
X13312682Y-12754698D01*
X13312682Y-12754698D02*
X13312682Y-12830888D01*
X13312682Y-12830888D02*
X13322206Y-12849936D01*
X13322206Y-12849936D02*
X13331729Y-12859460D01*
X13331729Y-12859460D02*
X13350777Y-12868984D01*
X13350777Y-12868984D02*
X13388872Y-12868984D01*
X13388872Y-12868984D02*
X13407920Y-12859460D01*
X13407920Y-12859460D02*
X13417444Y-12849936D01*
X13417444Y-12849936D02*
X13426967Y-12830888D01*
X13426967Y-12830888D02*
X13426967Y-12783269D01*
X13426967Y-12783269D02*
X13417444Y-12764222D01*
X13417444Y-12764222D02*
X13407920Y-12754698D01*
X13407920Y-12754698D02*
X13388872Y-12745174D01*
X13388872Y-12745174D02*
X13350777Y-12745174D01*
X13350777Y-12745174D02*
X13331729Y-12754698D01*
X13331729Y-12754698D02*
X13322206Y-12764222D01*
X13322206Y-12764222D02*
X13312682Y-12783269D01*
X13550777Y-12668984D02*
X13569825Y-12668984D01*
X13569825Y-12668984D02*
X13588872Y-12678508D01*
X13588872Y-12678508D02*
X13598396Y-12688031D01*
X13598396Y-12688031D02*
X13607920Y-12707079D01*
X13607920Y-12707079D02*
X13617444Y-12745174D01*
X13617444Y-12745174D02*
X13617444Y-12792793D01*
X13617444Y-12792793D02*
X13607920Y-12830888D01*
X13607920Y-12830888D02*
X13598396Y-12849936D01*
X13598396Y-12849936D02*
X13588872Y-12859460D01*
X13588872Y-12859460D02*
X13569825Y-12868984D01*
X13569825Y-12868984D02*
X13550777Y-12868984D01*
X13550777Y-12868984D02*
X13531729Y-12859460D01*
X13531729Y-12859460D02*
X13522206Y-12849936D01*
X13522206Y-12849936D02*
X13512682Y-12830888D01*
X13512682Y-12830888D02*
X13503158Y-12792793D01*
X13503158Y-12792793D02*
X13503158Y-12745174D01*
X13503158Y-12745174D02*
X13512682Y-12707079D01*
X13512682Y-12707079D02*
X13522206Y-12688031D01*
X13522206Y-12688031D02*
X13531729Y-12678508D01*
X13531729Y-12678508D02*
X13550777Y-12668984D01*
X13693634Y-12668984D02*
X13693634Y-12707079D01*
X13769825Y-12668984D02*
X13769825Y-12707079D01*
X14065063Y-12945174D02*
X14055539Y-12935650D01*
X14055539Y-12935650D02*
X14036491Y-12907079D01*
X14036491Y-12907079D02*
X14026968Y-12888031D01*
X14026968Y-12888031D02*
X14017444Y-12859460D01*
X14017444Y-12859460D02*
X14007920Y-12811841D01*
X14007920Y-12811841D02*
X14007920Y-12773746D01*
X14007920Y-12773746D02*
X14017444Y-12726127D01*
X14017444Y-12726127D02*
X14026968Y-12697555D01*
X14026968Y-12697555D02*
X14036491Y-12678508D01*
X14036491Y-12678508D02*
X14055539Y-12649936D01*
X14055539Y-12649936D02*
X14065063Y-12640412D01*
X14122206Y-12668984D02*
X14246015Y-12668984D01*
X14246015Y-12668984D02*
X14179348Y-12745174D01*
X14179348Y-12745174D02*
X14207920Y-12745174D01*
X14207920Y-12745174D02*
X14226968Y-12754698D01*
X14226968Y-12754698D02*
X14236491Y-12764222D01*
X14236491Y-12764222D02*
X14246015Y-12783269D01*
X14246015Y-12783269D02*
X14246015Y-12830888D01*
X14246015Y-12830888D02*
X14236491Y-12849936D01*
X14236491Y-12849936D02*
X14226968Y-12859460D01*
X14226968Y-12859460D02*
X14207920Y-12868984D01*
X14207920Y-12868984D02*
X14150777Y-12868984D01*
X14150777Y-12868984D02*
X14131729Y-12859460D01*
X14131729Y-12859460D02*
X14122206Y-12849936D01*
X14484110Y-12868984D02*
X14484110Y-12668984D01*
X14569825Y-12868984D02*
X14569825Y-12764222D01*
X14569825Y-12764222D02*
X14560301Y-12745174D01*
X14560301Y-12745174D02*
X14541253Y-12735650D01*
X14541253Y-12735650D02*
X14512682Y-12735650D01*
X14512682Y-12735650D02*
X14493634Y-12745174D01*
X14493634Y-12745174D02*
X14484110Y-12754698D01*
X14693634Y-12868984D02*
X14674587Y-12859460D01*
X14674587Y-12859460D02*
X14665063Y-12849936D01*
X14665063Y-12849936D02*
X14655539Y-12830888D01*
X14655539Y-12830888D02*
X14655539Y-12773746D01*
X14655539Y-12773746D02*
X14665063Y-12754698D01*
X14665063Y-12754698D02*
X14674587Y-12745174D01*
X14674587Y-12745174D02*
X14693634Y-12735650D01*
X14693634Y-12735650D02*
X14722206Y-12735650D01*
X14722206Y-12735650D02*
X14741253Y-12745174D01*
X14741253Y-12745174D02*
X14750777Y-12754698D01*
X14750777Y-12754698D02*
X14760301Y-12773746D01*
X14760301Y-12773746D02*
X14760301Y-12830888D01*
X14760301Y-12830888D02*
X14750777Y-12849936D01*
X14750777Y-12849936D02*
X14741253Y-12859460D01*
X14741253Y-12859460D02*
X14722206Y-12868984D01*
X14722206Y-12868984D02*
X14693634Y-12868984D01*
X14874587Y-12868984D02*
X14855539Y-12859460D01*
X14855539Y-12859460D02*
X14846015Y-12840412D01*
X14846015Y-12840412D02*
X14846015Y-12668984D01*
X15026968Y-12859460D02*
X15007920Y-12868984D01*
X15007920Y-12868984D02*
X14969825Y-12868984D01*
X14969825Y-12868984D02*
X14950777Y-12859460D01*
X14950777Y-12859460D02*
X14941253Y-12840412D01*
X14941253Y-12840412D02*
X14941253Y-12764222D01*
X14941253Y-12764222D02*
X14950777Y-12745174D01*
X14950777Y-12745174D02*
X14969825Y-12735650D01*
X14969825Y-12735650D02*
X15007920Y-12735650D01*
X15007920Y-12735650D02*
X15026968Y-12745174D01*
X15026968Y-12745174D02*
X15036491Y-12764222D01*
X15036491Y-12764222D02*
X15036491Y-12783269D01*
X15036491Y-12783269D02*
X14941253Y-12802317D01*
X15112682Y-12859460D02*
X15131730Y-12868984D01*
X15131730Y-12868984D02*
X15169825Y-12868984D01*
X15169825Y-12868984D02*
X15188872Y-12859460D01*
X15188872Y-12859460D02*
X15198396Y-12840412D01*
X15198396Y-12840412D02*
X15198396Y-12830888D01*
X15198396Y-12830888D02*
X15188872Y-12811841D01*
X15188872Y-12811841D02*
X15169825Y-12802317D01*
X15169825Y-12802317D02*
X15141253Y-12802317D01*
X15141253Y-12802317D02*
X15122206Y-12792793D01*
X15122206Y-12792793D02*
X15112682Y-12773746D01*
X15112682Y-12773746D02*
X15112682Y-12764222D01*
X15112682Y-12764222D02*
X15122206Y-12745174D01*
X15122206Y-12745174D02*
X15141253Y-12735650D01*
X15141253Y-12735650D02*
X15169825Y-12735650D01*
X15169825Y-12735650D02*
X15188872Y-12745174D01*
X15265063Y-12945174D02*
X15274587Y-12935650D01*
X15274587Y-12935650D02*
X15293634Y-12907079D01*
X15293634Y-12907079D02*
X15303158Y-12888031D01*
X15303158Y-12888031D02*
X15312682Y-12859460D01*
X15312682Y-12859460D02*
X15322206Y-12811841D01*
X15322206Y-12811841D02*
X15322206Y-12773746D01*
X15322206Y-12773746D02*
X15312682Y-12726127D01*
X15312682Y-12726127D02*
X15303158Y-12697555D01*
X15303158Y-12697555D02*
X15293634Y-12678508D01*
X15293634Y-12678508D02*
X15274587Y-12649936D01*
X15274587Y-12649936D02*
X15265063Y-12640412D01*
M02*
