M48
; DRILL file {KiCad 8.0.3-8.0.3-0~ubuntu23.10.1} date 2024-11-23T00:09:26-0500
; FORMAT={-:-/ absolute / metric / decimal}
; #@! TF.CreationDate,2024-11-23T00:09:26-05:00
; #@! TF.GenerationSoftware,Kicad,Pcbnew,8.0.3-8.0.3-0~ubuntu23.10.1
; #@! TF.FileFunction,Plated,1,2,PTH
FMAT,2
METRIC
; #@! TA.AperFunction,Plated,PTH,ViaDrill
T1C0.300
; #@! TA.AperFunction,Plated,PTH,ComponentDrill
T2C0.890
; #@! TA.AperFunction,Plated,PTH,ViaDrill
T3C1.000
; #@! TA.AperFunction,Plated,PTH,ComponentDrill
T4C1.000
; #@! TA.AperFunction,Plated,PTH,ComponentDrill
T5C1.100
; #@! TA.AperFunction,Plated,PTH,ComponentDrill
T6C2.000
; #@! TA.AperFunction,Plated,PTH,ComponentDrill
T7C3.200
%
G90
G05
T1
X126.5Y-91.35
X127.375Y-91.35
X127.7Y-82.45
X127.7Y-83.25
X128.225Y-82.85
X129.9Y-101.95
X129.9Y-102.75
X130.425Y-102.35
X130.65Y-72.875
X131.05Y-73.4
X131.45Y-72.875
X134.225Y-101.95
X134.225Y-102.75
X134.75Y-102.35
X151.1Y-72.775
X151.5Y-73.3
X151.9Y-72.775
X162.0Y-100.15
X162.0Y-100.95
X162.525Y-100.55
X163.1Y-72.725
X163.5Y-73.25
X163.9Y-72.725
T2
X171.975Y-68.36
X171.975Y-70.9
T3
X138.45Y-72.875
T4
X108.35Y-95.075
X108.35Y-97.615
X108.35Y-100.155
X145.2Y-85.425
X145.2Y-90.425
T5
X129.16Y-97.655
X131.7Y-97.655
X134.24Y-97.655
X151.1Y-100.425
X153.64Y-100.425
X156.18Y-100.425
T6
X177.055Y-65.82
X177.055Y-75.98
T7
X114.509Y-85.55
X117.309Y-90.35
X120.309Y-85.55
M30
