M48
; DRILL file {KiCad 8.0.3-8.0.3-0~ubuntu23.10.1} date 2025-08-07T12:22:42-0400
; FORMAT={-:-/ absolute / metric / decimal}
; #@! TF.CreationDate,2025-08-07T12:22:42-04:00
; #@! TF.GenerationSoftware,Kicad,Pcbnew,8.0.3-8.0.3-0~ubuntu23.10.1
; #@! TF.FileFunction,Plated,1,2,PTH
FMAT,2
METRIC
; #@! TA.AperFunction,Plated,PTH,ViaDrill
T1C0.300
; #@! TA.AperFunction,Plated,PTH,ComponentDrill
T2C0.750
; #@! TA.AperFunction,Plated,PTH,ComponentDrill
T3C0.890
; #@! TA.AperFunction,Plated,PTH,ComponentDrill
T4C1.000
; #@! TA.AperFunction,Plated,PTH,ComponentDrill
T5C1.100
; #@! TA.AperFunction,Plated,PTH,ComponentDrill
T6C2.000
; #@! TA.AperFunction,Plated,PTH,ComponentDrill
T7C2.600
; #@! TA.AperFunction,Plated,PTH,ComponentDrill
T8C3.200
%
G90
G05
T1
X75.75Y-98.75
X76.0Y-101.75
X76.25Y-104.75
X77.25Y-76.5
X77.25Y-77.75
X77.25Y-79.0
X77.25Y-80.25
X77.25Y-81.5
X77.25Y-100.25
X77.5Y-82.75
X77.75Y-104.5
X78.0Y-75.5
X78.0Y-103.0
X78.5Y-83.75
X79.0Y-74.5
X79.25Y-77.25
X79.25Y-78.5
X79.25Y-79.75
X79.25Y-81.0
X79.5Y-84.75
X79.575Y-86.25
X79.575Y-89.25
X79.75Y-82.0
X80.0Y-76.5
X80.75Y-83.0
X80.75Y-85.25
X80.75Y-87.75
X80.925Y-76.5
X81.0Y-81.25
X81.5Y-86.16
X82.0Y-83.0
X82.0Y-85.25
X83.0Y-87.5
X84.5Y-75.0
X84.5Y-76.75
X84.5Y-86.16
X87.75Y-75.5
X88.75Y-75.5
X88.75Y-86.68
X88.75Y-89.14
X89.87Y-87.92
X91.22Y-83.44
X92.62Y-84.62
X94.0Y-83.44
X94.75Y-109.96
X95.25Y-76.5
X95.37Y-84.62
X96.0Y-108.84
X96.25Y-76.5
X96.25Y-89.5
X96.77Y-83.44
X97.26Y-109.96
X97.37Y-90.75
X98.53Y-83.84
X99.75Y-72.5
X99.75Y-84.96
X100.22Y-86.34
X100.98Y-83.84
X101.0Y-73.25
X101.0Y-74.5
X101.4Y-84.94
X101.4Y-87.74
X102.0Y-74.5
X102.25Y-73.25
X102.5Y-78.25
X102.5Y-79.25
X102.5Y-80.25
X103.25Y-73.25
X104.5Y-78.25
X104.5Y-79.25
X104.75Y-73.25
X105.75Y-81.75
X106.5Y-79.25
X106.75Y-82.75
X107.75Y-83.75
X108.25Y-80.5
X108.5Y-85.25
X108.5Y-87.25
X108.5Y-89.25
X108.5Y-91.25
X108.5Y-93.25
X108.5Y-94.5
X109.75Y-82.0
X109.75Y-94.5
X111.0Y-83.25
X111.0Y-85.25
X111.0Y-87.25
X111.0Y-89.25
X111.0Y-94.5
X112.25Y-94.5
X112.5Y-89.5
X112.7Y-86.77
X113.49Y-96.93
X114.0Y-89.5
X114.0Y-94.5
X114.25Y-86.75
X114.75Y-95.81
X115.75Y-86.75
X115.75Y-94.5
X116.0Y-96.93
X117.25Y-86.75
X117.25Y-89.5
T2
X86.75Y-76.57
X86.75Y-77.84
X86.75Y-79.11
X86.75Y-82.73
X86.75Y-84.0
X86.75Y-85.27
X94.0Y-75.3
X94.0Y-76.57
X94.0Y-77.84
X103.5Y-74.73
X103.5Y-76.0
X103.5Y-77.27
X103.75Y-80.57
X103.75Y-81.84
X103.75Y-83.11
T3
X73.75Y-103.0
X76.29Y-103.0
T4
X80.37Y-64.13
X80.37Y-66.67
X82.91Y-64.13
X82.91Y-66.67
X85.45Y-64.13
X85.45Y-66.67
X87.99Y-64.13
X87.99Y-66.67
X90.53Y-64.13
X90.53Y-66.67
X93.07Y-64.13
X93.07Y-66.67
X95.61Y-64.13
X95.61Y-66.67
X98.15Y-64.13
X98.15Y-66.67
X100.69Y-64.13
X100.69Y-66.67
X101.7Y-70.25
X103.23Y-64.13
X103.23Y-66.67
X105.77Y-64.13
X105.77Y-66.67
X108.31Y-64.13
X108.31Y-66.67
X110.85Y-64.13
X110.85Y-66.67
X113.39Y-64.13
X113.39Y-66.67
X115.93Y-64.13
X115.93Y-66.67
X118.47Y-64.13
X118.47Y-66.67
X121.01Y-64.13
X121.01Y-66.67
X123.55Y-64.13
X123.55Y-66.67
X126.09Y-64.13
X126.09Y-66.67
X128.63Y-64.13
X128.63Y-66.67
X134.5Y-70.25
T5
X118.305Y-91.96
X118.305Y-94.5
X118.305Y-97.04
T6
X68.67Y-108.08
X78.83Y-108.08
T7
X122.54Y-81.71
X122.54Y-107.11
T8
X68.7Y-73.5
X71.5Y-78.3
X74.5Y-73.5
M30
