%TF.GenerationSoftware,KiCad,Pcbnew,8.0.3-8.0.3-0~ubuntu23.10.1*%
%TF.CreationDate,2025-08-07T13:12:38-04:00*%
%TF.ProjectId,28mhz_new,32386d68-7a5f-46e6-9577-2e6b69636164,rev?*%
%TF.SameCoordinates,Original*%
%TF.FileFunction,Soldermask,Top*%
%TF.FilePolarity,Negative*%
%FSLAX46Y46*%
G04 Gerber Fmt 4.6, Leading zero omitted, Abs format (unit mm)*
G04 Created by KiCad (PCBNEW 8.0.3-8.0.3-0~ubuntu23.10.1) date 2025-08-07 13:12:38*
%MOMM*%
%LPD*%
G01*
G04 APERTURE LIST*
G04 Aperture macros list*
%AMRoundRect*
0 Rectangle with rounded corners*
0 $1 Rounding radius*
0 $2 $3 $4 $5 $6 $7 $8 $9 X,Y pos of 4 corners*
0 Add a 4 corners polygon primitive as box body*
4,1,4,$2,$3,$4,$5,$6,$7,$8,$9,$2,$3,0*
0 Add four circle primitives for the rounded corners*
1,1,$1+$1,$2,$3*
1,1,$1+$1,$4,$5*
1,1,$1+$1,$6,$7*
1,1,$1+$1,$8,$9*
0 Add four rect primitives between the rounded corners*
20,1,$1+$1,$2,$3,$4,$5,0*
20,1,$1+$1,$4,$5,$6,$7,0*
20,1,$1+$1,$6,$7,$8,$9,0*
20,1,$1+$1,$8,$9,$2,$3,0*%
G04 Aperture macros list end*
%ADD10C,0.150000*%
%ADD11R,2.160000X6.730000*%
%ADD12RoundRect,0.250000X0.350000X0.450000X-0.350000X0.450000X-0.350000X-0.450000X0.350000X-0.450000X0*%
%ADD13RoundRect,0.250000X-0.350000X-0.450000X0.350000X-0.450000X0.350000X0.450000X-0.350000X0.450000X0*%
%ADD14C,2.700000*%
%ADD15RoundRect,0.250000X-0.362500X-1.425000X0.362500X-1.425000X0.362500X1.425000X-0.362500X1.425000X0*%
%ADD16RoundRect,0.250000X1.425000X-0.362500X1.425000X0.362500X-1.425000X0.362500X-1.425000X-0.362500X0*%
%ADD17C,4.800000*%
%ADD18C,3.900000*%
%ADD19R,3.900000X3.900000*%
%ADD20C,3.000000*%
%ADD21C,1.446000*%
%ADD22R,1.446000X1.446000*%
%ADD23O,1.700000X1.700000*%
%ADD24R,1.700000X1.700000*%
%ADD25RoundRect,0.250000X0.625000X-0.400000X0.625000X0.400000X-0.625000X0.400000X-0.625000X-0.400000X0*%
%ADD26RoundRect,0.250000X-0.337500X-0.475000X0.337500X-0.475000X0.337500X0.475000X-0.337500X0.475000X0*%
%ADD27RoundRect,0.250000X0.337500X0.475000X-0.337500X0.475000X-0.337500X-0.475000X0.337500X-0.475000X0*%
%ADD28R,1.500000X1.050000*%
%ADD29O,1.500000X1.050000*%
%ADD30RoundRect,0.250000X-0.625000X0.400000X-0.625000X-0.400000X0.625000X-0.400000X0.625000X0.400000X0*%
%ADD31R,2.000000X1.905000*%
%ADD32O,2.000000X1.905000*%
%ADD33RoundRect,0.250000X0.475000X-0.337500X0.475000X0.337500X-0.475000X0.337500X-0.475000X-0.337500X0*%
%ADD34RoundRect,0.250000X-0.450000X0.350000X-0.450000X-0.350000X0.450000X-0.350000X0.450000X0.350000X0*%
%ADD35R,2.290000X8.260000*%
%ADD36C,1.500000*%
%ADD37RoundRect,0.250000X0.400000X0.625000X-0.400000X0.625000X-0.400000X-0.625000X0.400000X-0.625000X0*%
%ADD38R,8.260000X2.290000*%
G04 APERTURE END LIST*
D10*
X127420112Y-100596009D02*
X127562969Y-100643628D01*
X127562969Y-100643628D02*
X127610588Y-100691247D01*
X127610588Y-100691247D02*
X127658207Y-100786485D01*
X127658207Y-100786485D02*
X127658207Y-100929342D01*
X127658207Y-100929342D02*
X127610588Y-101024580D01*
X127610588Y-101024580D02*
X127562969Y-101072200D01*
X127562969Y-101072200D02*
X127467731Y-101119819D01*
X127467731Y-101119819D02*
X127086779Y-101119819D01*
X127086779Y-101119819D02*
X127086779Y-100119819D01*
X127086779Y-100119819D02*
X127420112Y-100119819D01*
X127420112Y-100119819D02*
X127515350Y-100167438D01*
X127515350Y-100167438D02*
X127562969Y-100215057D01*
X127562969Y-100215057D02*
X127610588Y-100310295D01*
X127610588Y-100310295D02*
X127610588Y-100405533D01*
X127610588Y-100405533D02*
X127562969Y-100500771D01*
X127562969Y-100500771D02*
X127515350Y-100548390D01*
X127515350Y-100548390D02*
X127420112Y-100596009D01*
X127420112Y-100596009D02*
X127086779Y-100596009D01*
X128610588Y-100167438D02*
X128515350Y-100119819D01*
X128515350Y-100119819D02*
X128372493Y-100119819D01*
X128372493Y-100119819D02*
X128229636Y-100167438D01*
X128229636Y-100167438D02*
X128134398Y-100262676D01*
X128134398Y-100262676D02*
X128086779Y-100357914D01*
X128086779Y-100357914D02*
X128039160Y-100548390D01*
X128039160Y-100548390D02*
X128039160Y-100691247D01*
X128039160Y-100691247D02*
X128086779Y-100881723D01*
X128086779Y-100881723D02*
X128134398Y-100976961D01*
X128134398Y-100976961D02*
X128229636Y-101072200D01*
X128229636Y-101072200D02*
X128372493Y-101119819D01*
X128372493Y-101119819D02*
X128467731Y-101119819D01*
X128467731Y-101119819D02*
X128610588Y-101072200D01*
X128610588Y-101072200D02*
X128658207Y-101024580D01*
X128658207Y-101024580D02*
X128658207Y-100691247D01*
X128658207Y-100691247D02*
X128467731Y-100691247D01*
D11*
%TO.C,LM1*%
X99320000Y-112000000D03*
X106680000Y-112000000D03*
%TD*%
D12*
%TO.C,RBI2*%
X112700000Y-88000000D03*
X114700000Y-88000000D03*
%TD*%
D13*
%TO.C,RBI1*%
X116700000Y-88000000D03*
X118700000Y-88000000D03*
%TD*%
D14*
%TO.C,MH2*%
X133510000Y-114400000D03*
%TD*%
%TO.C,MH1*%
X133500000Y-65400000D03*
%TD*%
D15*
%TO.C,R3*%
X109775000Y-91960000D03*
X115700000Y-91960000D03*
%TD*%
D16*
%TO.C,R2*%
X95250000Y-98750000D03*
X95250000Y-92825000D03*
%TD*%
D17*
%TO.C,J2*%
X74500000Y-73500000D03*
X68700000Y-73500000D03*
X71500000Y-78300000D03*
%TD*%
D18*
%TO.C,H1*%
X122540000Y-107110000D03*
D19*
X122540000Y-81710000D03*
%TD*%
D20*
%TO.C,B1*%
X68670000Y-108080000D03*
X78830000Y-108080000D03*
D21*
X73750000Y-103000000D03*
D22*
X76290000Y-103000000D03*
%TD*%
D23*
%TO.C,J1*%
X128630000Y-64130000D03*
X128630000Y-66670000D03*
X126090000Y-64130000D03*
X126090000Y-66670000D03*
X123550000Y-64130000D03*
X123550000Y-66670000D03*
X121010000Y-64130000D03*
X121010000Y-66670000D03*
X118470000Y-64130000D03*
X118470000Y-66670000D03*
X115930000Y-64130000D03*
X115930000Y-66670000D03*
X113390000Y-64130000D03*
X113390000Y-66670000D03*
X110850000Y-64130000D03*
X110850000Y-66670000D03*
X108310000Y-64130000D03*
X108310000Y-66670000D03*
X105770000Y-64130000D03*
X105770000Y-66670000D03*
X103230000Y-64130000D03*
X103230000Y-66670000D03*
X100690000Y-64130000D03*
X100690000Y-66670000D03*
X98150000Y-64130000D03*
X98150000Y-66670000D03*
X95610000Y-64130000D03*
X95610000Y-66670000D03*
X93070000Y-64130000D03*
X93070000Y-66670000D03*
X90530000Y-64130000D03*
X90530000Y-66670000D03*
X87990000Y-64130000D03*
X87990000Y-66670000D03*
X85450000Y-64130000D03*
X85450000Y-66670000D03*
X82910000Y-64130000D03*
X82910000Y-66670000D03*
X80370000Y-64130000D03*
D24*
X80370000Y-66670000D03*
%TD*%
D25*
%TO.C,R1*%
X80750000Y-75050000D03*
X80750000Y-71950000D03*
%TD*%
D26*
%TO.C,CF3*%
X75825000Y-100250000D03*
X73750000Y-100250000D03*
%TD*%
D27*
%TO.C,CB1*%
X83000000Y-77840000D03*
X80925000Y-77840000D03*
%TD*%
D12*
%TO.C,RB2*%
X81000000Y-80000000D03*
X83000000Y-80000000D03*
%TD*%
D13*
%TO.C,RE1*%
X86750000Y-87910000D03*
X88750000Y-87910000D03*
%TD*%
D28*
%TO.C,QN2*%
X86750000Y-79110000D03*
D29*
X86750000Y-77840000D03*
X86750000Y-76570000D03*
%TD*%
D30*
%TO.C,RC2*%
X106500000Y-77250000D03*
X106500000Y-74150000D03*
%TD*%
D31*
%TO.C,M1*%
X118305000Y-91960000D03*
D32*
X118305000Y-94500000D03*
X118305000Y-97040000D03*
%TD*%
D13*
%TO.C,RB4*%
X97750000Y-73910000D03*
X99750000Y-73910000D03*
%TD*%
D33*
%TO.C,C1*%
X114750000Y-96925000D03*
X114750000Y-99000000D03*
%TD*%
D34*
%TO.C,RB3*%
X83000000Y-75660000D03*
X83000000Y-73660000D03*
%TD*%
D13*
%TO.C,RB6*%
X97750000Y-79330000D03*
X99750000Y-79330000D03*
%TD*%
D35*
%TO.C,LF1*%
X90530000Y-94500000D03*
X78970000Y-94500000D03*
%TD*%
D36*
%TO.C,L1*%
X134500000Y-70250000D03*
X101700000Y-70250000D03*
%TD*%
D26*
%TO.C,C2*%
X111787500Y-97000000D03*
X109712500Y-97000000D03*
%TD*%
D37*
%TO.C,RC3*%
X104500000Y-86340000D03*
X101400000Y-86340000D03*
%TD*%
D38*
%TO.C,LF2*%
X70500000Y-85440000D03*
X70500000Y-97000000D03*
%TD*%
D30*
%TO.C,RE3*%
X95370000Y-80340000D03*
X95370000Y-83440000D03*
%TD*%
D29*
%TO.C,QN1*%
X86750000Y-82730000D03*
X86750000Y-84000000D03*
D28*
X86750000Y-85270000D03*
%TD*%
D30*
%TO.C,RC1*%
X89980000Y-76570000D03*
X89980000Y-73470000D03*
%TD*%
D12*
%TO.C,RB5*%
X97750000Y-76330000D03*
X99750000Y-76330000D03*
%TD*%
D28*
%TO.C,QN4*%
X103500000Y-77270000D03*
D29*
X103500000Y-76000000D03*
X103500000Y-74730000D03*
%TD*%
D30*
%TO.C,RE2*%
X92620000Y-80340000D03*
X92620000Y-83440000D03*
%TD*%
D28*
%TO.C,QN3*%
X94000000Y-77840000D03*
D29*
X94000000Y-76570000D03*
X94000000Y-75300000D03*
%TD*%
D26*
%TO.C,CF2*%
X79575000Y-87750000D03*
X77500000Y-87750000D03*
%TD*%
D38*
%TO.C,LM2*%
X89500000Y-114475000D03*
X89500000Y-102025000D03*
%TD*%
D34*
%TO.C,RB1*%
X82990000Y-84160000D03*
X82990000Y-86160000D03*
%TD*%
D33*
%TO.C,CM1*%
X96000000Y-109962500D03*
X96000000Y-112037500D03*
%TD*%
D29*
%TO.C,QP1*%
X103750000Y-83110000D03*
X103750000Y-81840000D03*
D28*
X103750000Y-80570000D03*
%TD*%
D26*
%TO.C,CF1*%
X96250000Y-90750000D03*
X94175000Y-90750000D03*
%TD*%
D34*
%TO.C,RB7*%
X99750000Y-81840000D03*
X99750000Y-83840000D03*
%TD*%
D38*
%TO.C,L2*%
X103500000Y-95750000D03*
X103500000Y-105280000D03*
%TD*%
D14*
%TO.C,MH4*%
X75500000Y-65400000D03*
%TD*%
M02*
