%TF.GenerationSoftware,KiCad,Pcbnew,8.0.3-8.0.3-0~ubuntu23.10.1*%
%TF.CreationDate,2025-08-07T13:12:38-04:00*%
%TF.ProjectId,28mhz_new,32386d68-7a5f-46e6-9577-2e6b69636164,rev?*%
%TF.SameCoordinates,Original*%
%TF.FileFunction,Legend,Top*%
%TF.FilePolarity,Positive*%
%FSLAX46Y46*%
G04 Gerber Fmt 4.6, Leading zero omitted, Abs format (unit mm)*
G04 Created by KiCad (PCBNEW 8.0.3-8.0.3-0~ubuntu23.10.1) date 2025-08-07 13:12:38*
%MOMM*%
%LPD*%
G01*
G04 APERTURE LIST*
G04 Aperture macros list*
%AMRoundRect*
0 Rectangle with rounded corners*
0 $1 Rounding radius*
0 $2 $3 $4 $5 $6 $7 $8 $9 X,Y pos of 4 corners*
0 Add a 4 corners polygon primitive as box body*
4,1,4,$2,$3,$4,$5,$6,$7,$8,$9,$2,$3,0*
0 Add four circle primitives for the rounded corners*
1,1,$1+$1,$2,$3*
1,1,$1+$1,$4,$5*
1,1,$1+$1,$6,$7*
1,1,$1+$1,$8,$9*
0 Add four rect primitives between the rounded corners*
20,1,$1+$1,$2,$3,$4,$5,0*
20,1,$1+$1,$4,$5,$6,$7,0*
20,1,$1+$1,$6,$7,$8,$9,0*
20,1,$1+$1,$8,$9,$2,$3,0*%
G04 Aperture macros list end*
%ADD10C,0.150000*%
%ADD11C,0.254000*%
%ADD12C,0.100000*%
%ADD13C,0.200000*%
%ADD14C,0.120000*%
%ADD15R,2.160000X6.730000*%
%ADD16RoundRect,0.250000X0.350000X0.450000X-0.350000X0.450000X-0.350000X-0.450000X0.350000X-0.450000X0*%
%ADD17RoundRect,0.250000X-0.350000X-0.450000X0.350000X-0.450000X0.350000X0.450000X-0.350000X0.450000X0*%
%ADD18C,2.700000*%
%ADD19RoundRect,0.250000X-0.362500X-1.425000X0.362500X-1.425000X0.362500X1.425000X-0.362500X1.425000X0*%
%ADD20RoundRect,0.250000X1.425000X-0.362500X1.425000X0.362500X-1.425000X0.362500X-1.425000X-0.362500X0*%
%ADD21C,4.800000*%
%ADD22C,3.900000*%
%ADD23R,3.900000X3.900000*%
%ADD24C,3.000000*%
%ADD25C,1.446000*%
%ADD26R,1.446000X1.446000*%
%ADD27O,1.700000X1.700000*%
%ADD28R,1.700000X1.700000*%
%ADD29RoundRect,0.250000X0.625000X-0.400000X0.625000X0.400000X-0.625000X0.400000X-0.625000X-0.400000X0*%
%ADD30RoundRect,0.250000X-0.337500X-0.475000X0.337500X-0.475000X0.337500X0.475000X-0.337500X0.475000X0*%
%ADD31RoundRect,0.250000X0.337500X0.475000X-0.337500X0.475000X-0.337500X-0.475000X0.337500X-0.475000X0*%
%ADD32R,1.500000X1.050000*%
%ADD33O,1.500000X1.050000*%
%ADD34RoundRect,0.250000X-0.625000X0.400000X-0.625000X-0.400000X0.625000X-0.400000X0.625000X0.400000X0*%
%ADD35R,2.000000X1.905000*%
%ADD36O,2.000000X1.905000*%
%ADD37RoundRect,0.250000X0.475000X-0.337500X0.475000X0.337500X-0.475000X0.337500X-0.475000X-0.337500X0*%
%ADD38RoundRect,0.250000X-0.450000X0.350000X-0.450000X-0.350000X0.450000X-0.350000X0.450000X0.350000X0*%
%ADD39R,2.290000X8.260000*%
%ADD40C,1.500000*%
%ADD41RoundRect,0.250000X0.400000X0.625000X-0.400000X0.625000X-0.400000X-0.625000X0.400000X-0.625000X0*%
%ADD42R,8.260000X2.290000*%
G04 APERTURE END LIST*
D10*
X124384398Y-100119819D02*
X124289160Y-100310295D01*
X124765350Y-100215057D02*
X124812969Y-100167438D01*
X124812969Y-100167438D02*
X124908207Y-100119819D01*
X124908207Y-100119819D02*
X125146302Y-100119819D01*
X125146302Y-100119819D02*
X125241540Y-100167438D01*
X125241540Y-100167438D02*
X125289159Y-100215057D01*
X125289159Y-100215057D02*
X125336778Y-100310295D01*
X125336778Y-100310295D02*
X125336778Y-100405533D01*
X125336778Y-100405533D02*
X125289159Y-100548390D01*
X125289159Y-100548390D02*
X124717731Y-101119819D01*
X124717731Y-101119819D02*
X125336778Y-101119819D01*
X126241540Y-100119819D02*
X125765350Y-100119819D01*
X125765350Y-100119819D02*
X125717731Y-100596009D01*
X125717731Y-100596009D02*
X125765350Y-100548390D01*
X125765350Y-100548390D02*
X125860588Y-100500771D01*
X125860588Y-100500771D02*
X126098683Y-100500771D01*
X126098683Y-100500771D02*
X126193921Y-100548390D01*
X126193921Y-100548390D02*
X126241540Y-100596009D01*
X126241540Y-100596009D02*
X126289159Y-100691247D01*
X126289159Y-100691247D02*
X126289159Y-100929342D01*
X126289159Y-100929342D02*
X126241540Y-101024580D01*
X126241540Y-101024580D02*
X126193921Y-101072200D01*
X126193921Y-101072200D02*
X126098683Y-101119819D01*
X126098683Y-101119819D02*
X125860588Y-101119819D01*
X125860588Y-101119819D02*
X125765350Y-101072200D01*
X125765350Y-101072200D02*
X125717731Y-101024580D01*
X129586779Y-101119819D02*
X129586779Y-100119819D01*
X130158207Y-101119819D02*
X129729636Y-100548390D01*
X130158207Y-100119819D02*
X129586779Y-100691247D01*
X131253445Y-101215057D02*
X131158207Y-101167438D01*
X131158207Y-101167438D02*
X131062969Y-101072200D01*
X131062969Y-101072200D02*
X130920112Y-100929342D01*
X130920112Y-100929342D02*
X130824874Y-100881723D01*
X130824874Y-100881723D02*
X130729636Y-100881723D01*
X130777255Y-101119819D02*
X130682017Y-101072200D01*
X130682017Y-101072200D02*
X130586779Y-100976961D01*
X130586779Y-100976961D02*
X130539160Y-100786485D01*
X130539160Y-100786485D02*
X130539160Y-100453152D01*
X130539160Y-100453152D02*
X130586779Y-100262676D01*
X130586779Y-100262676D02*
X130682017Y-100167438D01*
X130682017Y-100167438D02*
X130777255Y-100119819D01*
X130777255Y-100119819D02*
X130967731Y-100119819D01*
X130967731Y-100119819D02*
X131062969Y-100167438D01*
X131062969Y-100167438D02*
X131158207Y-100262676D01*
X131158207Y-100262676D02*
X131205826Y-100453152D01*
X131205826Y-100453152D02*
X131205826Y-100786485D01*
X131205826Y-100786485D02*
X131158207Y-100976961D01*
X131158207Y-100976961D02*
X131062969Y-101072200D01*
X131062969Y-101072200D02*
X130967731Y-101119819D01*
X130967731Y-101119819D02*
X130777255Y-101119819D01*
X132062969Y-100453152D02*
X132062969Y-101119819D01*
X131824874Y-100072200D02*
X131586779Y-100786485D01*
X131586779Y-100786485D02*
X132205826Y-100786485D01*
X132443922Y-100119819D02*
X133015350Y-100119819D01*
X132729636Y-101119819D02*
X132729636Y-100119819D01*
X133205827Y-100119819D02*
X133539160Y-101119819D01*
X133539160Y-101119819D02*
X133872493Y-100119819D01*
X134110589Y-100119819D02*
X134348684Y-101119819D01*
X134348684Y-101119819D02*
X134539160Y-100405533D01*
X134539160Y-100405533D02*
X134729636Y-101119819D01*
X134729636Y-101119819D02*
X134967732Y-100119819D01*
D11*
X102062618Y-112574318D02*
X101457856Y-112574318D01*
X101457856Y-112574318D02*
X101457856Y-111304318D01*
X102485951Y-112574318D02*
X102485951Y-111304318D01*
X102485951Y-111304318D02*
X102909285Y-112211461D01*
X102909285Y-112211461D02*
X103332618Y-111304318D01*
X103332618Y-111304318D02*
X103332618Y-112574318D01*
X104602619Y-112574318D02*
X103876904Y-112574318D01*
X104239761Y-112574318D02*
X104239761Y-111304318D01*
X104239761Y-111304318D02*
X104118809Y-111485746D01*
X104118809Y-111485746D02*
X103997857Y-111606699D01*
X103997857Y-111606699D02*
X103876904Y-111667175D01*
D12*
X111614895Y-88723808D02*
X111233942Y-88990475D01*
X111614895Y-89180951D02*
X110814895Y-89180951D01*
X110814895Y-89180951D02*
X110814895Y-88876189D01*
X110814895Y-88876189D02*
X110852990Y-88799999D01*
X110852990Y-88799999D02*
X110891085Y-88761904D01*
X110891085Y-88761904D02*
X110967276Y-88723808D01*
X110967276Y-88723808D02*
X111081561Y-88723808D01*
X111081561Y-88723808D02*
X111157752Y-88761904D01*
X111157752Y-88761904D02*
X111195847Y-88799999D01*
X111195847Y-88799999D02*
X111233942Y-88876189D01*
X111233942Y-88876189D02*
X111233942Y-89180951D01*
X111195847Y-88114285D02*
X111233942Y-87999999D01*
X111233942Y-87999999D02*
X111272038Y-87961904D01*
X111272038Y-87961904D02*
X111348228Y-87923808D01*
X111348228Y-87923808D02*
X111462514Y-87923808D01*
X111462514Y-87923808D02*
X111538704Y-87961904D01*
X111538704Y-87961904D02*
X111576800Y-87999999D01*
X111576800Y-87999999D02*
X111614895Y-88076189D01*
X111614895Y-88076189D02*
X111614895Y-88380951D01*
X111614895Y-88380951D02*
X110814895Y-88380951D01*
X110814895Y-88380951D02*
X110814895Y-88114285D01*
X110814895Y-88114285D02*
X110852990Y-88038094D01*
X110852990Y-88038094D02*
X110891085Y-87999999D01*
X110891085Y-87999999D02*
X110967276Y-87961904D01*
X110967276Y-87961904D02*
X111043466Y-87961904D01*
X111043466Y-87961904D02*
X111119657Y-87999999D01*
X111119657Y-87999999D02*
X111157752Y-88038094D01*
X111157752Y-88038094D02*
X111195847Y-88114285D01*
X111195847Y-88114285D02*
X111195847Y-88380951D01*
X111614895Y-87580951D02*
X110814895Y-87580951D01*
X110891085Y-87238095D02*
X110852990Y-87199999D01*
X110852990Y-87199999D02*
X110814895Y-87123809D01*
X110814895Y-87123809D02*
X110814895Y-86933333D01*
X110814895Y-86933333D02*
X110852990Y-86857142D01*
X110852990Y-86857142D02*
X110891085Y-86819047D01*
X110891085Y-86819047D02*
X110967276Y-86780952D01*
X110967276Y-86780952D02*
X111043466Y-86780952D01*
X111043466Y-86780952D02*
X111157752Y-86819047D01*
X111157752Y-86819047D02*
X111614895Y-87276190D01*
X111614895Y-87276190D02*
X111614895Y-86780952D01*
X120614895Y-88723808D02*
X120233942Y-88990475D01*
X120614895Y-89180951D02*
X119814895Y-89180951D01*
X119814895Y-89180951D02*
X119814895Y-88876189D01*
X119814895Y-88876189D02*
X119852990Y-88799999D01*
X119852990Y-88799999D02*
X119891085Y-88761904D01*
X119891085Y-88761904D02*
X119967276Y-88723808D01*
X119967276Y-88723808D02*
X120081561Y-88723808D01*
X120081561Y-88723808D02*
X120157752Y-88761904D01*
X120157752Y-88761904D02*
X120195847Y-88799999D01*
X120195847Y-88799999D02*
X120233942Y-88876189D01*
X120233942Y-88876189D02*
X120233942Y-89180951D01*
X120195847Y-88114285D02*
X120233942Y-87999999D01*
X120233942Y-87999999D02*
X120272038Y-87961904D01*
X120272038Y-87961904D02*
X120348228Y-87923808D01*
X120348228Y-87923808D02*
X120462514Y-87923808D01*
X120462514Y-87923808D02*
X120538704Y-87961904D01*
X120538704Y-87961904D02*
X120576800Y-87999999D01*
X120576800Y-87999999D02*
X120614895Y-88076189D01*
X120614895Y-88076189D02*
X120614895Y-88380951D01*
X120614895Y-88380951D02*
X119814895Y-88380951D01*
X119814895Y-88380951D02*
X119814895Y-88114285D01*
X119814895Y-88114285D02*
X119852990Y-88038094D01*
X119852990Y-88038094D02*
X119891085Y-87999999D01*
X119891085Y-87999999D02*
X119967276Y-87961904D01*
X119967276Y-87961904D02*
X120043466Y-87961904D01*
X120043466Y-87961904D02*
X120119657Y-87999999D01*
X120119657Y-87999999D02*
X120157752Y-88038094D01*
X120157752Y-88038094D02*
X120195847Y-88114285D01*
X120195847Y-88114285D02*
X120195847Y-88380951D01*
X120614895Y-87580951D02*
X119814895Y-87580951D01*
X120614895Y-86780952D02*
X120614895Y-87238095D01*
X120614895Y-87009523D02*
X119814895Y-87009523D01*
X119814895Y-87009523D02*
X119929180Y-87085714D01*
X119929180Y-87085714D02*
X120005371Y-87161904D01*
X120005371Y-87161904D02*
X120043466Y-87238095D01*
D10*
X132176667Y-111154819D02*
X132176667Y-110154819D01*
X132176667Y-110154819D02*
X132510000Y-110869104D01*
X132510000Y-110869104D02*
X132843333Y-110154819D01*
X132843333Y-110154819D02*
X132843333Y-111154819D01*
X133319524Y-111154819D02*
X133319524Y-110154819D01*
X133319524Y-110631009D02*
X133890952Y-110631009D01*
X133890952Y-111154819D02*
X133890952Y-110154819D01*
X134319524Y-110250057D02*
X134367143Y-110202438D01*
X134367143Y-110202438D02*
X134462381Y-110154819D01*
X134462381Y-110154819D02*
X134700476Y-110154819D01*
X134700476Y-110154819D02*
X134795714Y-110202438D01*
X134795714Y-110202438D02*
X134843333Y-110250057D01*
X134843333Y-110250057D02*
X134890952Y-110345295D01*
X134890952Y-110345295D02*
X134890952Y-110440533D01*
X134890952Y-110440533D02*
X134843333Y-110583390D01*
X134843333Y-110583390D02*
X134271905Y-111154819D01*
X134271905Y-111154819D02*
X134890952Y-111154819D01*
X132166667Y-68454819D02*
X132166667Y-67454819D01*
X132166667Y-67454819D02*
X132500000Y-68169104D01*
X132500000Y-68169104D02*
X132833333Y-67454819D01*
X132833333Y-67454819D02*
X132833333Y-68454819D01*
X133309524Y-68454819D02*
X133309524Y-67454819D01*
X133309524Y-67931009D02*
X133880952Y-67931009D01*
X133880952Y-68454819D02*
X133880952Y-67454819D01*
X134880952Y-68454819D02*
X134309524Y-68454819D01*
X134595238Y-68454819D02*
X134595238Y-67454819D01*
X134595238Y-67454819D02*
X134500000Y-67597676D01*
X134500000Y-67597676D02*
X134404762Y-67692914D01*
X134404762Y-67692914D02*
X134309524Y-67740533D01*
X112570833Y-92454819D02*
X112237500Y-91978628D01*
X111999405Y-92454819D02*
X111999405Y-91454819D01*
X111999405Y-91454819D02*
X112380357Y-91454819D01*
X112380357Y-91454819D02*
X112475595Y-91502438D01*
X112475595Y-91502438D02*
X112523214Y-91550057D01*
X112523214Y-91550057D02*
X112570833Y-91645295D01*
X112570833Y-91645295D02*
X112570833Y-91788152D01*
X112570833Y-91788152D02*
X112523214Y-91883390D01*
X112523214Y-91883390D02*
X112475595Y-91931009D01*
X112475595Y-91931009D02*
X112380357Y-91978628D01*
X112380357Y-91978628D02*
X111999405Y-91978628D01*
X112904167Y-91454819D02*
X113523214Y-91454819D01*
X113523214Y-91454819D02*
X113189881Y-91835771D01*
X113189881Y-91835771D02*
X113332738Y-91835771D01*
X113332738Y-91835771D02*
X113427976Y-91883390D01*
X113427976Y-91883390D02*
X113475595Y-91931009D01*
X113475595Y-91931009D02*
X113523214Y-92026247D01*
X113523214Y-92026247D02*
X113523214Y-92264342D01*
X113523214Y-92264342D02*
X113475595Y-92359580D01*
X113475595Y-92359580D02*
X113427976Y-92407200D01*
X113427976Y-92407200D02*
X113332738Y-92454819D01*
X113332738Y-92454819D02*
X113047024Y-92454819D01*
X113047024Y-92454819D02*
X112951786Y-92407200D01*
X112951786Y-92407200D02*
X112904167Y-92359580D01*
X93084819Y-95954166D02*
X92608628Y-96287499D01*
X93084819Y-96525594D02*
X92084819Y-96525594D01*
X92084819Y-96525594D02*
X92084819Y-96144642D01*
X92084819Y-96144642D02*
X92132438Y-96049404D01*
X92132438Y-96049404D02*
X92180057Y-96001785D01*
X92180057Y-96001785D02*
X92275295Y-95954166D01*
X92275295Y-95954166D02*
X92418152Y-95954166D01*
X92418152Y-95954166D02*
X92513390Y-96001785D01*
X92513390Y-96001785D02*
X92561009Y-96049404D01*
X92561009Y-96049404D02*
X92608628Y-96144642D01*
X92608628Y-96144642D02*
X92608628Y-96525594D01*
X92180057Y-95573213D02*
X92132438Y-95525594D01*
X92132438Y-95525594D02*
X92084819Y-95430356D01*
X92084819Y-95430356D02*
X92084819Y-95192261D01*
X92084819Y-95192261D02*
X92132438Y-95097023D01*
X92132438Y-95097023D02*
X92180057Y-95049404D01*
X92180057Y-95049404D02*
X92275295Y-95001785D01*
X92275295Y-95001785D02*
X92370533Y-95001785D01*
X92370533Y-95001785D02*
X92513390Y-95049404D01*
X92513390Y-95049404D02*
X93084819Y-95620832D01*
X93084819Y-95620832D02*
X93084819Y-95001785D01*
D11*
X71076667Y-69304318D02*
X71076667Y-70211461D01*
X71076667Y-70211461D02*
X71016190Y-70392889D01*
X71016190Y-70392889D02*
X70895238Y-70513842D01*
X70895238Y-70513842D02*
X70713809Y-70574318D01*
X70713809Y-70574318D02*
X70592857Y-70574318D01*
X71620952Y-69425270D02*
X71681428Y-69364794D01*
X71681428Y-69364794D02*
X71802381Y-69304318D01*
X71802381Y-69304318D02*
X72104762Y-69304318D01*
X72104762Y-69304318D02*
X72225714Y-69364794D01*
X72225714Y-69364794D02*
X72286190Y-69425270D01*
X72286190Y-69425270D02*
X72346667Y-69546222D01*
X72346667Y-69546222D02*
X72346667Y-69667175D01*
X72346667Y-69667175D02*
X72286190Y-69848603D01*
X72286190Y-69848603D02*
X71560476Y-70574318D01*
X71560476Y-70574318D02*
X72346667Y-70574318D01*
X73235952Y-119898080D02*
X73417380Y-119958556D01*
X73417380Y-119958556D02*
X73477857Y-120019032D01*
X73477857Y-120019032D02*
X73538333Y-120139984D01*
X73538333Y-120139984D02*
X73538333Y-120321413D01*
X73538333Y-120321413D02*
X73477857Y-120442365D01*
X73477857Y-120442365D02*
X73417380Y-120502842D01*
X73417380Y-120502842D02*
X73296428Y-120563318D01*
X73296428Y-120563318D02*
X72812618Y-120563318D01*
X72812618Y-120563318D02*
X72812618Y-119293318D01*
X72812618Y-119293318D02*
X73235952Y-119293318D01*
X73235952Y-119293318D02*
X73356904Y-119353794D01*
X73356904Y-119353794D02*
X73417380Y-119414270D01*
X73417380Y-119414270D02*
X73477857Y-119535222D01*
X73477857Y-119535222D02*
X73477857Y-119656175D01*
X73477857Y-119656175D02*
X73417380Y-119777127D01*
X73417380Y-119777127D02*
X73356904Y-119837603D01*
X73356904Y-119837603D02*
X73235952Y-119898080D01*
X73235952Y-119898080D02*
X72812618Y-119898080D01*
X74747857Y-120563318D02*
X74022142Y-120563318D01*
X74384999Y-120563318D02*
X74384999Y-119293318D01*
X74384999Y-119293318D02*
X74264047Y-119474746D01*
X74264047Y-119474746D02*
X74143095Y-119595699D01*
X74143095Y-119595699D02*
X74022142Y-119656175D01*
D10*
X81204819Y-69966666D02*
X80728628Y-70299999D01*
X81204819Y-70538094D02*
X80204819Y-70538094D01*
X80204819Y-70538094D02*
X80204819Y-70157142D01*
X80204819Y-70157142D02*
X80252438Y-70061904D01*
X80252438Y-70061904D02*
X80300057Y-70014285D01*
X80300057Y-70014285D02*
X80395295Y-69966666D01*
X80395295Y-69966666D02*
X80538152Y-69966666D01*
X80538152Y-69966666D02*
X80633390Y-70014285D01*
X80633390Y-70014285D02*
X80681009Y-70061904D01*
X80681009Y-70061904D02*
X80728628Y-70157142D01*
X80728628Y-70157142D02*
X80728628Y-70538094D01*
X81204819Y-69014285D02*
X81204819Y-69585713D01*
X81204819Y-69299999D02*
X80204819Y-69299999D01*
X80204819Y-69299999D02*
X80347676Y-69395237D01*
X80347676Y-69395237D02*
X80442914Y-69490475D01*
X80442914Y-69490475D02*
X80490533Y-69585713D01*
X70654761Y-100609580D02*
X70607142Y-100657200D01*
X70607142Y-100657200D02*
X70464285Y-100704819D01*
X70464285Y-100704819D02*
X70369047Y-100704819D01*
X70369047Y-100704819D02*
X70226190Y-100657200D01*
X70226190Y-100657200D02*
X70130952Y-100561961D01*
X70130952Y-100561961D02*
X70083333Y-100466723D01*
X70083333Y-100466723D02*
X70035714Y-100276247D01*
X70035714Y-100276247D02*
X70035714Y-100133390D01*
X70035714Y-100133390D02*
X70083333Y-99942914D01*
X70083333Y-99942914D02*
X70130952Y-99847676D01*
X70130952Y-99847676D02*
X70226190Y-99752438D01*
X70226190Y-99752438D02*
X70369047Y-99704819D01*
X70369047Y-99704819D02*
X70464285Y-99704819D01*
X70464285Y-99704819D02*
X70607142Y-99752438D01*
X70607142Y-99752438D02*
X70654761Y-99800057D01*
X71416666Y-100181009D02*
X71083333Y-100181009D01*
X71083333Y-100704819D02*
X71083333Y-99704819D01*
X71083333Y-99704819D02*
X71559523Y-99704819D01*
X71845238Y-99704819D02*
X72464285Y-99704819D01*
X72464285Y-99704819D02*
X72130952Y-100085771D01*
X72130952Y-100085771D02*
X72273809Y-100085771D01*
X72273809Y-100085771D02*
X72369047Y-100133390D01*
X72369047Y-100133390D02*
X72416666Y-100181009D01*
X72416666Y-100181009D02*
X72464285Y-100276247D01*
X72464285Y-100276247D02*
X72464285Y-100514342D01*
X72464285Y-100514342D02*
X72416666Y-100609580D01*
X72416666Y-100609580D02*
X72369047Y-100657200D01*
X72369047Y-100657200D02*
X72273809Y-100704819D01*
X72273809Y-100704819D02*
X71988095Y-100704819D01*
X71988095Y-100704819D02*
X71892857Y-100657200D01*
X71892857Y-100657200D02*
X71845238Y-100609580D01*
X77833333Y-78609580D02*
X77785714Y-78657200D01*
X77785714Y-78657200D02*
X77642857Y-78704819D01*
X77642857Y-78704819D02*
X77547619Y-78704819D01*
X77547619Y-78704819D02*
X77404762Y-78657200D01*
X77404762Y-78657200D02*
X77309524Y-78561961D01*
X77309524Y-78561961D02*
X77261905Y-78466723D01*
X77261905Y-78466723D02*
X77214286Y-78276247D01*
X77214286Y-78276247D02*
X77214286Y-78133390D01*
X77214286Y-78133390D02*
X77261905Y-77942914D01*
X77261905Y-77942914D02*
X77309524Y-77847676D01*
X77309524Y-77847676D02*
X77404762Y-77752438D01*
X77404762Y-77752438D02*
X77547619Y-77704819D01*
X77547619Y-77704819D02*
X77642857Y-77704819D01*
X77642857Y-77704819D02*
X77785714Y-77752438D01*
X77785714Y-77752438D02*
X77833333Y-77800057D01*
X78595238Y-78181009D02*
X78738095Y-78228628D01*
X78738095Y-78228628D02*
X78785714Y-78276247D01*
X78785714Y-78276247D02*
X78833333Y-78371485D01*
X78833333Y-78371485D02*
X78833333Y-78514342D01*
X78833333Y-78514342D02*
X78785714Y-78609580D01*
X78785714Y-78609580D02*
X78738095Y-78657200D01*
X78738095Y-78657200D02*
X78642857Y-78704819D01*
X78642857Y-78704819D02*
X78261905Y-78704819D01*
X78261905Y-78704819D02*
X78261905Y-77704819D01*
X78261905Y-77704819D02*
X78595238Y-77704819D01*
X78595238Y-77704819D02*
X78690476Y-77752438D01*
X78690476Y-77752438D02*
X78738095Y-77800057D01*
X78738095Y-77800057D02*
X78785714Y-77895295D01*
X78785714Y-77895295D02*
X78785714Y-77990533D01*
X78785714Y-77990533D02*
X78738095Y-78085771D01*
X78738095Y-78085771D02*
X78690476Y-78133390D01*
X78690476Y-78133390D02*
X78595238Y-78181009D01*
X78595238Y-78181009D02*
X78261905Y-78181009D01*
X79785714Y-78704819D02*
X79214286Y-78704819D01*
X79500000Y-78704819D02*
X79500000Y-77704819D01*
X79500000Y-77704819D02*
X79404762Y-77847676D01*
X79404762Y-77847676D02*
X79309524Y-77942914D01*
X79309524Y-77942914D02*
X79214286Y-77990533D01*
X81333333Y-82204819D02*
X81000000Y-81728628D01*
X80761905Y-82204819D02*
X80761905Y-81204819D01*
X80761905Y-81204819D02*
X81142857Y-81204819D01*
X81142857Y-81204819D02*
X81238095Y-81252438D01*
X81238095Y-81252438D02*
X81285714Y-81300057D01*
X81285714Y-81300057D02*
X81333333Y-81395295D01*
X81333333Y-81395295D02*
X81333333Y-81538152D01*
X81333333Y-81538152D02*
X81285714Y-81633390D01*
X81285714Y-81633390D02*
X81238095Y-81681009D01*
X81238095Y-81681009D02*
X81142857Y-81728628D01*
X81142857Y-81728628D02*
X80761905Y-81728628D01*
X82095238Y-81681009D02*
X82238095Y-81728628D01*
X82238095Y-81728628D02*
X82285714Y-81776247D01*
X82285714Y-81776247D02*
X82333333Y-81871485D01*
X82333333Y-81871485D02*
X82333333Y-82014342D01*
X82333333Y-82014342D02*
X82285714Y-82109580D01*
X82285714Y-82109580D02*
X82238095Y-82157200D01*
X82238095Y-82157200D02*
X82142857Y-82204819D01*
X82142857Y-82204819D02*
X81761905Y-82204819D01*
X81761905Y-82204819D02*
X81761905Y-81204819D01*
X81761905Y-81204819D02*
X82095238Y-81204819D01*
X82095238Y-81204819D02*
X82190476Y-81252438D01*
X82190476Y-81252438D02*
X82238095Y-81300057D01*
X82238095Y-81300057D02*
X82285714Y-81395295D01*
X82285714Y-81395295D02*
X82285714Y-81490533D01*
X82285714Y-81490533D02*
X82238095Y-81585771D01*
X82238095Y-81585771D02*
X82190476Y-81633390D01*
X82190476Y-81633390D02*
X82095238Y-81681009D01*
X82095238Y-81681009D02*
X81761905Y-81681009D01*
X82714286Y-81300057D02*
X82761905Y-81252438D01*
X82761905Y-81252438D02*
X82857143Y-81204819D01*
X82857143Y-81204819D02*
X83095238Y-81204819D01*
X83095238Y-81204819D02*
X83190476Y-81252438D01*
X83190476Y-81252438D02*
X83238095Y-81300057D01*
X83238095Y-81300057D02*
X83285714Y-81395295D01*
X83285714Y-81395295D02*
X83285714Y-81490533D01*
X83285714Y-81490533D02*
X83238095Y-81633390D01*
X83238095Y-81633390D02*
X82666667Y-82204819D01*
X82666667Y-82204819D02*
X83285714Y-82204819D01*
X90630952Y-88364819D02*
X90297619Y-87888628D01*
X90059524Y-88364819D02*
X90059524Y-87364819D01*
X90059524Y-87364819D02*
X90440476Y-87364819D01*
X90440476Y-87364819D02*
X90535714Y-87412438D01*
X90535714Y-87412438D02*
X90583333Y-87460057D01*
X90583333Y-87460057D02*
X90630952Y-87555295D01*
X90630952Y-87555295D02*
X90630952Y-87698152D01*
X90630952Y-87698152D02*
X90583333Y-87793390D01*
X90583333Y-87793390D02*
X90535714Y-87841009D01*
X90535714Y-87841009D02*
X90440476Y-87888628D01*
X90440476Y-87888628D02*
X90059524Y-87888628D01*
X91059524Y-87841009D02*
X91392857Y-87841009D01*
X91535714Y-88364819D02*
X91059524Y-88364819D01*
X91059524Y-88364819D02*
X91059524Y-87364819D01*
X91059524Y-87364819D02*
X91535714Y-87364819D01*
X92488095Y-88364819D02*
X91916667Y-88364819D01*
X92202381Y-88364819D02*
X92202381Y-87364819D01*
X92202381Y-87364819D02*
X92107143Y-87507676D01*
X92107143Y-87507676D02*
X92011905Y-87602914D01*
X92011905Y-87602914D02*
X91916667Y-87650533D01*
X85800057Y-78459047D02*
X85752438Y-78554285D01*
X85752438Y-78554285D02*
X85657200Y-78649523D01*
X85657200Y-78649523D02*
X85514342Y-78792380D01*
X85514342Y-78792380D02*
X85466723Y-78887618D01*
X85466723Y-78887618D02*
X85466723Y-78982856D01*
X85704819Y-78935237D02*
X85657200Y-79030475D01*
X85657200Y-79030475D02*
X85561961Y-79125713D01*
X85561961Y-79125713D02*
X85371485Y-79173332D01*
X85371485Y-79173332D02*
X85038152Y-79173332D01*
X85038152Y-79173332D02*
X84847676Y-79125713D01*
X84847676Y-79125713D02*
X84752438Y-79030475D01*
X84752438Y-79030475D02*
X84704819Y-78935237D01*
X84704819Y-78935237D02*
X84704819Y-78744761D01*
X84704819Y-78744761D02*
X84752438Y-78649523D01*
X84752438Y-78649523D02*
X84847676Y-78554285D01*
X84847676Y-78554285D02*
X85038152Y-78506666D01*
X85038152Y-78506666D02*
X85371485Y-78506666D01*
X85371485Y-78506666D02*
X85561961Y-78554285D01*
X85561961Y-78554285D02*
X85657200Y-78649523D01*
X85657200Y-78649523D02*
X85704819Y-78744761D01*
X85704819Y-78744761D02*
X85704819Y-78935237D01*
X85704819Y-78078094D02*
X84704819Y-78078094D01*
X84704819Y-78078094D02*
X85704819Y-77506666D01*
X85704819Y-77506666D02*
X84704819Y-77506666D01*
X84800057Y-77078094D02*
X84752438Y-77030475D01*
X84752438Y-77030475D02*
X84704819Y-76935237D01*
X84704819Y-76935237D02*
X84704819Y-76697142D01*
X84704819Y-76697142D02*
X84752438Y-76601904D01*
X84752438Y-76601904D02*
X84800057Y-76554285D01*
X84800057Y-76554285D02*
X84895295Y-76506666D01*
X84895295Y-76506666D02*
X84990533Y-76506666D01*
X84990533Y-76506666D02*
X85133390Y-76554285D01*
X85133390Y-76554285D02*
X85704819Y-77125713D01*
X85704819Y-77125713D02*
X85704819Y-76506666D01*
X108774819Y-76366666D02*
X108298628Y-76699999D01*
X108774819Y-76938094D02*
X107774819Y-76938094D01*
X107774819Y-76938094D02*
X107774819Y-76557142D01*
X107774819Y-76557142D02*
X107822438Y-76461904D01*
X107822438Y-76461904D02*
X107870057Y-76414285D01*
X107870057Y-76414285D02*
X107965295Y-76366666D01*
X107965295Y-76366666D02*
X108108152Y-76366666D01*
X108108152Y-76366666D02*
X108203390Y-76414285D01*
X108203390Y-76414285D02*
X108251009Y-76461904D01*
X108251009Y-76461904D02*
X108298628Y-76557142D01*
X108298628Y-76557142D02*
X108298628Y-76938094D01*
X108679580Y-75366666D02*
X108727200Y-75414285D01*
X108727200Y-75414285D02*
X108774819Y-75557142D01*
X108774819Y-75557142D02*
X108774819Y-75652380D01*
X108774819Y-75652380D02*
X108727200Y-75795237D01*
X108727200Y-75795237D02*
X108631961Y-75890475D01*
X108631961Y-75890475D02*
X108536723Y-75938094D01*
X108536723Y-75938094D02*
X108346247Y-75985713D01*
X108346247Y-75985713D02*
X108203390Y-75985713D01*
X108203390Y-75985713D02*
X108012914Y-75938094D01*
X108012914Y-75938094D02*
X107917676Y-75890475D01*
X107917676Y-75890475D02*
X107822438Y-75795237D01*
X107822438Y-75795237D02*
X107774819Y-75652380D01*
X107774819Y-75652380D02*
X107774819Y-75557142D01*
X107774819Y-75557142D02*
X107822438Y-75414285D01*
X107822438Y-75414285D02*
X107870057Y-75366666D01*
X107870057Y-74985713D02*
X107822438Y-74938094D01*
X107822438Y-74938094D02*
X107774819Y-74842856D01*
X107774819Y-74842856D02*
X107774819Y-74604761D01*
X107774819Y-74604761D02*
X107822438Y-74509523D01*
X107822438Y-74509523D02*
X107870057Y-74461904D01*
X107870057Y-74461904D02*
X107965295Y-74414285D01*
X107965295Y-74414285D02*
X108060533Y-74414285D01*
X108060533Y-74414285D02*
X108203390Y-74461904D01*
X108203390Y-74461904D02*
X108774819Y-75033332D01*
X108774819Y-75033332D02*
X108774819Y-74414285D01*
X116454819Y-95309523D02*
X115454819Y-95309523D01*
X115454819Y-95309523D02*
X116169104Y-94976190D01*
X116169104Y-94976190D02*
X115454819Y-94642857D01*
X115454819Y-94642857D02*
X116454819Y-94642857D01*
X116454819Y-93642857D02*
X116454819Y-94214285D01*
X116454819Y-93928571D02*
X115454819Y-93928571D01*
X115454819Y-93928571D02*
X115597676Y-94023809D01*
X115597676Y-94023809D02*
X115692914Y-94119047D01*
X115692914Y-94119047D02*
X115740533Y-94214285D01*
X98083333Y-72454819D02*
X97750000Y-71978628D01*
X97511905Y-72454819D02*
X97511905Y-71454819D01*
X97511905Y-71454819D02*
X97892857Y-71454819D01*
X97892857Y-71454819D02*
X97988095Y-71502438D01*
X97988095Y-71502438D02*
X98035714Y-71550057D01*
X98035714Y-71550057D02*
X98083333Y-71645295D01*
X98083333Y-71645295D02*
X98083333Y-71788152D01*
X98083333Y-71788152D02*
X98035714Y-71883390D01*
X98035714Y-71883390D02*
X97988095Y-71931009D01*
X97988095Y-71931009D02*
X97892857Y-71978628D01*
X97892857Y-71978628D02*
X97511905Y-71978628D01*
X98845238Y-71931009D02*
X98988095Y-71978628D01*
X98988095Y-71978628D02*
X99035714Y-72026247D01*
X99035714Y-72026247D02*
X99083333Y-72121485D01*
X99083333Y-72121485D02*
X99083333Y-72264342D01*
X99083333Y-72264342D02*
X99035714Y-72359580D01*
X99035714Y-72359580D02*
X98988095Y-72407200D01*
X98988095Y-72407200D02*
X98892857Y-72454819D01*
X98892857Y-72454819D02*
X98511905Y-72454819D01*
X98511905Y-72454819D02*
X98511905Y-71454819D01*
X98511905Y-71454819D02*
X98845238Y-71454819D01*
X98845238Y-71454819D02*
X98940476Y-71502438D01*
X98940476Y-71502438D02*
X98988095Y-71550057D01*
X98988095Y-71550057D02*
X99035714Y-71645295D01*
X99035714Y-71645295D02*
X99035714Y-71740533D01*
X99035714Y-71740533D02*
X98988095Y-71835771D01*
X98988095Y-71835771D02*
X98940476Y-71883390D01*
X98940476Y-71883390D02*
X98845238Y-71931009D01*
X98845238Y-71931009D02*
X98511905Y-71931009D01*
X99940476Y-71788152D02*
X99940476Y-72454819D01*
X99702381Y-71407200D02*
X99464286Y-72121485D01*
X99464286Y-72121485D02*
X100083333Y-72121485D01*
X115109580Y-101166666D02*
X115157200Y-101214285D01*
X115157200Y-101214285D02*
X115204819Y-101357142D01*
X115204819Y-101357142D02*
X115204819Y-101452380D01*
X115204819Y-101452380D02*
X115157200Y-101595237D01*
X115157200Y-101595237D02*
X115061961Y-101690475D01*
X115061961Y-101690475D02*
X114966723Y-101738094D01*
X114966723Y-101738094D02*
X114776247Y-101785713D01*
X114776247Y-101785713D02*
X114633390Y-101785713D01*
X114633390Y-101785713D02*
X114442914Y-101738094D01*
X114442914Y-101738094D02*
X114347676Y-101690475D01*
X114347676Y-101690475D02*
X114252438Y-101595237D01*
X114252438Y-101595237D02*
X114204819Y-101452380D01*
X114204819Y-101452380D02*
X114204819Y-101357142D01*
X114204819Y-101357142D02*
X114252438Y-101214285D01*
X114252438Y-101214285D02*
X114300057Y-101166666D01*
X115204819Y-100214285D02*
X115204819Y-100785713D01*
X115204819Y-100499999D02*
X114204819Y-100499999D01*
X114204819Y-100499999D02*
X114347676Y-100595237D01*
X114347676Y-100595237D02*
X114442914Y-100690475D01*
X114442914Y-100690475D02*
X114490533Y-100785713D01*
X83454819Y-71666666D02*
X82978628Y-71999999D01*
X83454819Y-72238094D02*
X82454819Y-72238094D01*
X82454819Y-72238094D02*
X82454819Y-71857142D01*
X82454819Y-71857142D02*
X82502438Y-71761904D01*
X82502438Y-71761904D02*
X82550057Y-71714285D01*
X82550057Y-71714285D02*
X82645295Y-71666666D01*
X82645295Y-71666666D02*
X82788152Y-71666666D01*
X82788152Y-71666666D02*
X82883390Y-71714285D01*
X82883390Y-71714285D02*
X82931009Y-71761904D01*
X82931009Y-71761904D02*
X82978628Y-71857142D01*
X82978628Y-71857142D02*
X82978628Y-72238094D01*
X82931009Y-70904761D02*
X82978628Y-70761904D01*
X82978628Y-70761904D02*
X83026247Y-70714285D01*
X83026247Y-70714285D02*
X83121485Y-70666666D01*
X83121485Y-70666666D02*
X83264342Y-70666666D01*
X83264342Y-70666666D02*
X83359580Y-70714285D01*
X83359580Y-70714285D02*
X83407200Y-70761904D01*
X83407200Y-70761904D02*
X83454819Y-70857142D01*
X83454819Y-70857142D02*
X83454819Y-71238094D01*
X83454819Y-71238094D02*
X82454819Y-71238094D01*
X82454819Y-71238094D02*
X82454819Y-70904761D01*
X82454819Y-70904761D02*
X82502438Y-70809523D01*
X82502438Y-70809523D02*
X82550057Y-70761904D01*
X82550057Y-70761904D02*
X82645295Y-70714285D01*
X82645295Y-70714285D02*
X82740533Y-70714285D01*
X82740533Y-70714285D02*
X82835771Y-70761904D01*
X82835771Y-70761904D02*
X82883390Y-70809523D01*
X82883390Y-70809523D02*
X82931009Y-70904761D01*
X82931009Y-70904761D02*
X82931009Y-71238094D01*
X82454819Y-70333332D02*
X82454819Y-69714285D01*
X82454819Y-69714285D02*
X82835771Y-70047618D01*
X82835771Y-70047618D02*
X82835771Y-69904761D01*
X82835771Y-69904761D02*
X82883390Y-69809523D01*
X82883390Y-69809523D02*
X82931009Y-69761904D01*
X82931009Y-69761904D02*
X83026247Y-69714285D01*
X83026247Y-69714285D02*
X83264342Y-69714285D01*
X83264342Y-69714285D02*
X83359580Y-69761904D01*
X83359580Y-69761904D02*
X83407200Y-69809523D01*
X83407200Y-69809523D02*
X83454819Y-69904761D01*
X83454819Y-69904761D02*
X83454819Y-70190475D01*
X83454819Y-70190475D02*
X83407200Y-70285713D01*
X83407200Y-70285713D02*
X83359580Y-70333332D01*
D12*
X97216667Y-81264895D02*
X96950000Y-80883942D01*
X96759524Y-81264895D02*
X96759524Y-80464895D01*
X96759524Y-80464895D02*
X97064286Y-80464895D01*
X97064286Y-80464895D02*
X97140476Y-80502990D01*
X97140476Y-80502990D02*
X97178571Y-80541085D01*
X97178571Y-80541085D02*
X97216667Y-80617276D01*
X97216667Y-80617276D02*
X97216667Y-80731561D01*
X97216667Y-80731561D02*
X97178571Y-80807752D01*
X97178571Y-80807752D02*
X97140476Y-80845847D01*
X97140476Y-80845847D02*
X97064286Y-80883942D01*
X97064286Y-80883942D02*
X96759524Y-80883942D01*
X97826190Y-80845847D02*
X97940476Y-80883942D01*
X97940476Y-80883942D02*
X97978571Y-80922038D01*
X97978571Y-80922038D02*
X98016667Y-80998228D01*
X98016667Y-80998228D02*
X98016667Y-81112514D01*
X98016667Y-81112514D02*
X97978571Y-81188704D01*
X97978571Y-81188704D02*
X97940476Y-81226800D01*
X97940476Y-81226800D02*
X97864286Y-81264895D01*
X97864286Y-81264895D02*
X97559524Y-81264895D01*
X97559524Y-81264895D02*
X97559524Y-80464895D01*
X97559524Y-80464895D02*
X97826190Y-80464895D01*
X97826190Y-80464895D02*
X97902381Y-80502990D01*
X97902381Y-80502990D02*
X97940476Y-80541085D01*
X97940476Y-80541085D02*
X97978571Y-80617276D01*
X97978571Y-80617276D02*
X97978571Y-80693466D01*
X97978571Y-80693466D02*
X97940476Y-80769657D01*
X97940476Y-80769657D02*
X97902381Y-80807752D01*
X97902381Y-80807752D02*
X97826190Y-80845847D01*
X97826190Y-80845847D02*
X97559524Y-80845847D01*
X98702381Y-80464895D02*
X98550000Y-80464895D01*
X98550000Y-80464895D02*
X98473809Y-80502990D01*
X98473809Y-80502990D02*
X98435714Y-80541085D01*
X98435714Y-80541085D02*
X98359524Y-80655371D01*
X98359524Y-80655371D02*
X98321428Y-80807752D01*
X98321428Y-80807752D02*
X98321428Y-81112514D01*
X98321428Y-81112514D02*
X98359524Y-81188704D01*
X98359524Y-81188704D02*
X98397619Y-81226800D01*
X98397619Y-81226800D02*
X98473809Y-81264895D01*
X98473809Y-81264895D02*
X98626190Y-81264895D01*
X98626190Y-81264895D02*
X98702381Y-81226800D01*
X98702381Y-81226800D02*
X98740476Y-81188704D01*
X98740476Y-81188704D02*
X98778571Y-81112514D01*
X98778571Y-81112514D02*
X98778571Y-80922038D01*
X98778571Y-80922038D02*
X98740476Y-80845847D01*
X98740476Y-80845847D02*
X98702381Y-80807752D01*
X98702381Y-80807752D02*
X98626190Y-80769657D01*
X98626190Y-80769657D02*
X98473809Y-80769657D01*
X98473809Y-80769657D02*
X98397619Y-80807752D01*
X98397619Y-80807752D02*
X98359524Y-80845847D01*
X98359524Y-80845847D02*
X98321428Y-80922038D01*
D11*
X83994047Y-95074318D02*
X83389285Y-95074318D01*
X83389285Y-95074318D02*
X83389285Y-93804318D01*
X84840714Y-94409080D02*
X84417380Y-94409080D01*
X84417380Y-95074318D02*
X84417380Y-93804318D01*
X84417380Y-93804318D02*
X85022142Y-93804318D01*
X86171190Y-95074318D02*
X85445475Y-95074318D01*
X85808332Y-95074318D02*
X85808332Y-93804318D01*
X85808332Y-93804318D02*
X85687380Y-93985746D01*
X85687380Y-93985746D02*
X85566428Y-94106699D01*
X85566428Y-94106699D02*
X85445475Y-94167175D01*
X118138333Y-70824318D02*
X117533571Y-70824318D01*
X117533571Y-70824318D02*
X117533571Y-69554318D01*
X119226905Y-70824318D02*
X118501190Y-70824318D01*
X118864047Y-70824318D02*
X118864047Y-69554318D01*
X118864047Y-69554318D02*
X118743095Y-69735746D01*
X118743095Y-69735746D02*
X118622143Y-69856699D01*
X118622143Y-69856699D02*
X118501190Y-69917175D01*
D10*
X110583333Y-95679580D02*
X110535714Y-95727200D01*
X110535714Y-95727200D02*
X110392857Y-95774819D01*
X110392857Y-95774819D02*
X110297619Y-95774819D01*
X110297619Y-95774819D02*
X110154762Y-95727200D01*
X110154762Y-95727200D02*
X110059524Y-95631961D01*
X110059524Y-95631961D02*
X110011905Y-95536723D01*
X110011905Y-95536723D02*
X109964286Y-95346247D01*
X109964286Y-95346247D02*
X109964286Y-95203390D01*
X109964286Y-95203390D02*
X110011905Y-95012914D01*
X110011905Y-95012914D02*
X110059524Y-94917676D01*
X110059524Y-94917676D02*
X110154762Y-94822438D01*
X110154762Y-94822438D02*
X110297619Y-94774819D01*
X110297619Y-94774819D02*
X110392857Y-94774819D01*
X110392857Y-94774819D02*
X110535714Y-94822438D01*
X110535714Y-94822438D02*
X110583333Y-94870057D01*
X110964286Y-94870057D02*
X111011905Y-94822438D01*
X111011905Y-94822438D02*
X111107143Y-94774819D01*
X111107143Y-94774819D02*
X111345238Y-94774819D01*
X111345238Y-94774819D02*
X111440476Y-94822438D01*
X111440476Y-94822438D02*
X111488095Y-94870057D01*
X111488095Y-94870057D02*
X111535714Y-94965295D01*
X111535714Y-94965295D02*
X111535714Y-95060533D01*
X111535714Y-95060533D02*
X111488095Y-95203390D01*
X111488095Y-95203390D02*
X110916667Y-95774819D01*
X110916667Y-95774819D02*
X111535714Y-95774819D01*
X102283333Y-88614819D02*
X101950000Y-88138628D01*
X101711905Y-88614819D02*
X101711905Y-87614819D01*
X101711905Y-87614819D02*
X102092857Y-87614819D01*
X102092857Y-87614819D02*
X102188095Y-87662438D01*
X102188095Y-87662438D02*
X102235714Y-87710057D01*
X102235714Y-87710057D02*
X102283333Y-87805295D01*
X102283333Y-87805295D02*
X102283333Y-87948152D01*
X102283333Y-87948152D02*
X102235714Y-88043390D01*
X102235714Y-88043390D02*
X102188095Y-88091009D01*
X102188095Y-88091009D02*
X102092857Y-88138628D01*
X102092857Y-88138628D02*
X101711905Y-88138628D01*
X103283333Y-88519580D02*
X103235714Y-88567200D01*
X103235714Y-88567200D02*
X103092857Y-88614819D01*
X103092857Y-88614819D02*
X102997619Y-88614819D01*
X102997619Y-88614819D02*
X102854762Y-88567200D01*
X102854762Y-88567200D02*
X102759524Y-88471961D01*
X102759524Y-88471961D02*
X102711905Y-88376723D01*
X102711905Y-88376723D02*
X102664286Y-88186247D01*
X102664286Y-88186247D02*
X102664286Y-88043390D01*
X102664286Y-88043390D02*
X102711905Y-87852914D01*
X102711905Y-87852914D02*
X102759524Y-87757676D01*
X102759524Y-87757676D02*
X102854762Y-87662438D01*
X102854762Y-87662438D02*
X102997619Y-87614819D01*
X102997619Y-87614819D02*
X103092857Y-87614819D01*
X103092857Y-87614819D02*
X103235714Y-87662438D01*
X103235714Y-87662438D02*
X103283333Y-87710057D01*
X103616667Y-87614819D02*
X104235714Y-87614819D01*
X104235714Y-87614819D02*
X103902381Y-87995771D01*
X103902381Y-87995771D02*
X104045238Y-87995771D01*
X104045238Y-87995771D02*
X104140476Y-88043390D01*
X104140476Y-88043390D02*
X104188095Y-88091009D01*
X104188095Y-88091009D02*
X104235714Y-88186247D01*
X104235714Y-88186247D02*
X104235714Y-88424342D01*
X104235714Y-88424342D02*
X104188095Y-88519580D01*
X104188095Y-88519580D02*
X104140476Y-88567200D01*
X104140476Y-88567200D02*
X104045238Y-88614819D01*
X104045238Y-88614819D02*
X103759524Y-88614819D01*
X103759524Y-88614819D02*
X103664286Y-88567200D01*
X103664286Y-88567200D02*
X103616667Y-88519580D01*
D11*
X71074318Y-91975952D02*
X71074318Y-92580714D01*
X71074318Y-92580714D02*
X69804318Y-92580714D01*
X70409080Y-91129285D02*
X70409080Y-91552619D01*
X71074318Y-91552619D02*
X69804318Y-91552619D01*
X69804318Y-91552619D02*
X69804318Y-90947857D01*
X69925270Y-90524524D02*
X69864794Y-90464048D01*
X69864794Y-90464048D02*
X69804318Y-90343095D01*
X69804318Y-90343095D02*
X69804318Y-90040714D01*
X69804318Y-90040714D02*
X69864794Y-89919762D01*
X69864794Y-89919762D02*
X69925270Y-89859286D01*
X69925270Y-89859286D02*
X70046222Y-89798809D01*
X70046222Y-89798809D02*
X70167175Y-89798809D01*
X70167175Y-89798809D02*
X70348603Y-89859286D01*
X70348603Y-89859286D02*
X71074318Y-90585000D01*
X71074318Y-90585000D02*
X71074318Y-89798809D01*
D10*
X95824819Y-86709047D02*
X95348628Y-87042380D01*
X95824819Y-87280475D02*
X94824819Y-87280475D01*
X94824819Y-87280475D02*
X94824819Y-86899523D01*
X94824819Y-86899523D02*
X94872438Y-86804285D01*
X94872438Y-86804285D02*
X94920057Y-86756666D01*
X94920057Y-86756666D02*
X95015295Y-86709047D01*
X95015295Y-86709047D02*
X95158152Y-86709047D01*
X95158152Y-86709047D02*
X95253390Y-86756666D01*
X95253390Y-86756666D02*
X95301009Y-86804285D01*
X95301009Y-86804285D02*
X95348628Y-86899523D01*
X95348628Y-86899523D02*
X95348628Y-87280475D01*
X95301009Y-86280475D02*
X95301009Y-85947142D01*
X95824819Y-85804285D02*
X95824819Y-86280475D01*
X95824819Y-86280475D02*
X94824819Y-86280475D01*
X94824819Y-86280475D02*
X94824819Y-85804285D01*
X94824819Y-85470951D02*
X94824819Y-84851904D01*
X94824819Y-84851904D02*
X95205771Y-85185237D01*
X95205771Y-85185237D02*
X95205771Y-85042380D01*
X95205771Y-85042380D02*
X95253390Y-84947142D01*
X95253390Y-84947142D02*
X95301009Y-84899523D01*
X95301009Y-84899523D02*
X95396247Y-84851904D01*
X95396247Y-84851904D02*
X95634342Y-84851904D01*
X95634342Y-84851904D02*
X95729580Y-84899523D01*
X95729580Y-84899523D02*
X95777200Y-84947142D01*
X95777200Y-84947142D02*
X95824819Y-85042380D01*
X95824819Y-85042380D02*
X95824819Y-85328094D01*
X95824819Y-85328094D02*
X95777200Y-85423332D01*
X95777200Y-85423332D02*
X95729580Y-85470951D01*
X85700057Y-84619047D02*
X85652438Y-84714285D01*
X85652438Y-84714285D02*
X85557200Y-84809523D01*
X85557200Y-84809523D02*
X85414342Y-84952380D01*
X85414342Y-84952380D02*
X85366723Y-85047618D01*
X85366723Y-85047618D02*
X85366723Y-85142856D01*
X85604819Y-85095237D02*
X85557200Y-85190475D01*
X85557200Y-85190475D02*
X85461961Y-85285713D01*
X85461961Y-85285713D02*
X85271485Y-85333332D01*
X85271485Y-85333332D02*
X84938152Y-85333332D01*
X84938152Y-85333332D02*
X84747676Y-85285713D01*
X84747676Y-85285713D02*
X84652438Y-85190475D01*
X84652438Y-85190475D02*
X84604819Y-85095237D01*
X84604819Y-85095237D02*
X84604819Y-84904761D01*
X84604819Y-84904761D02*
X84652438Y-84809523D01*
X84652438Y-84809523D02*
X84747676Y-84714285D01*
X84747676Y-84714285D02*
X84938152Y-84666666D01*
X84938152Y-84666666D02*
X85271485Y-84666666D01*
X85271485Y-84666666D02*
X85461961Y-84714285D01*
X85461961Y-84714285D02*
X85557200Y-84809523D01*
X85557200Y-84809523D02*
X85604819Y-84904761D01*
X85604819Y-84904761D02*
X85604819Y-85095237D01*
X85604819Y-84238094D02*
X84604819Y-84238094D01*
X84604819Y-84238094D02*
X85604819Y-83666666D01*
X85604819Y-83666666D02*
X84604819Y-83666666D01*
X85604819Y-82666666D02*
X85604819Y-83238094D01*
X85604819Y-82952380D02*
X84604819Y-82952380D01*
X84604819Y-82952380D02*
X84747676Y-83047618D01*
X84747676Y-83047618D02*
X84842914Y-83142856D01*
X84842914Y-83142856D02*
X84890533Y-83238094D01*
X90434819Y-71756666D02*
X89958628Y-72089999D01*
X90434819Y-72328094D02*
X89434819Y-72328094D01*
X89434819Y-72328094D02*
X89434819Y-71947142D01*
X89434819Y-71947142D02*
X89482438Y-71851904D01*
X89482438Y-71851904D02*
X89530057Y-71804285D01*
X89530057Y-71804285D02*
X89625295Y-71756666D01*
X89625295Y-71756666D02*
X89768152Y-71756666D01*
X89768152Y-71756666D02*
X89863390Y-71804285D01*
X89863390Y-71804285D02*
X89911009Y-71851904D01*
X89911009Y-71851904D02*
X89958628Y-71947142D01*
X89958628Y-71947142D02*
X89958628Y-72328094D01*
X90339580Y-70756666D02*
X90387200Y-70804285D01*
X90387200Y-70804285D02*
X90434819Y-70947142D01*
X90434819Y-70947142D02*
X90434819Y-71042380D01*
X90434819Y-71042380D02*
X90387200Y-71185237D01*
X90387200Y-71185237D02*
X90291961Y-71280475D01*
X90291961Y-71280475D02*
X90196723Y-71328094D01*
X90196723Y-71328094D02*
X90006247Y-71375713D01*
X90006247Y-71375713D02*
X89863390Y-71375713D01*
X89863390Y-71375713D02*
X89672914Y-71328094D01*
X89672914Y-71328094D02*
X89577676Y-71280475D01*
X89577676Y-71280475D02*
X89482438Y-71185237D01*
X89482438Y-71185237D02*
X89434819Y-71042380D01*
X89434819Y-71042380D02*
X89434819Y-70947142D01*
X89434819Y-70947142D02*
X89482438Y-70804285D01*
X89482438Y-70804285D02*
X89530057Y-70756666D01*
X90434819Y-69804285D02*
X90434819Y-70375713D01*
X90434819Y-70089999D02*
X89434819Y-70089999D01*
X89434819Y-70089999D02*
X89577676Y-70185237D01*
X89577676Y-70185237D02*
X89672914Y-70280475D01*
X89672914Y-70280475D02*
X89720533Y-70375713D01*
D12*
X97216667Y-78264895D02*
X96950000Y-77883942D01*
X96759524Y-78264895D02*
X96759524Y-77464895D01*
X96759524Y-77464895D02*
X97064286Y-77464895D01*
X97064286Y-77464895D02*
X97140476Y-77502990D01*
X97140476Y-77502990D02*
X97178571Y-77541085D01*
X97178571Y-77541085D02*
X97216667Y-77617276D01*
X97216667Y-77617276D02*
X97216667Y-77731561D01*
X97216667Y-77731561D02*
X97178571Y-77807752D01*
X97178571Y-77807752D02*
X97140476Y-77845847D01*
X97140476Y-77845847D02*
X97064286Y-77883942D01*
X97064286Y-77883942D02*
X96759524Y-77883942D01*
X97826190Y-77845847D02*
X97940476Y-77883942D01*
X97940476Y-77883942D02*
X97978571Y-77922038D01*
X97978571Y-77922038D02*
X98016667Y-77998228D01*
X98016667Y-77998228D02*
X98016667Y-78112514D01*
X98016667Y-78112514D02*
X97978571Y-78188704D01*
X97978571Y-78188704D02*
X97940476Y-78226800D01*
X97940476Y-78226800D02*
X97864286Y-78264895D01*
X97864286Y-78264895D02*
X97559524Y-78264895D01*
X97559524Y-78264895D02*
X97559524Y-77464895D01*
X97559524Y-77464895D02*
X97826190Y-77464895D01*
X97826190Y-77464895D02*
X97902381Y-77502990D01*
X97902381Y-77502990D02*
X97940476Y-77541085D01*
X97940476Y-77541085D02*
X97978571Y-77617276D01*
X97978571Y-77617276D02*
X97978571Y-77693466D01*
X97978571Y-77693466D02*
X97940476Y-77769657D01*
X97940476Y-77769657D02*
X97902381Y-77807752D01*
X97902381Y-77807752D02*
X97826190Y-77845847D01*
X97826190Y-77845847D02*
X97559524Y-77845847D01*
X98740476Y-77464895D02*
X98359524Y-77464895D01*
X98359524Y-77464895D02*
X98321428Y-77845847D01*
X98321428Y-77845847D02*
X98359524Y-77807752D01*
X98359524Y-77807752D02*
X98435714Y-77769657D01*
X98435714Y-77769657D02*
X98626190Y-77769657D01*
X98626190Y-77769657D02*
X98702381Y-77807752D01*
X98702381Y-77807752D02*
X98740476Y-77845847D01*
X98740476Y-77845847D02*
X98778571Y-77922038D01*
X98778571Y-77922038D02*
X98778571Y-78112514D01*
X98778571Y-78112514D02*
X98740476Y-78188704D01*
X98740476Y-78188704D02*
X98702381Y-78226800D01*
X98702381Y-78226800D02*
X98626190Y-78264895D01*
X98626190Y-78264895D02*
X98435714Y-78264895D01*
X98435714Y-78264895D02*
X98359524Y-78226800D01*
X98359524Y-78226800D02*
X98321428Y-78188704D01*
D10*
X102550057Y-76619047D02*
X102502438Y-76714285D01*
X102502438Y-76714285D02*
X102407200Y-76809523D01*
X102407200Y-76809523D02*
X102264342Y-76952380D01*
X102264342Y-76952380D02*
X102216723Y-77047618D01*
X102216723Y-77047618D02*
X102216723Y-77142856D01*
X102454819Y-77095237D02*
X102407200Y-77190475D01*
X102407200Y-77190475D02*
X102311961Y-77285713D01*
X102311961Y-77285713D02*
X102121485Y-77333332D01*
X102121485Y-77333332D02*
X101788152Y-77333332D01*
X101788152Y-77333332D02*
X101597676Y-77285713D01*
X101597676Y-77285713D02*
X101502438Y-77190475D01*
X101502438Y-77190475D02*
X101454819Y-77095237D01*
X101454819Y-77095237D02*
X101454819Y-76904761D01*
X101454819Y-76904761D02*
X101502438Y-76809523D01*
X101502438Y-76809523D02*
X101597676Y-76714285D01*
X101597676Y-76714285D02*
X101788152Y-76666666D01*
X101788152Y-76666666D02*
X102121485Y-76666666D01*
X102121485Y-76666666D02*
X102311961Y-76714285D01*
X102311961Y-76714285D02*
X102407200Y-76809523D01*
X102407200Y-76809523D02*
X102454819Y-76904761D01*
X102454819Y-76904761D02*
X102454819Y-77095237D01*
X102454819Y-76238094D02*
X101454819Y-76238094D01*
X101454819Y-76238094D02*
X102454819Y-75666666D01*
X102454819Y-75666666D02*
X101454819Y-75666666D01*
X101788152Y-74761904D02*
X102454819Y-74761904D01*
X101407200Y-74999999D02*
X102121485Y-75238094D01*
X102121485Y-75238094D02*
X102121485Y-74619047D01*
X93074819Y-86369047D02*
X92598628Y-86702380D01*
X93074819Y-86940475D02*
X92074819Y-86940475D01*
X92074819Y-86940475D02*
X92074819Y-86559523D01*
X92074819Y-86559523D02*
X92122438Y-86464285D01*
X92122438Y-86464285D02*
X92170057Y-86416666D01*
X92170057Y-86416666D02*
X92265295Y-86369047D01*
X92265295Y-86369047D02*
X92408152Y-86369047D01*
X92408152Y-86369047D02*
X92503390Y-86416666D01*
X92503390Y-86416666D02*
X92551009Y-86464285D01*
X92551009Y-86464285D02*
X92598628Y-86559523D01*
X92598628Y-86559523D02*
X92598628Y-86940475D01*
X92551009Y-85940475D02*
X92551009Y-85607142D01*
X93074819Y-85464285D02*
X93074819Y-85940475D01*
X93074819Y-85940475D02*
X92074819Y-85940475D01*
X92074819Y-85940475D02*
X92074819Y-85464285D01*
X92170057Y-85083332D02*
X92122438Y-85035713D01*
X92122438Y-85035713D02*
X92074819Y-84940475D01*
X92074819Y-84940475D02*
X92074819Y-84702380D01*
X92074819Y-84702380D02*
X92122438Y-84607142D01*
X92122438Y-84607142D02*
X92170057Y-84559523D01*
X92170057Y-84559523D02*
X92265295Y-84511904D01*
X92265295Y-84511904D02*
X92360533Y-84511904D01*
X92360533Y-84511904D02*
X92503390Y-84559523D01*
X92503390Y-84559523D02*
X93074819Y-85130951D01*
X93074819Y-85130951D02*
X93074819Y-84511904D01*
X93050057Y-77269047D02*
X93002438Y-77364285D01*
X93002438Y-77364285D02*
X92907200Y-77459523D01*
X92907200Y-77459523D02*
X92764342Y-77602380D01*
X92764342Y-77602380D02*
X92716723Y-77697618D01*
X92716723Y-77697618D02*
X92716723Y-77792856D01*
X92954819Y-77745237D02*
X92907200Y-77840475D01*
X92907200Y-77840475D02*
X92811961Y-77935713D01*
X92811961Y-77935713D02*
X92621485Y-77983332D01*
X92621485Y-77983332D02*
X92288152Y-77983332D01*
X92288152Y-77983332D02*
X92097676Y-77935713D01*
X92097676Y-77935713D02*
X92002438Y-77840475D01*
X92002438Y-77840475D02*
X91954819Y-77745237D01*
X91954819Y-77745237D02*
X91954819Y-77554761D01*
X91954819Y-77554761D02*
X92002438Y-77459523D01*
X92002438Y-77459523D02*
X92097676Y-77364285D01*
X92097676Y-77364285D02*
X92288152Y-77316666D01*
X92288152Y-77316666D02*
X92621485Y-77316666D01*
X92621485Y-77316666D02*
X92811961Y-77364285D01*
X92811961Y-77364285D02*
X92907200Y-77459523D01*
X92907200Y-77459523D02*
X92954819Y-77554761D01*
X92954819Y-77554761D02*
X92954819Y-77745237D01*
X92954819Y-76888094D02*
X91954819Y-76888094D01*
X91954819Y-76888094D02*
X92954819Y-76316666D01*
X92954819Y-76316666D02*
X91954819Y-76316666D01*
X91954819Y-75935713D02*
X91954819Y-75316666D01*
X91954819Y-75316666D02*
X92335771Y-75649999D01*
X92335771Y-75649999D02*
X92335771Y-75507142D01*
X92335771Y-75507142D02*
X92383390Y-75411904D01*
X92383390Y-75411904D02*
X92431009Y-75364285D01*
X92431009Y-75364285D02*
X92526247Y-75316666D01*
X92526247Y-75316666D02*
X92764342Y-75316666D01*
X92764342Y-75316666D02*
X92859580Y-75364285D01*
X92859580Y-75364285D02*
X92907200Y-75411904D01*
X92907200Y-75411904D02*
X92954819Y-75507142D01*
X92954819Y-75507142D02*
X92954819Y-75792856D01*
X92954819Y-75792856D02*
X92907200Y-75888094D01*
X92907200Y-75888094D02*
X92859580Y-75935713D01*
X77942261Y-86429580D02*
X77894642Y-86477200D01*
X77894642Y-86477200D02*
X77751785Y-86524819D01*
X77751785Y-86524819D02*
X77656547Y-86524819D01*
X77656547Y-86524819D02*
X77513690Y-86477200D01*
X77513690Y-86477200D02*
X77418452Y-86381961D01*
X77418452Y-86381961D02*
X77370833Y-86286723D01*
X77370833Y-86286723D02*
X77323214Y-86096247D01*
X77323214Y-86096247D02*
X77323214Y-85953390D01*
X77323214Y-85953390D02*
X77370833Y-85762914D01*
X77370833Y-85762914D02*
X77418452Y-85667676D01*
X77418452Y-85667676D02*
X77513690Y-85572438D01*
X77513690Y-85572438D02*
X77656547Y-85524819D01*
X77656547Y-85524819D02*
X77751785Y-85524819D01*
X77751785Y-85524819D02*
X77894642Y-85572438D01*
X77894642Y-85572438D02*
X77942261Y-85620057D01*
X78704166Y-86001009D02*
X78370833Y-86001009D01*
X78370833Y-86524819D02*
X78370833Y-85524819D01*
X78370833Y-85524819D02*
X78847023Y-85524819D01*
X79180357Y-85620057D02*
X79227976Y-85572438D01*
X79227976Y-85572438D02*
X79323214Y-85524819D01*
X79323214Y-85524819D02*
X79561309Y-85524819D01*
X79561309Y-85524819D02*
X79656547Y-85572438D01*
X79656547Y-85572438D02*
X79704166Y-85620057D01*
X79704166Y-85620057D02*
X79751785Y-85715295D01*
X79751785Y-85715295D02*
X79751785Y-85810533D01*
X79751785Y-85810533D02*
X79704166Y-85953390D01*
X79704166Y-85953390D02*
X79132738Y-86524819D01*
X79132738Y-86524819D02*
X79751785Y-86524819D01*
D11*
X90074318Y-109187381D02*
X90074318Y-109792143D01*
X90074318Y-109792143D02*
X88804318Y-109792143D01*
X90074318Y-108764048D02*
X88804318Y-108764048D01*
X88804318Y-108764048D02*
X89711461Y-108340714D01*
X89711461Y-108340714D02*
X88804318Y-107917381D01*
X88804318Y-107917381D02*
X90074318Y-107917381D01*
X88925270Y-107373095D02*
X88864794Y-107312619D01*
X88864794Y-107312619D02*
X88804318Y-107191666D01*
X88804318Y-107191666D02*
X88804318Y-106889285D01*
X88804318Y-106889285D02*
X88864794Y-106768333D01*
X88864794Y-106768333D02*
X88925270Y-106707857D01*
X88925270Y-106707857D02*
X89046222Y-106647380D01*
X89046222Y-106647380D02*
X89167175Y-106647380D01*
X89167175Y-106647380D02*
X89348603Y-106707857D01*
X89348603Y-106707857D02*
X90074318Y-107433571D01*
X90074318Y-107433571D02*
X90074318Y-106647380D01*
D10*
X83444819Y-89326666D02*
X82968628Y-89659999D01*
X83444819Y-89898094D02*
X82444819Y-89898094D01*
X82444819Y-89898094D02*
X82444819Y-89517142D01*
X82444819Y-89517142D02*
X82492438Y-89421904D01*
X82492438Y-89421904D02*
X82540057Y-89374285D01*
X82540057Y-89374285D02*
X82635295Y-89326666D01*
X82635295Y-89326666D02*
X82778152Y-89326666D01*
X82778152Y-89326666D02*
X82873390Y-89374285D01*
X82873390Y-89374285D02*
X82921009Y-89421904D01*
X82921009Y-89421904D02*
X82968628Y-89517142D01*
X82968628Y-89517142D02*
X82968628Y-89898094D01*
X82921009Y-88564761D02*
X82968628Y-88421904D01*
X82968628Y-88421904D02*
X83016247Y-88374285D01*
X83016247Y-88374285D02*
X83111485Y-88326666D01*
X83111485Y-88326666D02*
X83254342Y-88326666D01*
X83254342Y-88326666D02*
X83349580Y-88374285D01*
X83349580Y-88374285D02*
X83397200Y-88421904D01*
X83397200Y-88421904D02*
X83444819Y-88517142D01*
X83444819Y-88517142D02*
X83444819Y-88898094D01*
X83444819Y-88898094D02*
X82444819Y-88898094D01*
X82444819Y-88898094D02*
X82444819Y-88564761D01*
X82444819Y-88564761D02*
X82492438Y-88469523D01*
X82492438Y-88469523D02*
X82540057Y-88421904D01*
X82540057Y-88421904D02*
X82635295Y-88374285D01*
X82635295Y-88374285D02*
X82730533Y-88374285D01*
X82730533Y-88374285D02*
X82825771Y-88421904D01*
X82825771Y-88421904D02*
X82873390Y-88469523D01*
X82873390Y-88469523D02*
X82921009Y-88564761D01*
X82921009Y-88564761D02*
X82921009Y-88898094D01*
X83444819Y-87374285D02*
X83444819Y-87945713D01*
X83444819Y-87659999D02*
X82444819Y-87659999D01*
X82444819Y-87659999D02*
X82587676Y-87755237D01*
X82587676Y-87755237D02*
X82682914Y-87850475D01*
X82682914Y-87850475D02*
X82730533Y-87945713D01*
X96359580Y-107988095D02*
X96407200Y-108035714D01*
X96407200Y-108035714D02*
X96454819Y-108178571D01*
X96454819Y-108178571D02*
X96454819Y-108273809D01*
X96454819Y-108273809D02*
X96407200Y-108416666D01*
X96407200Y-108416666D02*
X96311961Y-108511904D01*
X96311961Y-108511904D02*
X96216723Y-108559523D01*
X96216723Y-108559523D02*
X96026247Y-108607142D01*
X96026247Y-108607142D02*
X95883390Y-108607142D01*
X95883390Y-108607142D02*
X95692914Y-108559523D01*
X95692914Y-108559523D02*
X95597676Y-108511904D01*
X95597676Y-108511904D02*
X95502438Y-108416666D01*
X95502438Y-108416666D02*
X95454819Y-108273809D01*
X95454819Y-108273809D02*
X95454819Y-108178571D01*
X95454819Y-108178571D02*
X95502438Y-108035714D01*
X95502438Y-108035714D02*
X95550057Y-107988095D01*
X96454819Y-107559523D02*
X95454819Y-107559523D01*
X95454819Y-107559523D02*
X96169104Y-107226190D01*
X96169104Y-107226190D02*
X95454819Y-106892857D01*
X95454819Y-106892857D02*
X96454819Y-106892857D01*
X96454819Y-105892857D02*
X96454819Y-106464285D01*
X96454819Y-106178571D02*
X95454819Y-106178571D01*
X95454819Y-106178571D02*
X95597676Y-106273809D01*
X95597676Y-106273809D02*
X95692914Y-106369047D01*
X95692914Y-106369047D02*
X95740533Y-106464285D01*
X105850057Y-82435238D02*
X105802438Y-82530476D01*
X105802438Y-82530476D02*
X105707200Y-82625714D01*
X105707200Y-82625714D02*
X105564342Y-82768571D01*
X105564342Y-82768571D02*
X105516723Y-82863809D01*
X105516723Y-82863809D02*
X105516723Y-82959047D01*
X105754819Y-82911428D02*
X105707200Y-83006666D01*
X105707200Y-83006666D02*
X105611961Y-83101904D01*
X105611961Y-83101904D02*
X105421485Y-83149523D01*
X105421485Y-83149523D02*
X105088152Y-83149523D01*
X105088152Y-83149523D02*
X104897676Y-83101904D01*
X104897676Y-83101904D02*
X104802438Y-83006666D01*
X104802438Y-83006666D02*
X104754819Y-82911428D01*
X104754819Y-82911428D02*
X104754819Y-82720952D01*
X104754819Y-82720952D02*
X104802438Y-82625714D01*
X104802438Y-82625714D02*
X104897676Y-82530476D01*
X104897676Y-82530476D02*
X105088152Y-82482857D01*
X105088152Y-82482857D02*
X105421485Y-82482857D01*
X105421485Y-82482857D02*
X105611961Y-82530476D01*
X105611961Y-82530476D02*
X105707200Y-82625714D01*
X105707200Y-82625714D02*
X105754819Y-82720952D01*
X105754819Y-82720952D02*
X105754819Y-82911428D01*
X105754819Y-82054285D02*
X104754819Y-82054285D01*
X104754819Y-82054285D02*
X104754819Y-81673333D01*
X104754819Y-81673333D02*
X104802438Y-81578095D01*
X104802438Y-81578095D02*
X104850057Y-81530476D01*
X104850057Y-81530476D02*
X104945295Y-81482857D01*
X104945295Y-81482857D02*
X105088152Y-81482857D01*
X105088152Y-81482857D02*
X105183390Y-81530476D01*
X105183390Y-81530476D02*
X105231009Y-81578095D01*
X105231009Y-81578095D02*
X105278628Y-81673333D01*
X105278628Y-81673333D02*
X105278628Y-82054285D01*
X105754819Y-80530476D02*
X105754819Y-81101904D01*
X105754819Y-80816190D02*
X104754819Y-80816190D01*
X104754819Y-80816190D02*
X104897676Y-80911428D01*
X104897676Y-80911428D02*
X104992914Y-81006666D01*
X104992914Y-81006666D02*
X105040533Y-81101904D01*
X94617261Y-89429580D02*
X94569642Y-89477200D01*
X94569642Y-89477200D02*
X94426785Y-89524819D01*
X94426785Y-89524819D02*
X94331547Y-89524819D01*
X94331547Y-89524819D02*
X94188690Y-89477200D01*
X94188690Y-89477200D02*
X94093452Y-89381961D01*
X94093452Y-89381961D02*
X94045833Y-89286723D01*
X94045833Y-89286723D02*
X93998214Y-89096247D01*
X93998214Y-89096247D02*
X93998214Y-88953390D01*
X93998214Y-88953390D02*
X94045833Y-88762914D01*
X94045833Y-88762914D02*
X94093452Y-88667676D01*
X94093452Y-88667676D02*
X94188690Y-88572438D01*
X94188690Y-88572438D02*
X94331547Y-88524819D01*
X94331547Y-88524819D02*
X94426785Y-88524819D01*
X94426785Y-88524819D02*
X94569642Y-88572438D01*
X94569642Y-88572438D02*
X94617261Y-88620057D01*
X95379166Y-89001009D02*
X95045833Y-89001009D01*
X95045833Y-89524819D02*
X95045833Y-88524819D01*
X95045833Y-88524819D02*
X95522023Y-88524819D01*
X96426785Y-89524819D02*
X95855357Y-89524819D01*
X96141071Y-89524819D02*
X96141071Y-88524819D01*
X96141071Y-88524819D02*
X96045833Y-88667676D01*
X96045833Y-88667676D02*
X95950595Y-88762914D01*
X95950595Y-88762914D02*
X95855357Y-88810533D01*
X100204819Y-87076666D02*
X99728628Y-87409999D01*
X100204819Y-87648094D02*
X99204819Y-87648094D01*
X99204819Y-87648094D02*
X99204819Y-87267142D01*
X99204819Y-87267142D02*
X99252438Y-87171904D01*
X99252438Y-87171904D02*
X99300057Y-87124285D01*
X99300057Y-87124285D02*
X99395295Y-87076666D01*
X99395295Y-87076666D02*
X99538152Y-87076666D01*
X99538152Y-87076666D02*
X99633390Y-87124285D01*
X99633390Y-87124285D02*
X99681009Y-87171904D01*
X99681009Y-87171904D02*
X99728628Y-87267142D01*
X99728628Y-87267142D02*
X99728628Y-87648094D01*
X99681009Y-86314761D02*
X99728628Y-86171904D01*
X99728628Y-86171904D02*
X99776247Y-86124285D01*
X99776247Y-86124285D02*
X99871485Y-86076666D01*
X99871485Y-86076666D02*
X100014342Y-86076666D01*
X100014342Y-86076666D02*
X100109580Y-86124285D01*
X100109580Y-86124285D02*
X100157200Y-86171904D01*
X100157200Y-86171904D02*
X100204819Y-86267142D01*
X100204819Y-86267142D02*
X100204819Y-86648094D01*
X100204819Y-86648094D02*
X99204819Y-86648094D01*
X99204819Y-86648094D02*
X99204819Y-86314761D01*
X99204819Y-86314761D02*
X99252438Y-86219523D01*
X99252438Y-86219523D02*
X99300057Y-86171904D01*
X99300057Y-86171904D02*
X99395295Y-86124285D01*
X99395295Y-86124285D02*
X99490533Y-86124285D01*
X99490533Y-86124285D02*
X99585771Y-86171904D01*
X99585771Y-86171904D02*
X99633390Y-86219523D01*
X99633390Y-86219523D02*
X99681009Y-86314761D01*
X99681009Y-86314761D02*
X99681009Y-86648094D01*
X99204819Y-85743332D02*
X99204819Y-85076666D01*
X99204819Y-85076666D02*
X100204819Y-85505237D01*
D11*
X104074318Y-100726666D02*
X104074318Y-101331428D01*
X104074318Y-101331428D02*
X102804318Y-101331428D01*
X102925270Y-100363809D02*
X102864794Y-100303333D01*
X102864794Y-100303333D02*
X102804318Y-100182380D01*
X102804318Y-100182380D02*
X102804318Y-99879999D01*
X102804318Y-99879999D02*
X102864794Y-99759047D01*
X102864794Y-99759047D02*
X102925270Y-99698571D01*
X102925270Y-99698571D02*
X103046222Y-99638094D01*
X103046222Y-99638094D02*
X103167175Y-99638094D01*
X103167175Y-99638094D02*
X103348603Y-99698571D01*
X103348603Y-99698571D02*
X104074318Y-100424285D01*
X104074318Y-100424285D02*
X104074318Y-99638094D01*
D10*
X69166667Y-65704819D02*
X69166667Y-64704819D01*
X69166667Y-64704819D02*
X69500000Y-65419104D01*
X69500000Y-65419104D02*
X69833333Y-64704819D01*
X69833333Y-64704819D02*
X69833333Y-65704819D01*
X70309524Y-65704819D02*
X70309524Y-64704819D01*
X70309524Y-65181009D02*
X70880952Y-65181009D01*
X70880952Y-65704819D02*
X70880952Y-64704819D01*
X71785714Y-65038152D02*
X71785714Y-65704819D01*
X71547619Y-64657200D02*
X71309524Y-65371485D01*
X71309524Y-65371485D02*
X71928571Y-65371485D01*
D13*
%TO.C,LM1*%
X101120000Y-114795000D02*
X104880000Y-114795000D01*
X101120000Y-109205000D02*
X104880000Y-109205000D01*
D14*
%TO.C,RBI2*%
X113927064Y-87265000D02*
X113472936Y-87265000D01*
X113927064Y-88735000D02*
X113472936Y-88735000D01*
%TO.C,RBI1*%
X117472936Y-87265000D02*
X117927064Y-87265000D01*
X117472936Y-88735000D02*
X117927064Y-88735000D01*
%TO.C,R3*%
X110560436Y-90250000D02*
X114914564Y-90250000D01*
X110560436Y-93670000D02*
X114914564Y-93670000D01*
%TO.C,R2*%
X93540000Y-97964564D02*
X93540000Y-93610436D01*
X96960000Y-97964564D02*
X96960000Y-93610436D01*
D13*
%TO.C,J2*%
X68150000Y-77300000D02*
X60900000Y-77300000D01*
X60900000Y-77300000D02*
X60900000Y-68300000D01*
X60900000Y-68300000D02*
X75400000Y-68300000D01*
X77831000Y-73361000D02*
G75*
G02*
X77703000Y-73361000I-64000J0D01*
G01*
X77703000Y-73361000D02*
G75*
G02*
X77831000Y-73361000I64000J0D01*
G01*
%TO.C,H1*%
X109840000Y-73460000D02*
X135240000Y-73460000D01*
X109840000Y-86460000D02*
X109840000Y-73460000D01*
X109840000Y-115360000D02*
X109840000Y-102360000D01*
X109840000Y-115360000D02*
X135240000Y-115360000D01*
X121740000Y-86460000D02*
X109840000Y-86460000D01*
X121740000Y-102360000D02*
X109840000Y-102360000D01*
X121740000Y-102360000D02*
X121740000Y-86460000D01*
X123340000Y-102360000D02*
X123340000Y-86460000D01*
X135240000Y-73460000D02*
X135240000Y-86460000D01*
X135240000Y-86460000D02*
X123340000Y-86460000D01*
X135240000Y-102360000D02*
X123340000Y-102360000D01*
X135240000Y-115360000D02*
X135240000Y-102360000D01*
%TO.C,B1*%
X66250000Y-127900000D02*
X68750000Y-127900000D01*
X66250000Y-137700000D02*
X66250000Y-127900000D01*
X66350000Y-102500000D02*
X71750000Y-102500000D01*
X66350000Y-117400000D02*
X66350000Y-102500000D01*
X68750000Y-127900000D02*
X69250000Y-127900000D01*
X76290000Y-101600000D02*
X76290000Y-101800000D01*
X76290000Y-101800000D02*
X76290000Y-101600000D01*
X78750000Y-127900000D02*
X81250000Y-127900000D01*
X81150000Y-102500000D02*
X78830000Y-102500000D01*
X81150000Y-102500000D02*
X81150000Y-117400000D01*
X81150000Y-117400000D02*
X66350000Y-117400000D01*
X81250000Y-127900000D02*
X81250000Y-137700000D01*
X81250000Y-137700000D02*
X66250000Y-137700000D01*
D14*
%TO.C,R1*%
X81660000Y-74227064D02*
X81660000Y-72772936D01*
X79840000Y-74227064D02*
X79840000Y-72772936D01*
%TO.C,CF3*%
X74526248Y-99515000D02*
X75048752Y-99515000D01*
X74526248Y-100985000D02*
X75048752Y-100985000D01*
%TO.C,CB1*%
X82223752Y-77105000D02*
X81701248Y-77105000D01*
X82223752Y-78575000D02*
X81701248Y-78575000D01*
%TO.C,RB2*%
X82227064Y-80735000D02*
X81772936Y-80735000D01*
X82227064Y-79265000D02*
X81772936Y-79265000D01*
%TO.C,RE1*%
X87522936Y-88645000D02*
X87977064Y-88645000D01*
X87522936Y-87175000D02*
X87977064Y-87175000D01*
%TO.C,QN2*%
X88450000Y-79860000D02*
X88450000Y-76010000D01*
X88450000Y-79860000D02*
G75*
G02*
X88440122Y-75971389I-1700000J1940000D01*
G01*
%TO.C,RC2*%
X105590000Y-74972936D02*
X105590000Y-76427064D01*
X107410000Y-74972936D02*
X107410000Y-76427064D01*
%TO.C,M1*%
X116934000Y-89380000D02*
X116934000Y-99620000D01*
X120065000Y-89380000D02*
X120065000Y-99620000D01*
X121575000Y-89380000D02*
X116934000Y-89380000D01*
X121575000Y-89380000D02*
X121575000Y-99620000D01*
X121575000Y-92650000D02*
X120065000Y-92650000D01*
X121575000Y-96351000D02*
X120065000Y-96351000D01*
X121575000Y-99620000D02*
X116934000Y-99620000D01*
%TO.C,RB4*%
X98522936Y-74645000D02*
X98977064Y-74645000D01*
X98522936Y-73175000D02*
X98977064Y-73175000D01*
%TO.C,C1*%
X114015000Y-98223752D02*
X114015000Y-97701248D01*
X115485000Y-98223752D02*
X115485000Y-97701248D01*
%TO.C,RB3*%
X83735000Y-74432936D02*
X83735000Y-74887064D01*
X82265000Y-74432936D02*
X82265000Y-74887064D01*
%TO.C,RB6*%
X98522936Y-78595000D02*
X98977064Y-78595000D01*
X98522936Y-80065000D02*
X98977064Y-80065000D01*
D13*
%TO.C,LF1*%
X80550000Y-90755000D02*
X88950000Y-90755000D01*
X88950000Y-98245000D02*
X80550000Y-98245000D01*
%TO.C,L1*%
X124100000Y-72850000D02*
X112100000Y-72850000D01*
X124100000Y-70250000D02*
X133400000Y-70250000D01*
X124100000Y-67650000D02*
X124100000Y-72850000D01*
X112100000Y-72850000D02*
X112100000Y-67650000D01*
X112100000Y-67650000D02*
X124100000Y-67650000D01*
X102800000Y-70250000D02*
X112100000Y-70250000D01*
D14*
%TO.C,C2*%
X110488748Y-97735000D02*
X111011252Y-97735000D01*
X110488748Y-96265000D02*
X111011252Y-96265000D01*
%TO.C,RC3*%
X103677064Y-85430000D02*
X102222936Y-85430000D01*
X103677064Y-87250000D02*
X102222936Y-87250000D01*
D13*
%TO.C,LF2*%
X66755000Y-95420000D02*
X66755000Y-87020000D01*
X74245000Y-87020000D02*
X74245000Y-95420000D01*
D14*
%TO.C,RE3*%
X94460000Y-81162936D02*
X94460000Y-82617064D01*
X96280000Y-81162936D02*
X96280000Y-82617064D01*
%TO.C,QN1*%
X88450000Y-86020000D02*
G75*
G02*
X88440122Y-82131389I-1700000J1940000D01*
G01*
X88450000Y-86020000D02*
X88450000Y-82170000D01*
%TO.C,RC1*%
X90890000Y-74292936D02*
X90890000Y-75747064D01*
X89070000Y-74292936D02*
X89070000Y-75747064D01*
%TO.C,RB5*%
X98977064Y-77065000D02*
X98522936Y-77065000D01*
X98977064Y-75595000D02*
X98522936Y-75595000D01*
%TO.C,QN4*%
X105200000Y-78020000D02*
X105200000Y-74170000D01*
X105200000Y-78020000D02*
G75*
G02*
X105190122Y-74131389I-1700000J1940000D01*
G01*
%TO.C,RE2*%
X91710000Y-81162936D02*
X91710000Y-82617064D01*
X93530000Y-81162936D02*
X93530000Y-82617064D01*
%TO.C,QN3*%
X95700000Y-78590000D02*
X95700000Y-74740000D01*
X95700000Y-78590000D02*
G75*
G02*
X95690122Y-74701389I-1700000J1940000D01*
G01*
%TO.C,CF2*%
X78276248Y-87015000D02*
X78798752Y-87015000D01*
X78276248Y-88485000D02*
X78798752Y-88485000D01*
D13*
%TO.C,LM2*%
X89500000Y-100350000D02*
G75*
G02*
X89500000Y-100250000I0J50000D01*
G01*
X89500000Y-100250000D02*
G75*
G02*
X89500000Y-100350000I0J-50000D01*
G01*
X89500000Y-100250000D02*
G75*
G02*
X89500000Y-100350000I0J-50000D01*
G01*
X93245000Y-112750000D02*
X93245000Y-112750000D01*
X93245000Y-112750000D02*
X93245000Y-103750000D01*
X93245000Y-103750000D02*
X93245000Y-112750000D01*
X93245000Y-103750000D02*
X93245000Y-103750000D01*
X89500000Y-100350000D02*
X89500000Y-100350000D01*
X89500000Y-100350000D02*
X89500000Y-100350000D01*
X89500000Y-100250000D02*
X89500000Y-100250000D01*
X85755000Y-112750000D02*
X85755000Y-112750000D01*
X85755000Y-112750000D02*
X85755000Y-103750000D01*
X85755000Y-103750000D02*
X85755000Y-112750000D01*
X85755000Y-103750000D02*
X85755000Y-103750000D01*
D14*
%TO.C,RB1*%
X82255000Y-84932936D02*
X82255000Y-85387064D01*
X83725000Y-84932936D02*
X83725000Y-85387064D01*
%TO.C,CM1*%
X95265000Y-111261252D02*
X95265000Y-110738748D01*
X96735000Y-111261252D02*
X96735000Y-110738748D01*
%TO.C,QP1*%
X102050000Y-79820000D02*
G75*
G02*
X102059878Y-83708611I1700000J-1940000D01*
G01*
X102050000Y-79820000D02*
X102050000Y-83670000D01*
%TO.C,CF1*%
X94951248Y-90015000D02*
X95473752Y-90015000D01*
X94951248Y-91485000D02*
X95473752Y-91485000D01*
%TO.C,RB7*%
X99015000Y-82612936D02*
X99015000Y-83067064D01*
X100485000Y-82612936D02*
X100485000Y-83067064D01*
D13*
%TO.C,L2*%
X103500000Y-107015000D02*
G75*
G02*
X103500000Y-106915000I0J50000D01*
G01*
X103500000Y-107015000D02*
G75*
G02*
X103500000Y-106915000I0J50000D01*
G01*
X103500000Y-106915000D02*
G75*
G02*
X103500000Y-107015000I0J-50000D01*
G01*
X107245000Y-103515000D02*
X107245000Y-103515000D01*
X107245000Y-103515000D02*
X107245000Y-97515000D01*
X107245000Y-97515000D02*
X107245000Y-103515000D01*
X107245000Y-97515000D02*
X107245000Y-97515000D01*
X103500000Y-107015000D02*
X103500000Y-107015000D01*
X103500000Y-106915000D02*
X103500000Y-106915000D01*
X103500000Y-106915000D02*
X103500000Y-106915000D01*
X99755000Y-103515000D02*
X99755000Y-103515000D01*
X99755000Y-103515000D02*
X99755000Y-97515000D01*
X99755000Y-97515000D02*
X99755000Y-103515000D01*
X99755000Y-97515000D02*
X99755000Y-97515000D01*
%TD*%
%LPC*%
D10*
X127420112Y-100596009D02*
X127562969Y-100643628D01*
X127562969Y-100643628D02*
X127610588Y-100691247D01*
X127610588Y-100691247D02*
X127658207Y-100786485D01*
X127658207Y-100786485D02*
X127658207Y-100929342D01*
X127658207Y-100929342D02*
X127610588Y-101024580D01*
X127610588Y-101024580D02*
X127562969Y-101072200D01*
X127562969Y-101072200D02*
X127467731Y-101119819D01*
X127467731Y-101119819D02*
X127086779Y-101119819D01*
X127086779Y-101119819D02*
X127086779Y-100119819D01*
X127086779Y-100119819D02*
X127420112Y-100119819D01*
X127420112Y-100119819D02*
X127515350Y-100167438D01*
X127515350Y-100167438D02*
X127562969Y-100215057D01*
X127562969Y-100215057D02*
X127610588Y-100310295D01*
X127610588Y-100310295D02*
X127610588Y-100405533D01*
X127610588Y-100405533D02*
X127562969Y-100500771D01*
X127562969Y-100500771D02*
X127515350Y-100548390D01*
X127515350Y-100548390D02*
X127420112Y-100596009D01*
X127420112Y-100596009D02*
X127086779Y-100596009D01*
X128610588Y-100167438D02*
X128515350Y-100119819D01*
X128515350Y-100119819D02*
X128372493Y-100119819D01*
X128372493Y-100119819D02*
X128229636Y-100167438D01*
X128229636Y-100167438D02*
X128134398Y-100262676D01*
X128134398Y-100262676D02*
X128086779Y-100357914D01*
X128086779Y-100357914D02*
X128039160Y-100548390D01*
X128039160Y-100548390D02*
X128039160Y-100691247D01*
X128039160Y-100691247D02*
X128086779Y-100881723D01*
X128086779Y-100881723D02*
X128134398Y-100976961D01*
X128134398Y-100976961D02*
X128229636Y-101072200D01*
X128229636Y-101072200D02*
X128372493Y-101119819D01*
X128372493Y-101119819D02*
X128467731Y-101119819D01*
X128467731Y-101119819D02*
X128610588Y-101072200D01*
X128610588Y-101072200D02*
X128658207Y-101024580D01*
X128658207Y-101024580D02*
X128658207Y-100691247D01*
X128658207Y-100691247D02*
X128467731Y-100691247D01*
D15*
%TO.C,LM1*%
X99320000Y-112000000D03*
X106680000Y-112000000D03*
%TD*%
D16*
%TO.C,RBI2*%
X112700000Y-88000000D03*
X114700000Y-88000000D03*
%TD*%
D17*
%TO.C,RBI1*%
X116700000Y-88000000D03*
X118700000Y-88000000D03*
%TD*%
D18*
%TO.C,MH2*%
X133510000Y-114400000D03*
%TD*%
%TO.C,MH1*%
X133500000Y-65400000D03*
%TD*%
D19*
%TO.C,R3*%
X109775000Y-91960000D03*
X115700000Y-91960000D03*
%TD*%
D20*
%TO.C,R2*%
X95250000Y-98750000D03*
X95250000Y-92825000D03*
%TD*%
D21*
%TO.C,J2*%
X74500000Y-73500000D03*
X68700000Y-73500000D03*
X71500000Y-78300000D03*
%TD*%
D22*
%TO.C,H1*%
X122540000Y-107110000D03*
D23*
X122540000Y-81710000D03*
%TD*%
D24*
%TO.C,B1*%
X68670000Y-108080000D03*
X78830000Y-108080000D03*
D25*
X73750000Y-103000000D03*
D26*
X76290000Y-103000000D03*
%TD*%
D27*
%TO.C,J1*%
X128630000Y-64130000D03*
X128630000Y-66670000D03*
X126090000Y-64130000D03*
X126090000Y-66670000D03*
X123550000Y-64130000D03*
X123550000Y-66670000D03*
X121010000Y-64130000D03*
X121010000Y-66670000D03*
X118470000Y-64130000D03*
X118470000Y-66670000D03*
X115930000Y-64130000D03*
X115930000Y-66670000D03*
X113390000Y-64130000D03*
X113390000Y-66670000D03*
X110850000Y-64130000D03*
X110850000Y-66670000D03*
X108310000Y-64130000D03*
X108310000Y-66670000D03*
X105770000Y-64130000D03*
X105770000Y-66670000D03*
X103230000Y-64130000D03*
X103230000Y-66670000D03*
X100690000Y-64130000D03*
X100690000Y-66670000D03*
X98150000Y-64130000D03*
X98150000Y-66670000D03*
X95610000Y-64130000D03*
X95610000Y-66670000D03*
X93070000Y-64130000D03*
X93070000Y-66670000D03*
X90530000Y-64130000D03*
X90530000Y-66670000D03*
X87990000Y-64130000D03*
X87990000Y-66670000D03*
X85450000Y-64130000D03*
X85450000Y-66670000D03*
X82910000Y-64130000D03*
X82910000Y-66670000D03*
X80370000Y-64130000D03*
D28*
X80370000Y-66670000D03*
%TD*%
D29*
%TO.C,R1*%
X80750000Y-75050000D03*
X80750000Y-71950000D03*
%TD*%
D30*
%TO.C,CF3*%
X75825000Y-100250000D03*
X73750000Y-100250000D03*
%TD*%
D31*
%TO.C,CB1*%
X83000000Y-77840000D03*
X80925000Y-77840000D03*
%TD*%
D16*
%TO.C,RB2*%
X81000000Y-80000000D03*
X83000000Y-80000000D03*
%TD*%
D17*
%TO.C,RE1*%
X86750000Y-87910000D03*
X88750000Y-87910000D03*
%TD*%
D32*
%TO.C,QN2*%
X86750000Y-79110000D03*
D33*
X86750000Y-77840000D03*
X86750000Y-76570000D03*
%TD*%
D34*
%TO.C,RC2*%
X106500000Y-77250000D03*
X106500000Y-74150000D03*
%TD*%
D35*
%TO.C,M1*%
X118305000Y-91960000D03*
D36*
X118305000Y-94500000D03*
X118305000Y-97040000D03*
%TD*%
D17*
%TO.C,RB4*%
X97750000Y-73910000D03*
X99750000Y-73910000D03*
%TD*%
D37*
%TO.C,C1*%
X114750000Y-96925000D03*
X114750000Y-99000000D03*
%TD*%
D38*
%TO.C,RB3*%
X83000000Y-75660000D03*
X83000000Y-73660000D03*
%TD*%
D17*
%TO.C,RB6*%
X97750000Y-79330000D03*
X99750000Y-79330000D03*
%TD*%
D39*
%TO.C,LF1*%
X90530000Y-94500000D03*
X78970000Y-94500000D03*
%TD*%
D40*
%TO.C,L1*%
X134500000Y-70250000D03*
X101700000Y-70250000D03*
%TD*%
D30*
%TO.C,C2*%
X111787500Y-97000000D03*
X109712500Y-97000000D03*
%TD*%
D41*
%TO.C,RC3*%
X104500000Y-86340000D03*
X101400000Y-86340000D03*
%TD*%
D42*
%TO.C,LF2*%
X70500000Y-85440000D03*
X70500000Y-97000000D03*
%TD*%
D34*
%TO.C,RE3*%
X95370000Y-80340000D03*
X95370000Y-83440000D03*
%TD*%
D33*
%TO.C,QN1*%
X86750000Y-82730000D03*
X86750000Y-84000000D03*
D32*
X86750000Y-85270000D03*
%TD*%
D34*
%TO.C,RC1*%
X89980000Y-76570000D03*
X89980000Y-73470000D03*
%TD*%
D16*
%TO.C,RB5*%
X97750000Y-76330000D03*
X99750000Y-76330000D03*
%TD*%
D32*
%TO.C,QN4*%
X103500000Y-77270000D03*
D33*
X103500000Y-76000000D03*
X103500000Y-74730000D03*
%TD*%
D34*
%TO.C,RE2*%
X92620000Y-80340000D03*
X92620000Y-83440000D03*
%TD*%
D32*
%TO.C,QN3*%
X94000000Y-77840000D03*
D33*
X94000000Y-76570000D03*
X94000000Y-75300000D03*
%TD*%
D30*
%TO.C,CF2*%
X79575000Y-87750000D03*
X77500000Y-87750000D03*
%TD*%
D42*
%TO.C,LM2*%
X89500000Y-114475000D03*
X89500000Y-102025000D03*
%TD*%
D38*
%TO.C,RB1*%
X82990000Y-84160000D03*
X82990000Y-86160000D03*
%TD*%
D37*
%TO.C,CM1*%
X96000000Y-109962500D03*
X96000000Y-112037500D03*
%TD*%
D33*
%TO.C,QP1*%
X103750000Y-83110000D03*
X103750000Y-81840000D03*
D32*
X103750000Y-80570000D03*
%TD*%
D30*
%TO.C,CF1*%
X96250000Y-90750000D03*
X94175000Y-90750000D03*
%TD*%
D38*
%TO.C,RB7*%
X99750000Y-81840000D03*
X99750000Y-83840000D03*
%TD*%
D42*
%TO.C,L2*%
X103500000Y-95750000D03*
X103500000Y-105280000D03*
%TD*%
D18*
%TO.C,MH4*%
X75500000Y-65400000D03*
%TD*%
%LPD*%
M02*
